<svg xmlns="http://www.w3.org/2000/svg" width="25.865" height="17.693" viewBox="0 0 25.865 17.693">
  <g id="ic_eye" transform="translate(0.528 0.337)">
    <g id="Group_4601" data-name="Group 4601" transform="translate(-0.25 -0.087)">
      <path id="Path_4415" data-name="Path 4415" d="M-.122,8.195C2.961,4.028,7.528-.253,13.065-.082,18.316.089,22.312,4.085,25,8.195a.616.616,0,0,1,0,.628c-2.683,4.11-6.679,8.163-11.93,8.277-5.537.171-10.1-4.11-13.186-8.22A.52.52,0,0,1-.122,8.195Zm1.142.343C3.874,12.191,8.1,16.13,13.065,16.015c4.681-.171,8.334-3.825,10.732-7.478C21.4,4.884,17.746,1.174,13.065,1.06,8.1.945,3.874,4.827,1.02,8.537Z" transform="translate(0.25 0.087)" fill="#8e8e93" stroke="#666" stroke-width="0.5"/>
      <path id="Path_4416" data-name="Path 4416" d="M138.08,62A5.052,5.052,0,1,1,133,67.08,5.08,5.08,0,0,1,138.08,62Zm0,1.142a3.947,3.947,0,0,0-3.939,3.939,3.91,3.91,0,1,0,3.939-3.939Z" transform="translate(-125.394 -58.456)" fill="#8e8e93" stroke="#666" stroke-width="0.5"/>
    </g>
  </g>
</svg>
