<svg width="24" height="24" viewBox="0 0 24 24" fill="none" xmlns="http://www.w3.org/2000/svg">
<path d="M21.3296 21.3293V4.33284C21.3296 4.14955 21.1797 3.99958 20.9964 3.99958H13.9978V2.33326C13.9978 2.14997 13.8479 2 13.6646 2H4.3332C4.1499 2 3.99993 2.14997 3.99993 2.33326V10.8354L4.66646 10.3355V2.66653H13.3313V10.6669L13.9978 11V4.66611H20.6631V21.3293H13.9978V19.6796L20.1006 17.6467C20.2714 17.5884 20.3672 17.4051 20.313 17.2343L18.98 12.9019C18.9258 12.7269 18.7425 12.627 18.5676 12.6811L17.6552 12.9519L13.4893 10.7065C13.3268 10.6191 13.1268 10.6815 13.0394 10.844L12.9352 11.0356L8.53196 7.73632C8.41532 7.64884 8.24869 7.64884 8.13205 7.73632L2.79983 11.7355C2.71652 11.798 2.66653 11.898 2.66653 12.0021V21.3335H2V22H21.9958V21.3335H21.3293L21.3296 21.3293ZM13.3313 21.3293H11.3317V20.5711L13.3313 19.9046V21.3293ZM19.5841 17.1176L11.2232 19.9045L10.0776 15.8928L18.4423 13.4141L19.5841 17.1176ZM13.4688 11.4479L16.7515 13.2142L11.7152 14.7056L13.4688 11.4479ZM3.33341 12.1644L8.33236 8.41519L12.6149 11.627L10.8111 14.9763L9.5697 15.3429C9.39474 15.3929 9.29476 15.5762 9.34475 15.7553L9.79464 17.33H9.33222V17.9965H9.98625L10.6653 20.3752V21.3292H8.66569V14.3306H10.332V13.6641H5.66632C5.48303 13.6641 5.33306 13.8141 5.33306 13.9974V21.3292H3.33348L3.33341 12.1644ZM7.9991 21.329H5.99952V14.3304H7.9991V21.329Z" fill="black"/>
<path d="M6.99928 12.6643H9.66539C9.84868 12.6643 9.99865 12.5144 9.99865 12.3311V10.998C9.99865 10.8939 9.94866 10.7939 9.86534 10.7314L8.53229 9.73163C8.41565 9.64414 8.24902 9.64414 8.13237 9.73163L6.79932 10.7314C6.71601 10.7939 6.66602 10.8939 6.66602 10.998V12.3311C6.66602 12.5144 6.81598 12.6643 6.99928 12.6643ZM7.33254 11.1647L8.33233 10.4148L9.33212 11.1647V11.9978H7.33254V11.1647Z" fill="black"/>
<path d="M6.66602 17.3301H7.33254V17.9966H6.66602V17.3301Z" fill="black"/>
<path d="M12.4437 17.9766L15.618 16.8227C16.0763 17.3976 16.9094 17.4975 17.4885 17.0393C18.0634 16.5811 18.1633 15.7479 17.7051 15.1689C17.2469 14.594 16.4137 14.494 15.8347 14.9522C15.4556 15.2522 15.2681 15.7354 15.3473 16.2103L14.8182 16.4019L14.4266 15.223L13.7934 15.4355L14.1933 16.6311L13.5227 16.8727L13.2894 16.2145L12.6603 16.4394L12.8978 17.1018L12.2188 17.3476L12.4437 17.9766ZM16.6638 15.3313C17.0304 15.3313 17.3303 15.6313 17.3303 15.9978C17.3303 16.3644 17.0304 16.6644 16.6638 16.6644C16.2972 16.6644 15.9972 16.3644 15.9972 15.9978C15.9972 15.6313 16.2972 15.3313 16.6638 15.3313Z" fill="black"/>
<path d="M5.66602 3.66602H6.99907V4.33254H5.66602V3.66602Z" fill="black"/>
<path d="M8.33203 3.66602H9.66508V4.33254H8.33203V3.66602Z" fill="black"/>
<path d="M10.998 3.66602H12.3311V4.33254H10.998V3.66602Z" fill="black"/>
<path d="M5.66602 5.33203H6.99907V5.99856H5.66602V5.33203Z" fill="black"/>
<path d="M8.33203 5.33203H9.66508V5.99856H8.33203V5.33203Z" fill="black"/>
<path d="M10.998 5.33203H12.3311V5.99856H10.998V5.33203Z" fill="black"/>
<path d="M5.66602 6.99805H6.99907V7.66457H5.66602V6.99805Z" fill="black"/>
<path d="M8.99902 6.99805H9.66555V7.66457H8.99902V6.99805Z" fill="black"/>
<path d="M10.998 6.99805H12.3311V7.66457H10.998V6.99805Z" fill="black"/>
<path d="M11.665 8.66602H12.3316V9.33254H11.665V8.66602Z" fill="black"/>
<path d="M14.6641 5.66602H15.9971V6.33254H14.6641V5.66602Z" fill="black"/>
<path d="M16.6641 5.66602H17.9971V6.33254H16.6641V5.66602Z" fill="black"/>
<path d="M18.6631 5.66602H19.9961V6.33254H18.6631V5.66602Z" fill="black"/>
<path d="M14.6641 7.33203H15.9971V7.99856H14.6641V7.33203Z" fill="black"/>
<path d="M16.6641 7.33203H17.9971V7.99856H16.6641V7.33203Z" fill="black"/>
<path d="M18.6631 7.33203H19.9961V7.99856H18.6631V7.33203Z" fill="black"/>
<path d="M14.6641 8.99805H15.9971V9.66457H14.6641V8.99805Z" fill="black"/>
<path d="M16.6641 8.99805H17.9971V9.66457H16.6641V8.99805Z" fill="black"/>
<path d="M18.6631 8.99805H19.9961V9.66457H18.6631V8.99805Z" fill="black"/>
<path d="M15.3311 10.6641H15.9976V11.3306H15.3311V10.6641Z" fill="black"/>
<path d="M16.6641 10.6641H17.9971V11.3306H16.6641V10.6641Z" fill="black"/>
<path d="M18.6631 10.6641H19.9961V11.3306H18.6631V10.6641Z" fill="black"/>
<path d="M18.6631 18.3301H19.9961V18.9966H18.6631V18.3301Z" fill="black"/>
<path d="M14.6641 19.9961H15.9971V20.6626H14.6641V19.9961Z" fill="black"/>
<path d="M16.6641 19.9961H17.9971V20.6626H16.6641V19.9961Z" fill="black"/>
<path d="M18.6631 19.9961H19.9961V20.6626H18.6631V19.9961Z" fill="black"/>
</svg>
