<svg width="24" height="24" viewBox="0 0 24 24" fill="none" xmlns="http://www.w3.org/2000/svg">
<path d="M4.15577 10.0661H6.17795C6.40023 10.0661 6.57786 9.88835 6.57786 9.66623V7.64405C6.57786 7.42177 6.40007 7.24414 6.17795 7.24414H4.15577C3.93349 7.24414 3.75586 7.42193 3.75586 7.64405V9.66623C3.7557 9.88836 3.9335 10.0661 4.15577 10.0661ZM4.1336 7.64405C4.1336 7.62188 4.1336 7.62188 4.15577 7.62188H6.17795C6.20012 7.62188 6.20012 7.62188 6.20012 7.64405V9.66623C6.20012 9.6884 6.20012 9.6884 6.17795 9.6884H4.15577C4.1336 9.6884 4.1336 9.6884 4.1336 9.66623V7.64405Z" fill="black" stroke="black" stroke-width="0.2"/>
<path d="M6.2219 11.6445H4.19971C3.97743 11.6445 3.7998 11.8223 3.7998 12.0444V14.0666C3.7998 14.2889 3.9776 14.4665 4.19971 14.4665L6.2219 14.4667C6.44417 14.4667 6.6218 14.2889 6.6218 14.0668V12.0446C6.59979 11.8223 6.422 11.6445 6.2219 11.6445ZM6.24422 14.0666C6.24422 14.0888 6.24422 14.0888 6.22205 14.0888H4.19987C4.1777 14.0888 4.1777 14.0888 4.1777 14.0666V12.0444C4.1777 12.0223 4.1777 12.0223 4.19987 12.0223H6.22189C6.24406 12.0223 6.24406 12.0223 6.24406 12.0444L6.24422 14.0666Z" fill="black" stroke="black" stroke-width="0.2"/>
<path d="M10.6882 14.0432V12.021C10.6882 11.7987 10.5104 11.6211 10.2883 11.6211H8.26612C8.04384 11.6211 7.86621 11.7989 7.86621 12.021V14.0432C7.86621 14.2655 8.044 14.4431 8.26612 14.4431H10.2883C10.5104 14.4209 10.6882 14.2431 10.6882 14.0432ZM8.24378 14.0432V12.021C8.24378 11.9988 8.24378 11.9988 8.26594 11.9988H10.2881C10.3103 11.9988 10.3103 11.9988 10.3103 12.021V14.0432C10.3103 14.0654 10.3103 14.0654 10.2881 14.0654H8.26594C8.24378 14.0654 8.24378 14.0432 8.24378 14.0432Z" fill="black" stroke="black" stroke-width="0.2"/>
<path d="M8.22233 10.0448H10.2445C10.4668 10.0448 10.6444 9.86702 10.6444 9.6449V7.62272C10.6444 7.40044 10.4666 7.22281 10.2445 7.22281L8.22233 7.22266C8.00005 7.22266 7.82242 7.40045 7.82242 7.62256L7.82227 9.64475C7.82227 9.86703 8.00005 10.0448 8.22233 10.0448ZM8.20001 7.62272C8.20001 7.60055 8.20001 7.60055 8.22217 7.60055H10.2444C10.2665 7.60055 10.2665 7.60055 10.2665 7.62272L10.2667 9.64474C10.2667 9.66691 10.2667 9.66691 10.2445 9.66691L8.22233 9.66706C8.20016 9.66706 8.20016 9.66706 8.20016 9.6449L8.20001 7.62272Z" fill="black" stroke="black" stroke-width="0.2"/>
<path d="M16.8659 13.8438H15.5548C15.2659 13.8438 15.0215 14.0882 15.0215 14.3771V14.7327C15.0215 15.0216 15.2659 15.266 15.5548 15.266H16.8659C17.1548 15.266 17.3992 15.0216 17.3992 14.7327V14.3771C17.3991 14.0882 17.1548 13.8438 16.8659 13.8438ZM17.0213 14.7327C17.0213 14.8215 16.9547 14.9105 16.8435 14.9105H15.5325C15.4437 14.9105 15.3547 14.8438 15.3547 14.7327V14.3771C15.3547 14.2883 15.4214 14.1993 15.5325 14.1993H16.8435C16.9324 14.1993 17.0213 14.266 17.0213 14.3771V14.7327Z" fill="black" stroke="black" stroke-width="0.2"/>
<path d="M21.9326 15.5328L20.3548 14.0885V11.244C20.3548 11.1329 20.266 11.0662 20.177 11.0662H18.5549C18.4437 11.0662 18.3771 11.155 18.3771 11.244V12.2884L16.5549 10.6218C16.3549 10.444 16.0215 10.444 15.8437 10.6218L12.444 13.6663V4.82215C12.444 4.35542 12.0662 4 11.6218 4H2.82215C2.35542 4 2 4.37774 2 4.82215V19.3772C2 19.8439 2.37774 20.1993 2.82215 20.1993H12.5107C12.5328 20.1993 12.5773 20.1993 12.5995 20.1771H12.6217H19.777C20.1325 20.1771 20.3991 19.8882 20.3991 19.5549V15.9551L21.8213 15.8663C21.888 15.8663 21.9546 15.8218 21.9769 15.733C22.0213 15.6662 21.9991 15.5995 21.9325 15.5329L21.9326 15.5328ZM19.9994 11.4219V13.7552L18.755 12.6219L18.7549 11.4219H19.9994ZM8.42202 19.8216H6.02211V17.0662C6.02211 17.0217 6.04428 16.9995 6.08876 16.9995H8.35539C8.39987 16.9995 8.42204 17.0217 8.42204 17.0662L8.42202 19.8216ZM8.35537 16.6216H6.08875C5.8443 16.6216 5.64436 16.8216 5.64436 17.066V19.8215H2.8222C2.57776 19.8215 2.35547 19.6216 2.35547 19.3548L2.35563 4.82199C2.35563 4.57755 2.55559 4.35526 2.82236 4.35526H11.5998C11.8443 4.35526 12.0665 4.55522 12.0665 4.82199V13.9994L10.3777 15.5327C10.3111 15.5772 10.3111 15.666 10.3333 15.7327C10.3554 15.7994 10.4221 15.8438 10.5111 15.8438L11.9999 15.8883V19.5548C11.9999 19.6659 12.0221 19.7547 12.0665 19.8437H8.77766V17.066C8.77766 16.8216 8.59986 16.6215 8.35541 16.6215L8.35537 16.6216ZM17.2217 19.7994H15.1995V17.7772C15.1995 17.6216 15.3328 17.4883 15.4884 17.4883H16.9328C17.0884 17.4883 17.2217 17.6216 17.2217 17.7772L17.2217 19.7994ZM20.2215 15.5995C20.1327 15.5995 20.0437 15.6883 20.0437 15.7773V19.5549C20.0437 19.6882 19.9326 19.8215 19.7771 19.8215H17.5772V17.7993C17.5772 17.4438 17.2882 17.1327 16.9105 17.1327H15.4662C15.1106 17.1327 14.7995 17.4216 14.7995 17.7993V19.8215H12.5995C12.4662 19.8215 12.3329 19.7104 12.3329 19.5549V15.6884C12.3329 15.5772 12.2441 15.5106 12.1551 15.5106L10.9552 15.4884L16.0662 10.8886C16.1328 10.8219 16.2218 10.8219 16.2884 10.8886L18.4218 12.8441L20.0439 14.3329L21.3549 15.5328L20.2215 15.5995Z" fill="black" stroke="black" stroke-width="0.2"/>
</svg>
