<svg width="24" height="24" viewBox="0 0 24 24" fill="none" xmlns="http://www.w3.org/2000/svg">
<path d="M21.1692 16.2386C19.9523 15.9301 17.9966 16.7417 17.1527 17.1365C17.0162 16.3999 15.7045 15.9815 14.9915 15.8393C13.6621 15.6084 11.2818 14.2511 11.2785 14.2511C10.1025 13.3799 8.43287 13.9342 7.38215 14.4465L7.33654 14.178C7.31496 14.0506 7.19526 13.965 7.06621 13.9861L2.38276 14.7812C2.25457 14.8027 2.16925 14.9243 2.19084 15.0515L3.19548 20.9703C3.21447 21.0828 3.31231 21.1656 3.42639 21.1656C3.43949 21.1656 3.45258 21.1643 3.46553 21.1622L8.15008 20.367C8.27827 20.3454 8.36387 20.2236 8.342 20.0967L8.25424 19.5786C10.2821 19.8927 13.0276 20.8301 13.0504 20.838C14.6211 21.4275 16.317 21.1761 17.7895 20.4197C19.0308 19.7763 20.7996 19.1282 21.656 18.2518C22.2853 17.6086 22.0099 16.4488 21.169 16.2385L21.1692 16.2386ZM3.61874 20.6609L2.69251 15.204L6.91447 14.4874L7.8407 19.9443L3.61874 20.6609ZM21.3205 17.9243C20.5374 18.7252 18.7589 19.3893 17.5744 20.0031C16.721 20.4419 15.02 21.0768 13.2092 20.3969C13.0863 20.3547 10.2532 19.3875 8.17181 19.0931L7.46498 14.9286C8.27442 14.5196 9.9488 13.848 11.0232 14.6427C11.1238 14.7003 13.5004 16.0558 14.9063 16.3C15.5134 16.4221 16.902 16.8628 16.6588 17.4085C16.0059 18.0617 15.0004 18.2833 13.9319 17.6639C13.115 17.1901 12.1277 17.0514 12.0862 17.0454C11.9565 17.0267 11.8398 17.1176 11.8224 17.2457C11.8049 17.3739 11.8944 17.4923 12.0227 17.5097C12.0321 17.511 12.9618 17.6428 13.6971 18.0691C14.9659 18.8047 16.2043 18.5282 16.9938 17.7363C17.2582 17.6013 19.7429 16.3606 21.0559 16.6931C21.5363 16.8136 21.7037 17.533 21.321 17.9244L21.3205 17.9243Z" fill="black" stroke="black" stroke-width="0.1"/>
<path d="M5.59416 15.0605C5.26224 15.0605 4.99219 15.3306 4.99219 15.6625C4.99219 15.9944 5.26223 16.2645 5.59416 16.2645C5.92607 16.2645 6.19612 15.9944 6.19612 15.6625C6.19612 15.3306 5.92608 15.0605 5.59416 15.0605ZM5.59416 15.7956C5.52078 15.7956 5.46107 15.7359 5.46107 15.6625C5.46107 15.5891 5.52078 15.5294 5.59416 15.5294C5.66753 15.5294 5.72724 15.5891 5.72724 15.6625C5.72724 15.7359 5.66753 15.7956 5.59416 15.7956Z" fill="black" stroke="black" stroke-width="0.1"/>
<path d="M4.04435 15.3457C3.71244 15.3457 3.44238 15.6157 3.44238 15.9477C3.44238 16.2796 3.71243 16.5496 4.04435 16.5496C4.37626 16.5496 4.64632 16.2796 4.64632 15.9477C4.64632 15.6157 4.37627 15.3457 4.04435 15.3457ZM4.04435 16.0807C3.97098 16.0807 3.91127 16.0207 3.91127 15.9477C3.91127 15.8743 3.97098 15.8146 4.04435 15.8146C4.11773 15.8146 4.17743 15.8743 4.17743 15.9477C4.17743 16.021 4.11787 16.0807 4.04435 16.0807Z" fill="black" stroke="black" stroke-width="0.1"/>
<path d="M5.26456 8.92391C5.72208 8.92549 6.09584 9.29926 6.09743 9.75677C6.098 9.88583 6.20274 9.99027 6.33179 9.99027H19.2308C19.3599 9.99027 19.4649 9.88597 19.4652 9.75677C19.4667 9.30172 19.8342 8.9305 20.2871 8.92332C20.4236 8.93339 20.5383 8.82462 20.5387 8.68953L20.5386 4.38397C20.5386 4.2493 20.4264 4.1414 20.2888 4.15017C19.8375 4.14399 19.4714 3.77855 19.4644 3.32766C19.465 3.32176 19.465 3.31615 19.465 3.31054C19.465 3.1812 19.36 3.07617 19.2306 3.07617H6.332C6.20266 3.07617 6.09763 3.1812 6.09763 3.31054C6.09763 3.31558 6.09763 3.32061 6.0982 3.32579C6.09202 3.77955 5.72069 4.14801 5.26475 4.14989C5.1357 4.15046 5.03125 4.2552 5.03125 4.38425V8.68945C5.03096 8.81836 5.13541 8.92338 5.26447 8.92367L5.26456 8.92391ZM5.49979 4.59699C6.03112 4.49858 6.45077 4.0766 6.54631 3.54513H19.0162C19.1122 4.08017 19.535 4.50303 20.0699 4.59883V8.47531C19.5383 8.57098 19.1168 8.99065 19.0184 9.52183H6.54403C6.44591 8.99426 6.0274 8.57586 5.49968 8.47748L5.49979 4.59699Z" fill="black" stroke="black" stroke-width="0.1"/>
<path d="M7.41231 7.838C8.13383 7.838 8.72111 7.25113 8.72111 6.5295C8.72111 5.80798 8.13424 5.2207 7.41231 5.2207C6.69035 5.2207 6.10352 5.80757 6.10352 6.5295C6.10395 7.25117 6.69079 7.838 7.41231 7.838ZM7.41231 5.68986C7.87543 5.68986 8.25239 6.06638 8.25239 6.52994C8.25239 6.99276 7.87546 7.36958 7.41231 7.36958C6.9492 7.36958 6.57223 6.99265 6.57223 6.52994C6.57266 6.06638 6.94916 5.68986 7.41231 5.68986Z" fill="black" stroke="black" stroke-width="0.1"/>
<path d="M12.775 8.91217C14.0951 8.91217 15.1692 7.84307 15.1692 6.52894C15.1692 5.20891 14.0951 4.13477 12.775 4.13477C11.455 4.13477 10.3809 5.20847 10.3809 6.52894C10.3809 7.84307 11.455 8.91217 12.775 8.91217ZM12.775 4.60366C13.8367 4.60366 14.7003 5.46746 14.7003 6.52894C14.7003 7.58452 13.8365 8.44331 12.775 8.44331C11.7134 8.44331 10.8498 7.58456 10.8498 6.52894C10.8496 5.46746 11.7134 4.60366 12.775 4.60366Z" fill="black" stroke="black" stroke-width="0.1"/>
<path d="M18.1545 7.838C18.876 7.838 19.4633 7.25113 19.4633 6.5295C19.4633 5.80798 18.8764 5.2207 18.1545 5.2207C17.433 5.2207 16.8457 5.80757 16.8457 6.5295C16.846 7.25117 17.4328 7.838 18.1545 7.838ZM18.1545 5.68986C18.6176 5.68986 18.9946 6.06638 18.9946 6.52994C18.9946 6.99276 18.6176 7.36958 18.1545 7.36958C17.6914 7.36958 17.3144 6.99265 17.3144 6.52994C17.3147 6.06638 17.6913 5.68986 18.1545 5.68986Z" fill="black" stroke="black" stroke-width="0.1"/>
<path d="M12.0182 7.09647L11.7412 7.42651C12.0169 7.66677 12.3278 7.80462 12.6741 7.84001V8.11682H12.9169V7.84375C13.1747 7.83095 13.3819 7.75527 13.5389 7.61629C13.6954 7.47717 13.7738 7.29718 13.7738 7.0759C13.7738 6.85463 13.7056 6.68586 13.5691 6.56962C13.4326 6.45338 13.2188 6.36115 12.9282 6.29281H12.917V5.57965C13.1116 5.60742 13.2923 5.68094 13.4592 5.79963L13.7058 5.4506C13.4581 5.28126 13.1949 5.18659 12.9171 5.16616V4.97266H12.6743V5.16199C12.4289 5.1748 12.2298 5.25076 12.0767 5.38974C11.9239 5.52886 11.8474 5.70784 11.8474 5.92637C11.8474 6.14505 11.914 6.30978 12.0465 6.42101C12.1793 6.53222 12.3884 6.62229 12.6744 6.69034L12.6741 7.42652C12.4491 7.39113 12.2307 7.2812 12.0182 7.09647ZM12.9172 6.75521C13.0687 6.80081 13.1726 6.8493 13.2281 6.90109C13.2838 6.95303 13.3116 7.02324 13.3116 7.11172C13.3116 7.2002 13.2759 7.27358 13.2052 7.3317C13.1343 7.38983 13.0384 7.42508 12.9171 7.43759L12.9172 6.75521ZM12.386 6.08204C12.3354 6.0327 12.3101 5.9658 12.3101 5.88077C12.3101 5.79603 12.3423 5.7251 12.4069 5.66856C12.4712 5.61173 12.5604 5.57792 12.6741 5.56799V6.22417C12.5328 6.17871 12.4365 6.13154 12.386 6.08204Z" fill="black" stroke="black" stroke-width="0.1"/>
<path d="M18.9691 14.7534C19.0781 14.7534 19.1725 14.6777 19.1972 14.5724L20.0173 11.0635H21.3792C21.5086 11.0635 21.6136 10.9584 21.6136 10.8291V2.23566C21.6136 2.10632 21.5086 2.00129 21.3792 2.00129H4.19675C4.19459 2.00129 4.19272 2 4.19085 2C4.07935 2 3.99015 2.07971 3.96685 2.18401C3.96555 2.18718 3.96339 2.19005 3.96239 2.19336L2.00617 10.55C1.97682 10.6763 2.05494 10.8022 2.18083 10.8315L18.9154 14.7474C18.9333 14.7517 18.951 14.7536 18.9691 14.7536L18.9691 14.7534ZM21.1448 10.5948H7.92059C7.91771 10.5948 7.91527 10.5938 7.91253 10.5938H4.42654C4.42654 7.96869 4.42841 7.35965 4.42841 2.46991H21.1453V10.5949L21.1448 10.5948ZM18.4325 11.0635L18.2307 11.9266C17.6857 11.8976 17.1826 12.2169 16.9685 12.7078L9.94588 11.0634L18.4325 11.0635ZM3.95642 10.7654L2.51639 10.4282L3.95642 4.27664C3.95642 7.46669 4.05137 6.52982 3.54048 8.71185C3.51113 8.83773 3.58926 8.96376 3.71514 8.9934C3.79916 9.01311 3.87988 9.0462 3.95642 9.09181V10.7654ZM5.23055 11.0635H7.88973L17.0692 13.2127C17.195 13.2415 17.3208 13.1645 17.3504 13.0389C17.4542 12.6045 17.8898 12.322 18.3273 12.4099C18.4592 12.46 18.6057 12.3818 18.6382 12.244L18.9144 11.0634H19.5364L18.7944 14.2372L5.23055 11.0635Z" fill="black" stroke="black" stroke-width="0.1"/>
</svg>
