<svg width="24" height="24" viewBox="0 0 24 24" fill="none" xmlns="http://www.w3.org/2000/svg">
<path d="M15.2035 10.1693H17.5379C17.6909 10.1277 17.7973 9.98882 17.7973 9.83015C17.7973 9.67148 17.6909 9.53242 17.5379 9.49083H15.2035C15.0978 9.46211 14.9848 9.48424 14.8977 9.55078C14.8108 9.61733 14.7598 9.7206 14.7598 9.83015C14.7598 9.9397 14.8108 10.043 14.8977 10.1094C14.9848 10.1759 15.0978 10.198 15.2035 10.1693Z" fill="black"/>
<path d="M15.2035 11.8587H17.538C17.6944 11.8194 17.804 11.6788 17.804 11.5176C17.804 11.3564 17.6944 11.2158 17.538 11.1766H15.2035C15.0985 11.1502 14.9873 11.1739 14.9019 11.2404C14.8165 11.307 14.7666 11.4093 14.7666 11.5176C14.7666 11.6259 14.8165 11.7282 14.9019 11.7948C14.9873 11.8613 15.0985 11.885 15.2035 11.8587Z" fill="black"/>
<path d="M15.2035 13.5463H17.5379C17.6909 13.5047 17.7973 13.3656 17.7973 13.2069C17.7973 13.0483 17.6909 12.9094 17.5379 12.8678H15.2035C15.0978 12.8391 14.9848 12.8612 14.8977 12.9277C14.8108 12.9941 14.7598 13.0974 14.7598 13.2069C14.7598 13.3165 14.8108 13.4198 14.8977 13.4863C14.9848 13.5528 15.0978 13.575 15.2035 13.5463Z" fill="black"/>
<path d="M17.8753 14.897C17.8753 14.8038 17.8382 14.7145 17.7723 14.6484C17.7064 14.5825 17.617 14.5455 17.5237 14.5455H15.2035C15.0978 14.5168 14.9848 14.5391 14.8977 14.6054C14.8108 14.672 14.7598 14.7753 14.7598 14.8848C14.7598 14.9944 14.8108 15.0976 14.8977 15.1642C14.9848 15.2306 15.0978 15.2528 15.2035 15.2241H17.5379C17.7174 15.2174 17.8629 15.0763 17.8753 14.897Z" fill="black"/>
<path d="M17.2876 16.5742C17.2876 16.481 17.2506 16.3915 17.1847 16.3256C17.1186 16.2597 17.0293 16.2227 16.9361 16.2227H15.1783C15.0218 16.2619 14.9121 16.4024 14.9121 16.5637C14.9121 16.7249 15.0218 16.8655 15.1783 16.9046H16.9361C17.1222 16.9051 17.2763 16.76 17.2876 16.5742Z" fill="black"/>
<path d="M15.2035 18.6011H16.5254C16.631 18.6298 16.744 18.6075 16.8311 18.5411C16.9181 18.4746 16.9691 18.3713 16.9691 18.2618C16.9691 18.1522 16.9181 18.0489 16.8311 17.9824C16.744 17.916 16.631 17.8937 16.5254 17.9224H15.2035C15.0978 17.8937 14.9848 17.916 14.8977 17.9824C14.8108 18.0489 14.7598 18.1522 14.7598 18.2618C14.7598 18.3713 14.8108 18.4746 14.8977 18.5411C14.9848 18.6075 15.0978 18.6298 15.2035 18.6011Z" fill="black"/>
<path d="M15.2035 20.308H16.7644C16.8701 20.3367 16.9832 20.3146 17.0702 20.248C17.1571 20.1815 17.2081 20.0782 17.2081 19.9687C17.2081 19.8593 17.1571 19.756 17.0702 19.6895C16.9832 19.6229 16.8701 19.6008 16.7644 19.6295H15.2035C15.0978 19.6008 14.9848 19.6229 14.8977 19.6895C14.8108 19.756 14.7598 19.8593 14.7598 19.9687C14.7598 20.0782 14.8108 20.1815 14.8977 20.248C14.9848 20.3146 15.0978 20.3367 15.2035 20.308Z" fill="black"/>
<path d="M18.9295 10.1693H19.2249C19.3305 10.198 19.4436 10.1759 19.5306 10.1094C19.6175 10.043 19.6685 9.93969 19.6685 9.83015C19.6685 9.7206 19.6175 9.61733 19.5306 9.55078C19.4436 9.48424 19.3305 9.46211 19.2249 9.49083H18.9331C18.8273 9.46211 18.7143 9.48424 18.6274 9.55078C18.5404 9.61733 18.4893 9.7206 18.4893 9.83015C18.4893 9.9397 18.5404 10.043 18.6274 10.1094C18.7143 10.1759 18.8273 10.198 18.9331 10.1693H18.9295Z" fill="black"/>
<path d="M18.9295 16.9134H19.2249C19.3305 16.9422 19.4436 16.92 19.5306 16.8535C19.6175 16.7871 19.6685 16.6838 19.6685 16.5743C19.6685 16.4647 19.6175 16.3615 19.5306 16.2949C19.4436 16.2284 19.3305 16.2063 19.2249 16.235H18.9331C18.8273 16.2063 18.7143 16.2284 18.6274 16.2949C18.5404 16.3615 18.4893 16.4647 18.4893 16.5743C18.4893 16.6838 18.5404 16.7871 18.6274 16.8535C18.7143 16.92 18.8273 16.9422 18.9331 16.9134H18.9295Z" fill="black"/>
<path d="M18.9296 11.8587H19.2249C19.3814 11.8194 19.491 11.6788 19.491 11.5176C19.491 11.3564 19.3814 11.2158 19.2249 11.1766H18.9332C18.828 11.1502 18.7168 11.1739 18.6314 11.2404C18.546 11.307 18.4961 11.4093 18.4961 11.5176C18.4961 11.6259 18.546 11.7282 18.6314 11.7948C18.7168 11.8613 18.828 11.885 18.9332 11.8586L18.9296 11.8587Z" fill="black"/>
<path d="M18.9296 16.9153H19.2249C19.3814 16.8761 19.491 16.7354 19.491 16.5742C19.491 16.4131 19.3814 16.2724 19.2249 16.2332H18.9332C18.828 16.2068 18.7168 16.2305 18.6314 16.2971C18.546 16.3636 18.4961 16.466 18.4961 16.5742C18.4961 16.6825 18.546 16.7849 18.6314 16.8514C18.7168 16.918 18.828 16.9417 18.9332 16.9153L18.9296 16.9153Z" fill="black"/>
<path d="M18.9295 13.5463H19.2249C19.3305 13.575 19.4436 13.5528 19.5306 13.4863C19.6175 13.4198 19.6685 13.3165 19.6685 13.2069C19.6685 13.0974 19.6175 12.9941 19.5306 12.9277C19.4436 12.8612 19.3305 12.8391 19.2249 12.8678H18.9331C18.8273 12.8391 18.7143 12.8612 18.6274 12.9277C18.5404 12.9941 18.4893 13.0974 18.4893 13.2069C18.4893 13.3165 18.5404 13.4198 18.6274 13.4863C18.7143 13.5528 18.8273 13.575 18.9331 13.5463H18.9295Z" fill="black"/>
<path d="M18.9295 16.9134H19.2249C19.3305 16.9422 19.4436 16.92 19.5306 16.8535C19.6175 16.7869 19.6685 16.6837 19.6685 16.5741C19.6685 16.4646 19.6175 16.3613 19.5306 16.2949C19.4436 16.2284 19.3305 16.2063 19.2249 16.235H18.9331C18.8273 16.2063 18.7143 16.2284 18.6274 16.2949C18.5404 16.3613 18.4893 16.4646 18.4893 16.5741C18.4893 16.6837 18.5404 16.7869 18.6274 16.8535C18.7143 16.92 18.8273 16.9422 18.9331 16.9134H18.9295Z" fill="black"/>
<path d="M18.9393 18.6009H19.2346C19.3402 18.6297 19.4534 18.6075 19.5404 18.541C19.6273 18.4744 19.6783 18.3712 19.6783 18.2616C19.6783 18.1521 19.6273 18.0488 19.5404 17.9824C19.4534 17.9159 19.3402 17.8938 19.2346 17.9225H18.9429C18.8371 17.8938 18.7241 17.9159 18.6371 17.9824C18.5502 18.0488 18.499 18.1521 18.499 18.2616C18.499 18.3712 18.5502 18.4744 18.6371 18.541C18.7241 18.6075 18.8371 18.6297 18.9429 18.6009H18.9393Z" fill="black"/>
<path d="M18.9393 20.3197H19.2346C19.3402 20.3484 19.4534 20.3263 19.5404 20.2597C19.6273 20.1932 19.6783 20.0899 19.6783 19.9804C19.6783 19.8708 19.6273 19.7676 19.5404 19.7012C19.4534 19.6346 19.3402 19.6125 19.2346 19.6412H18.9429C18.8371 19.6125 18.7241 19.6346 18.6371 19.7012C18.5502 19.7676 18.499 19.8708 18.499 19.9804C18.499 20.0899 18.5502 20.1932 18.6371 20.2597C18.7241 20.3263 18.8371 20.3484 18.9429 20.3197H18.9393Z" fill="black"/>
<path d="M18.9295 15.2377H19.2249C19.3305 15.2664 19.4436 15.2443 19.5306 15.1777C19.6175 15.1112 19.6685 15.0079 19.6685 14.8985C19.6685 14.789 19.6175 14.6857 19.5306 14.6191C19.4436 14.5526 19.3305 14.5305 19.2249 14.5592H18.9331C18.8273 14.5305 18.7143 14.5526 18.6274 14.6191C18.5404 14.6857 18.4893 14.789 18.4893 14.8985C18.4893 15.0079 18.5404 15.1112 18.6274 15.1777C18.7143 15.2443 18.8273 15.2664 18.9331 15.2377H18.9295Z" fill="black"/>
<path d="M3.44348 3.49941C3.24934 3.49941 3.09192 3.65667 3.09192 3.85096V21.6361C3.09192 21.7294 3.12896 21.8188 3.19487 21.8847C3.26095 21.9506 3.35025 21.9877 3.44348 21.9877H20.7292C20.8349 22.0164 20.948 21.9943 21.035 21.9277C21.1219 21.8612 21.1729 21.7579 21.1729 21.6485C21.1729 21.539 21.1219 21.4357 21.035 21.3692C20.948 21.3026 20.8349 21.2805 20.7292 21.3092H13.9517V8.50209H20.4907V21.5796C20.5299 21.7359 20.6704 21.8456 20.8317 21.8456C20.9929 21.8456 21.1335 21.7359 21.1727 21.5796V8.16098C21.1727 8.06776 21.1357 7.9783 21.0698 7.91238C21.0037 7.84647 20.9144 7.80943 20.8212 7.80943H20.3886C20.3105 7.08433 19.9868 6.4079 19.4716 5.89185C18.9562 5.37597 18.2801 5.05141 17.5552 4.9723V4.01257C17.5815 3.90757 17.558 3.79614 17.4913 3.71077C17.4247 3.62539 17.3224 3.57548 17.2141 3.57548C17.1058 3.57548 17.0037 3.62539 16.937 3.71077C16.8704 3.79614 16.8469 3.90757 16.8731 4.01257V4.98279C16.1478 5.06189 15.4712 5.38613 14.9554 5.90202C14.4393 6.41806 14.1151 7.09466 14.0362 7.81987H13.6001C13.406 7.81987 13.2486 7.97729 13.2486 8.17143V9.53197H10.0248V3.84037C10.0248 3.74714 9.98775 3.65784 9.92183 3.59177C9.85592 3.52585 9.76646 3.48881 9.67323 3.48881H9.06506V2.69092H9.68372C9.7895 2.71964 9.9025 2.69735 9.98945 2.63096C10.0766 2.56442 10.1276 2.46115 10.1276 2.3516C10.1276 2.24206 10.0766 2.13878 9.98945 2.07224C9.9025 2.00586 9.7895 1.98357 9.68372 2.01229H3.44368C3.33806 1.98357 3.22506 2.00585 3.13795 2.07224C3.05101 2.13878 3 2.24206 3 2.3516C3 2.46115 3.05101 2.56442 3.13795 2.63096C3.22506 2.69735 3.33806 2.71964 3.44368 2.69092H4.06251V3.4995L3.44348 3.49941ZM17.2141 5.66492C17.8213 5.66601 18.4075 5.88652 18.865 6.28579C19.3223 6.68505 19.62 7.23607 19.703 7.8375H14.725C14.8066 7.23547 15.104 6.68347 15.5617 6.28406C16.0193 5.88448 16.6065 5.66443 17.214 5.66492H17.2141ZM13.2485 10.2106V21.2953H10.0247V10.2106H13.2485ZM9.34626 9.88373V21.3095H3.78443V4.17806H9.34626V9.88373ZM4.74428 2.69108H8.38649V3.49966H4.74428V2.69108Z" fill="black"/>
<path d="M11.0054 11.6163H12.2816C12.3866 11.6427 12.498 11.6192 12.5834 11.5525C12.6688 11.4859 12.7187 11.3836 12.7187 11.2753C12.7187 11.167 12.6688 11.0648 12.5834 10.9981C12.498 10.9316 12.3866 10.908 12.2816 10.9344H11.0054C10.849 10.9735 10.7393 11.1141 10.7393 11.2753C10.7393 11.4366 10.849 11.5771 11.0054 11.6163Z" fill="black"/>
<path d="M11.0055 13.1068H12.2817C12.3873 13.1355 12.5004 13.1134 12.5874 13.0468C12.6743 12.9803 12.7253 12.877 12.7253 12.7675C12.7253 12.6579 12.6743 12.5547 12.5874 12.4883C12.5004 12.4217 12.3873 12.3996 12.2817 12.4283H11.0055C10.8523 12.4699 10.7461 12.6088 10.7461 12.7675C10.7461 12.9262 10.8523 13.0652 11.0055 13.1068Z" fill="black"/>
<path d="M11.0054 14.6008H12.2816C12.3866 14.6272 12.498 14.6035 12.5834 14.537C12.6688 14.4704 12.7187 14.3681 12.7187 14.2598C12.7187 14.1515 12.6688 14.0492 12.5834 13.9826C12.498 13.9161 12.3866 13.8924 12.2816 13.9188H11.0054C10.849 13.958 10.7393 14.0986 10.7393 14.2598C10.7393 14.421 10.849 14.5616 11.0054 14.6008Z" fill="black"/>
<path d="M11.0055 16.0912H12.2817C12.3873 16.1199 12.5004 16.0978 12.5874 16.0312C12.6743 15.9648 12.7253 15.8616 12.7253 15.752C12.7253 15.6425 12.6743 15.5392 12.5874 15.4727C12.5004 15.4061 12.3873 15.384 12.2817 15.4127H11.0055C10.8523 15.4543 10.7461 15.5933 10.7461 15.752C10.7461 15.9107 10.8523 16.0496 11.0055 16.0912Z" fill="black"/>
<path d="M11.0054 17.5862H12.2816C12.438 17.5471 12.5476 17.4065 12.5476 17.2453C12.5476 17.084 12.438 16.9435 12.2816 16.9043H11.0054C10.849 16.9435 10.7393 17.084 10.7393 17.2453C10.7393 17.4065 10.849 17.5471 11.0054 17.5862Z" fill="black"/>
<path d="M11.0055 19.0775H12.2817C12.3873 19.1062 12.5004 19.0841 12.5874 19.0176C12.6743 18.951 12.7253 18.8477 12.7253 18.7382C12.7253 18.6288 12.6743 18.5255 12.5874 18.459C12.5004 18.3924 12.3873 18.3703 12.2817 18.399H11.0055C10.8523 18.4406 10.7461 18.5797 10.7461 18.7382C10.7461 18.8969 10.8523 19.0359 11.0055 19.0775Z" fill="black"/>
<path d="M11.0055 20.5679H12.2817C12.3873 20.5966 12.5004 20.5743 12.5874 20.5079C12.6743 20.4414 12.7253 20.3381 12.7253 20.2286C12.7253 20.119 12.6743 20.0157 12.5874 19.9492C12.5004 19.8828 12.3873 19.8605 12.2817 19.8892H11.0055C10.8523 19.931 10.7461 20.0699 10.7461 20.2286C10.7461 20.3872 10.8523 20.5261 11.0055 20.5679Z" fill="black"/>
<path d="M4.68847 7.13835H5.89791C5.99113 7.13835 6.08044 7.10131 6.14651 7.0354C6.21242 6.96932 6.24946 6.88002 6.24946 6.78679V5.58789C6.24946 5.49466 6.21243 5.4052 6.14651 5.33928C6.08044 5.27337 5.99113 5.23633 5.89791 5.23633H4.68847C4.49433 5.23633 4.33691 5.39375 4.33691 5.58789V6.80078C4.34445 6.98942 4.49967 7.13851 4.68847 7.13835ZM5.04003 5.92892H5.56029V6.45971H5.0295L5.04003 5.92892Z" fill="black"/>
<path d="M7.24023 7.13835H8.44966C8.54289 7.13835 8.63235 7.10131 8.69827 7.0354C8.76418 6.96932 8.80122 6.88002 8.80122 6.78679V5.58789C8.80122 5.49466 8.76418 5.4052 8.69827 5.33928C8.63235 5.27337 8.54289 5.23633 8.44966 5.23633H7.24023C7.04609 5.23633 6.88867 5.39375 6.88867 5.58789V6.80078C6.89636 6.98942 7.05142 7.13851 7.24023 7.13835ZM7.59179 5.92892H8.12258V6.45971H7.5778L7.59179 5.92892Z" fill="black"/>
<path d="M4.68847 12.3766H5.89791C5.99113 12.3766 6.08044 12.3396 6.14651 12.2737C6.21242 12.2076 6.24946 12.1183 6.24946 12.0251V10.8262C6.24946 10.7329 6.21243 10.6435 6.14651 10.5776C6.08044 10.5116 5.99113 10.4746 5.89791 10.4746H4.68847C4.49433 10.4746 4.33691 10.632 4.33691 10.8262V12.0391C4.34445 12.2277 4.49967 12.3768 4.68847 12.3766ZM5.04003 11.1672H5.56029V11.698H5.0295L5.04003 11.1672Z" fill="black"/>
<path d="M8.44967 10.4883H7.24023C7.04609 10.4883 6.88867 10.6457 6.88867 10.8398V12.0527C6.88867 12.146 6.92571 12.2354 6.99163 12.3013C7.0577 12.3672 7.147 12.4043 7.24023 12.4043H8.44967C8.54289 12.4043 8.63235 12.3672 8.69827 12.3013C8.76418 12.2354 8.80122 12.146 8.80122 12.0527V10.8257C8.79369 10.6371 8.63847 10.4881 8.44967 10.4883ZM8.09811 11.6977L7.57784 11.6976V11.1668H8.10864L8.09811 11.6977Z" fill="black"/>
<path d="M4.6879 9.13896H8.44956C8.60603 9.09972 8.71558 8.95926 8.71558 8.79792C8.71558 8.63674 8.60603 8.49611 8.44956 8.45703H4.6879C4.53142 8.49611 4.42188 8.63674 4.42188 8.79792C4.42188 8.95926 4.53142 9.09972 4.6879 9.13896Z" fill="black"/>
<path d="M4.68847 18.0601H5.89791C5.99113 18.0601 6.08044 18.023 6.14651 17.9571C6.21242 17.8912 6.24946 17.8017 6.24946 17.7085V16.5098C6.24946 16.4165 6.21243 16.3271 6.14651 16.2612C6.08044 16.1952 5.99113 16.1582 5.89791 16.1582H4.68847C4.49433 16.1582 4.33691 16.3156 4.33691 16.5098V17.7192C4.34256 17.9091 4.49841 18.0602 4.68847 18.0601ZM5.04003 16.8506L5.56029 16.8508V17.3781H5.0295L5.04003 16.8506Z" fill="black"/>
<path d="M8.44967 16.1699H7.24023C7.04609 16.1699 6.88867 16.3273 6.88867 16.5215V17.7309C6.88867 17.8241 6.92571 17.9136 6.99163 17.9795C7.0577 18.0454 7.147 18.0825 7.24023 18.0825H8.44967C8.54289 18.0825 8.63235 18.0454 8.69827 17.9795C8.76418 17.9136 8.80122 17.8241 8.80122 17.7309V16.511C8.79557 16.3209 8.63973 16.1699 8.44967 16.1699ZM8.09811 17.3794H7.57784V16.852H8.10864L8.09811 17.3794Z" fill="black"/>
<path d="M4.68783 14.6089H8.44948C8.55511 14.6376 8.66827 14.6153 8.75521 14.5489C8.84216 14.4824 8.89317 14.3791 8.89317 14.2696C8.89317 14.16 8.84216 14.0568 8.75521 13.9902C8.66827 13.9238 8.55511 13.9015 8.44948 13.9303H4.68783C4.5822 13.9015 4.46904 13.9238 4.3821 13.9902C4.29515 14.0568 4.24414 14.16 4.24414 14.2696C4.24414 14.3791 4.29515 14.4824 4.3821 14.5489C4.46904 14.6153 4.5822 14.6376 4.68783 14.6089Z" fill="black"/>
<path d="M4.6879 20.1567H8.44956C8.60603 20.1175 8.71558 19.9768 8.71558 19.8157C8.71558 19.6545 8.60603 19.5138 8.44956 19.4746H4.6879C4.53142 19.5138 4.42188 19.6545 4.42188 19.8157C4.42188 19.9768 4.53142 20.1175 4.6879 20.1567Z" fill="black"/>
</svg>
