<svg width="24" height="24" viewBox="0 0 24 24" fill="none" xmlns="http://www.w3.org/2000/svg">
<g clip-path="url(#clip0_1083_8281)">
<path d="M16.2596 3C16.4791 3.06269 16.7011 3.11098 16.9006 3.23593C17.4835 3.6002 17.773 4.33172 17.5731 4.96411C17.3541 5.65835 16.7221 6.10692 16.0098 6.07472C15.2821 6.04211 14.6245 5.44487 14.5527 4.75233C14.469 3.94372 14.9294 3.25796 15.6861 3.05972C15.7305 3.04829 15.7911 3.05761 15.8168 3.00042H15.9871C16.0098 3.0216 16.0324 3.0216 16.0555 3.00042H16.26L16.2596 3Z" fill="black"/>
<path d="M14.8123 6.97485C14.4553 7.07057 14.0988 7.16588 13.7336 7.26372C13.8579 6.84523 14.2508 6.55212 14.7214 6.56694C15.385 6.5877 16.049 6.6254 16.7096 6.68639C17.2327 6.73426 17.6171 7.16037 17.6132 7.68052C17.6094 8.19262 17.5658 8.7043 17.5372 9.21598C17.4761 10.3071 17.4142 11.3982 17.3502 12.4889C17.345 12.5728 17.3698 12.6393 17.4134 12.7088C17.8131 13.3429 18.2089 13.9791 18.6082 14.6136C18.7218 14.794 18.7918 14.9838 18.7914 15.2007C18.7893 16.6205 18.7927 18.0403 18.7888 19.4601C18.7876 19.896 18.5373 20.2043 18.1372 20.2916C17.6999 20.3869 17.249 20.0883 17.1755 19.6495C17.1597 19.5554 17.1542 19.4588 17.1542 19.3635C17.1529 18.0903 17.152 16.817 17.1554 15.5433C17.1554 15.4196 17.1243 15.3176 17.0581 15.2134C16.6208 14.5229 16.1865 13.8308 15.7582 13.1353C15.695 13.0328 15.6271 12.9794 15.5045 12.9811C15.3406 12.9841 15.1433 12.9167 15.0216 12.9858C14.8973 13.0565 14.9054 13.2751 14.8593 13.4297C14.6304 14.1942 14.4054 14.9596 14.176 15.7242C14.1457 15.8259 14.1069 15.9271 14.0582 16.0215C13.404 17.2855 12.7489 18.5494 12.0904 19.8113C11.8351 20.3009 11.3051 20.4534 10.8764 20.1683C10.5642 19.9612 10.4288 19.5618 10.5715 19.2166C10.6594 19.0044 10.7726 18.8019 10.8789 18.5973C11.3478 17.6934 11.8124 16.7869 12.2907 15.8881C12.5034 15.4887 12.6772 15.0791 12.792 14.6411C12.8988 14.2336 13.0132 13.8266 13.1567 13.4305C13.3617 12.8646 13.4065 12.2805 13.4313 11.6892C13.4539 11.1432 13.4937 10.5981 13.521 10.0525C13.5257 9.95511 13.5581 9.89115 13.6371 9.82804C14.2162 9.36507 14.7905 8.89618 15.3649 8.42771C15.4157 8.3862 15.4811 8.35655 15.5084 8.28877C15.461 8.25065 15.4328 8.29767 15.4038 8.31334C14.4549 8.82925 13.5065 9.34517 12.5606 9.86616C12.3266 9.99493 12.1353 10.1843 11.9264 10.3482C11.3662 10.7891 10.8098 11.2352 10.2499 11.6765C10.1812 11.7307 10.1312 11.793 10.0923 11.8705C8.88684 14.2552 7.6809 16.6395 6.47155 19.0221C6.42543 19.1128 6.42543 19.1763 6.47582 19.2653C6.62913 19.5351 6.56721 19.8854 6.34216 20.1027C6.11797 20.3191 5.78702 20.3657 5.50902 20.22C5.2259 20.0718 5.06107 19.7613 5.14775 19.4567C5.19729 19.2822 5.13623 19.2238 4.99573 19.1632C4.80399 19.0802 4.61866 18.9823 4.43248 18.8866C4.02295 18.6757 3.89058 18.3016 4.09512 17.895C4.78478 16.5231 5.47785 15.1524 6.17476 13.7838C6.37632 13.3882 6.76193 13.2687 7.16718 13.4632C7.42212 13.5856 7.67535 13.7105 7.92517 13.8427C8.01911 13.8927 8.06267 13.8918 8.11519 13.7855C8.46792 13.0752 8.82876 12.3682 9.18747 11.6608C9.21565 11.6058 9.23487 11.5609 9.20071 11.4918C9.01623 11.1187 9.08754 10.8205 9.4202 10.5528C9.96253 10.1165 10.5143 9.69165 11.048 9.24563C11.4759 8.88855 11.9375 8.59078 12.4308 8.33071C13.1909 7.93001 13.9408 7.5094 14.6945 7.09726C14.7376 7.07354 14.7799 7.0477 14.8226 7.02271C14.8192 7.00704 14.8157 6.99052 14.8123 6.97485Z" fill="black"/>
<path d="M18.0447 10.4531C18.6258 10.8665 19.1848 11.2516 19.7289 11.6565C20.038 11.8865 20.0829 12.3046 19.8642 12.6078C19.6469 12.9094 19.2369 12.9937 18.9111 12.7836C18.6071 12.5875 18.3175 12.369 18.0203 12.1627C17.9729 12.1296 17.9558 12.0932 17.9588 12.0364C17.9879 11.5205 18.0148 11.0046 18.0442 10.4531H18.0447Z" fill="black"/>
</g>
<defs>
<clipPath id="clip0_1083_8281">
<rect width="16" height="17.3115" fill="white" transform="translate(4 3)"/>
</clipPath>
</defs>
</svg>
