<svg width="24" height="24" viewBox="0 0 24 24" fill="none" xmlns="http://www.w3.org/2000/svg">
<path d="M11.9005 8.06281C11.9005 8.16007 11.8963 8.25526 11.8901 8.35252C11.886 8.39598 11.8818 8.43737 11.8777 8.48082C11.8715 8.53463 11.8984 8.53463 11.8798 8.47048C11.886 8.49117 11.8694 8.53463 11.8674 8.55532C11.8384 8.73536 11.7949 8.91126 11.7391 9.08509C11.7122 9.16786 11.6811 9.25064 11.648 9.33135C11.619 9.40378 11.6584 9.31272 11.6584 9.30858C11.6604 9.32307 11.6315 9.37066 11.6252 9.38308C11.6066 9.42447 11.5859 9.46586 11.5652 9.50725C11.4825 9.66866 11.3893 9.82387 11.2838 9.97287C11.2714 9.9915 11.201 10.0908 11.2362 10.0391C11.2714 9.98736 11.1969 10.0867 11.1845 10.1032C11.1265 10.1736 11.0665 10.2398 11.0044 10.306C10.9423 10.3702 10.8761 10.4343 10.8099 10.4944C10.7789 10.5213 10.7499 10.5482 10.7168 10.5751C10.7002 10.5896 10.6816 10.604 10.665 10.6185C10.6588 10.6247 10.6506 10.6289 10.6443 10.6351C10.6092 10.662 10.6154 10.6578 10.663 10.6206C10.6506 10.6475 10.5761 10.6847 10.5533 10.7013C10.5243 10.722 10.4933 10.7427 10.4643 10.7634C10.3857 10.8151 10.3029 10.8648 10.2201 10.9103C10.1436 10.9517 10.067 10.991 9.98835 11.0283C9.9718 11.0365 9.95524 11.0428 9.93868 11.051C9.85177 11.0924 10.0256 11.0179 9.93662 11.0531C9.89316 11.0697 9.85177 11.0862 9.80831 11.1028C9.63448 11.1669 9.45444 11.2166 9.27234 11.2518C9.23095 11.26 9.18957 11.2683 9.14818 11.2745C9.12955 11.2766 9.09644 11.289 9.07782 11.2849C9.12748 11.2973 9.15025 11.2766 9.10265 11.2807C9.00746 11.2911 8.91227 11.2994 8.81707 11.3035C8.62462 11.3118 8.43216 11.3014 8.2397 11.2807C8.16107 11.2725 8.2604 11.2869 8.26454 11.2849C8.24591 11.2911 8.20038 11.2745 8.17969 11.2725C8.1383 11.2662 8.09691 11.258 8.05553 11.2497C7.96448 11.2311 7.87342 11.2083 7.78443 11.1835C7.69959 11.1586 7.61681 11.1317 7.53404 11.1028C7.49058 11.0862 7.44919 11.0697 7.40573 11.0531C7.35607 11.0345 7.39539 11.0676 7.4285 11.0634C7.40987 11.0655 7.37262 11.0386 7.354 11.0303C7.18844 10.9538 7.0291 10.8648 6.87804 10.7655C6.84493 10.7427 6.80975 10.7199 6.77664 10.6972C6.75181 10.6806 6.68972 10.6516 6.67731 10.6247C6.69179 10.6351 6.70421 10.6454 6.7187 10.6558C6.70835 10.6475 6.698 10.6392 6.68766 10.6309C6.6711 10.6165 6.65248 10.602 6.63592 10.5875C6.59867 10.5564 6.55935 10.5233 6.52417 10.4902C6.3938 10.3723 6.27171 10.246 6.15789 10.1095C6.1434 10.0929 6.12892 10.0743 6.11443 10.0577C6.11236 10.0536 6.10823 10.0515 6.10616 10.0474C6.07925 10.0122 6.08339 10.0184 6.12064 10.066C6.09374 10.0536 6.06477 9.99151 6.04821 9.96668C5.99234 9.88805 5.9406 9.80941 5.893 9.72663C5.85161 9.65627 5.8123 9.58384 5.77505 9.51141C5.75435 9.47002 5.73366 9.42864 5.71504 9.38725C5.70676 9.3707 5.70055 9.35414 5.69227 9.33758C5.65502 9.25688 5.72124 9.41209 5.6902 9.33552C5.62191 9.16375 5.56397 8.98786 5.52051 8.80783C5.50189 8.72505 5.48326 8.64228 5.47085 8.5595C5.46671 8.54088 5.45222 8.49328 5.45843 8.47466C5.45636 8.48086 5.47085 8.57813 5.46257 8.49949C5.45636 8.44775 5.45222 8.39602 5.44808 8.34222C5.4336 8.1539 5.4336 7.96559 5.45015 7.77726C5.45429 7.72966 5.45843 7.68207 5.46464 7.63447C5.46878 7.58687 5.44808 7.60964 5.4605 7.6593C5.45636 7.64068 5.46878 7.60757 5.47085 7.58894C5.4874 7.49168 5.50603 7.39442 5.52879 7.29923C5.57018 7.12747 5.62812 6.96191 5.69227 6.79845C5.72745 6.7074 5.65295 6.88329 5.69434 6.79638C5.70262 6.77982 5.70883 6.76327 5.7171 6.74671C5.73573 6.70532 5.75642 6.66394 5.77711 6.62255C5.8185 6.54184 5.86196 6.46114 5.90956 6.38457C5.95095 6.31421 5.99647 6.24592 6.04407 6.1797C6.06062 6.15693 6.0958 6.08243 6.12477 6.07002C6.09166 6.0845 6.07718 6.12796 6.11029 6.08864C6.13098 6.06381 6.14961 6.03898 6.1703 6.01414C6.28412 5.87963 6.40621 5.75133 6.53658 5.63544C6.56969 5.60439 6.60487 5.57542 6.64006 5.54645C6.65661 5.53403 6.75594 5.45953 6.70421 5.49471C6.65247 5.52989 6.7518 5.45953 6.77043 5.44712C6.81388 5.41608 6.85941 5.38504 6.90494 5.35607C7.0498 5.26294 7.20086 5.1781 7.35815 5.10567C7.37264 5.09946 7.41817 5.06842 7.43265 5.07256C7.42852 5.07256 7.33746 5.10981 7.40989 5.0829C7.45335 5.06635 7.49474 5.04979 7.53819 5.03324C7.62511 5.0022 7.71409 4.97323 7.80308 4.94839C7.88378 4.92563 7.96656 4.907 8.04726 4.88838C8.09279 4.87804 8.14039 4.86976 8.18592 4.86355C8.20868 4.85941 8.23351 4.85734 8.25628 4.8532C8.2956 4.84699 8.16109 4.86355 8.25835 4.8532C8.44459 4.83251 8.63291 4.82423 8.82122 4.83251C8.91227 4.83665 9.00333 4.84286 9.09439 4.8532C9.12336 4.85734 9.18958 4.8739 9.08404 4.85113C9.10266 4.85527 9.12129 4.85734 9.13991 4.85941C9.19579 4.86769 9.25166 4.87804 9.30547 4.89045C9.48343 4.9277 9.65727 4.97737 9.82695 5.03945C9.86627 5.05393 9.90351 5.06842 9.94283 5.08497C10.0297 5.11808 9.87868 5.05393 9.93249 5.08084C9.95318 5.09118 9.97388 5.09946 9.99457 5.10981C10.0773 5.14706 10.158 5.18844 10.2388 5.23397C10.3133 5.27536 10.3878 5.32089 10.4602 5.36848C10.4933 5.39124 10.5285 5.41401 10.5616 5.43677C10.5802 5.44919 10.5988 5.46367 10.6175 5.47609C10.6278 5.48437 10.6402 5.49265 10.6506 5.50092C10.6857 5.52783 10.6795 5.52162 10.6319 5.48644C10.6961 5.5092 10.7685 5.59819 10.8182 5.64371C10.8865 5.70372 10.9506 5.76581 11.0127 5.83203C11.0748 5.89618 11.1348 5.96447 11.1928 6.03483C11.2134 6.05966 11.2507 6.08864 11.261 6.11968C11.2507 6.10519 11.2403 6.09277 11.23 6.07829C11.2403 6.09277 11.2528 6.10726 11.2631 6.12174C11.2797 6.14451 11.2942 6.1652 11.3107 6.18796C11.4121 6.33282 11.5032 6.48596 11.5839 6.64322C11.6025 6.68047 11.6211 6.71772 11.6377 6.75497C11.648 6.77566 11.6563 6.79636 11.6666 6.81705C11.6936 6.87086 11.6294 6.71979 11.6625 6.8067C11.6956 6.89155 11.7287 6.97847 11.7577 7.06538C11.8156 7.24334 11.857 7.42545 11.8881 7.60964C11.8901 7.62826 11.8922 7.64689 11.8964 7.66551C11.8757 7.56618 11.8901 7.61378 11.8922 7.64068C11.8963 7.68827 11.9026 7.73587 11.9067 7.78347C11.8984 7.86831 11.9005 7.96555 11.9005 8.06281C11.9005 8.28009 12.0909 8.48706 12.3144 8.47673C12.5379 8.4664 12.7283 8.29463 12.7283 8.06284C12.7241 7.23507 12.4737 6.40111 11.9874 5.72649C11.4949 5.0415 10.8245 4.52831 10.0339 4.23652C8.46325 3.65915 6.60286 4.16616 5.5434 5.45952C5.00122 6.12381 4.67632 6.91638 4.6101 7.77313C4.54595 8.59881 4.75289 9.45143 5.18127 10.1612C5.59517 10.8462 6.2201 11.4173 6.95061 11.7484C7.74734 12.1085 8.62271 12.214 9.48358 12.0443C11.0957 11.7257 12.4201 10.3598 12.6684 8.7333C12.7015 8.51188 12.7243 8.28838 12.7263 8.06489C12.7263 7.8476 12.5359 7.64066 12.3124 7.65099C12.091 7.65927 11.9027 7.83103 11.9006 8.06281L11.9005 8.06281Z" fill="black"/>
<path d="M19.2319 9.21147C19.2319 9.27976 19.2298 9.34598 19.2236 9.41427C19.2215 9.44738 19.2174 9.48049 19.2153 9.5136C19.205 9.61708 19.2277 9.44531 19.2112 9.54465C19.1905 9.67709 19.1574 9.80953 19.116 9.93785C19.0953 9.99993 19.0746 10.0599 19.0498 10.12C19.0229 10.1882 19.0849 10.0475 19.0435 10.1344C19.027 10.1675 19.0125 10.2007 18.996 10.2338C18.9359 10.3517 18.8697 10.4635 18.7931 10.5711C18.7787 10.5918 18.7518 10.6456 18.729 10.658C18.7269 10.6601 18.7849 10.5938 18.7518 10.627C18.7435 10.6373 18.7352 10.6477 18.7269 10.658C18.6814 10.7139 18.6338 10.7677 18.5821 10.8194C18.5386 10.8649 18.4931 10.9084 18.4455 10.9498C18.4248 10.9684 18.4041 10.985 18.3834 11.0036C18.3689 11.016 18.3565 11.0264 18.342 11.0388C18.2841 11.0884 18.3938 11.0036 18.3503 11.0326C18.2427 11.1091 18.1371 11.1836 18.0213 11.2457C17.9654 11.2768 17.9095 11.3057 17.8516 11.3326C17.8392 11.3388 17.8267 11.343 17.8143 11.3492C17.7647 11.3761 17.8888 11.3202 17.8371 11.3388C17.8019 11.3512 17.7688 11.3657 17.7336 11.3782C17.6074 11.4237 17.477 11.4609 17.3466 11.4858C17.3135 11.492 17.2825 11.4982 17.2494 11.5023C17.1521 11.5189 17.3094 11.4982 17.2328 11.5044C17.1624 11.5127 17.09 11.5189 17.0176 11.5209C16.8769 11.5251 16.7403 11.5189 16.5996 11.5044C16.523 11.4961 16.6803 11.5168 16.583 11.5023C16.5499 11.4961 16.5189 11.492 16.4857 11.4858C16.4175 11.4713 16.3492 11.4547 16.2829 11.4361C16.2209 11.4195 16.1588 11.3988 16.0988 11.3761C16.0677 11.3657 16.0388 11.3533 16.0098 11.3409C15.9539 11.3202 16.0201 11.3554 16.0325 11.3513C16.0263 11.3533 15.9891 11.3326 15.9829 11.3285C15.8629 11.2726 15.749 11.2085 15.6373 11.1381C15.5835 11.1029 15.5338 11.0657 15.4821 11.0284C15.4366 10.9974 15.5421 11.0802 15.5028 11.0429C15.4924 11.0346 15.4821 11.0264 15.4717 11.0181C15.4448 10.9953 15.4159 10.9726 15.389 10.9477C15.2917 10.8608 15.2006 10.7656 15.1179 10.6663C15.1054 10.6518 15.0951 10.6373 15.0827 10.6249C15.0516 10.5897 15.1075 10.6559 15.1054 10.6559C15.0848 10.6435 15.0641 10.6001 15.0496 10.5794C15.0103 10.5235 14.973 10.4676 14.9378 10.4097C14.9047 10.3559 14.8737 10.3 14.8447 10.2441C14.8302 10.2152 14.8157 10.1862 14.8033 10.1593C14.795 10.1427 14.7888 10.1262 14.7806 10.1096C14.7557 10.062 14.8178 10.2069 14.7847 10.12C14.7371 9.99993 14.6978 9.87784 14.6667 9.75161C14.6522 9.68746 14.6378 9.6233 14.6274 9.55915C14.6274 9.55915 14.615 9.50742 14.6191 9.50328C14.6171 9.50535 14.6316 9.61089 14.6233 9.52811C14.6191 9.49086 14.615 9.45154 14.6129 9.41429C14.6026 9.27564 14.6026 9.13493 14.615 8.99627C14.6171 8.96316 14.6212 8.93005 14.6253 8.89694C14.6336 8.82037 14.6109 8.98593 14.6274 8.88038C14.6378 8.81209 14.6522 8.74173 14.6688 8.67344C14.6998 8.54307 14.7454 8.4189 14.793 8.29269C14.8095 8.24923 14.7785 8.32994 14.7785 8.32787C14.7764 8.32373 14.7971 8.28648 14.8012 8.27821C14.8137 8.24923 14.8281 8.22026 14.8426 8.19129C14.8737 8.13128 14.9068 8.07126 14.942 8.01332C14.9751 7.95952 15.0103 7.90571 15.0454 7.85398C15.0641 7.82915 15.0827 7.80224 15.1013 7.77741C15.1282 7.74016 15.0785 7.80845 15.0785 7.80845C15.0765 7.80225 15.1158 7.76293 15.122 7.75672C15.2048 7.65739 15.2958 7.5622 15.3931 7.47528C15.4159 7.45459 15.4407 7.43389 15.4655 7.4132C15.4759 7.40492 15.4862 7.39664 15.4966 7.38837C15.5524 7.34077 15.48 7.39871 15.4759 7.40285C15.5028 7.3594 15.598 7.31387 15.6414 7.2849C15.7511 7.21246 15.867 7.14831 15.987 7.09451C15.9953 7.09037 16.0325 7.06968 16.0367 7.07175C16.0388 7.07175 15.958 7.10279 16.0015 7.08623C16.0325 7.07589 16.0615 7.06347 16.0905 7.05105C16.1546 7.02622 16.2209 7.00553 16.2871 6.9869C16.3492 6.96828 16.4133 6.95379 16.4775 6.94138C16.5106 6.93517 16.5416 6.92896 16.5747 6.92275C16.5933 6.92068 16.614 6.91862 16.6306 6.91448C16.6099 6.92068 16.5478 6.92482 16.6058 6.91861C16.7486 6.90413 16.8934 6.89792 17.0383 6.90206C17.1004 6.90413 17.1624 6.91034 17.2245 6.91655C17.3321 6.92896 17.1645 6.9062 17.2411 6.91861C17.2783 6.92482 17.3156 6.93103 17.3528 6.93931C17.4894 6.96621 17.6239 7.00346 17.7543 7.05313C17.7791 7.06347 17.806 7.07382 17.8308 7.0821C17.9053 7.11107 17.8102 7.07175 17.8081 7.07175C17.8122 7.06968 17.8578 7.09451 17.8578 7.09451C17.9198 7.12348 17.9798 7.15452 18.0399 7.18763C18.0957 7.21868 18.1495 7.25179 18.2033 7.2849C18.2468 7.31387 18.342 7.35733 18.3689 7.40285C18.371 7.40492 18.3027 7.34905 18.3379 7.38009C18.3503 7.39251 18.3668 7.40285 18.3792 7.41527C18.4041 7.43596 18.4268 7.45666 18.4517 7.47735C18.5013 7.52288 18.551 7.5684 18.5965 7.61807C18.64 7.6636 18.6814 7.71119 18.7228 7.75879C18.731 7.76914 18.7393 7.77949 18.7476 7.78983C18.7766 7.82294 18.7766 7.79811 18.7331 7.76914C18.7579 7.78569 18.7807 7.83329 18.7973 7.85605C18.8718 7.96367 18.94 8.07541 19.0001 8.19337C19.0145 8.22234 19.029 8.25131 19.0415 8.28028C19.0477 8.2927 19.0518 8.30512 19.058 8.31753C19.0828 8.3672 19.029 8.24097 19.0477 8.29477C19.0704 8.35892 19.0973 8.42307 19.118 8.48929C19.1594 8.6176 19.1905 8.75004 19.2132 8.88249C19.2298 8.97975 19.2091 8.82248 19.2153 8.89905C19.2194 8.93216 19.2215 8.96527 19.2256 8.99838C19.2298 9.06667 19.2318 9.1391 19.2318 9.21153C19.2339 9.42882 19.4222 9.63576 19.6457 9.62543C19.8692 9.61508 20.0617 9.44332 20.0596 9.21153C20.0534 7.88503 19.2112 6.70963 17.9696 6.25437C16.7672 5.8136 15.331 6.20263 14.5199 7.19179C14.0977 7.70707 13.8473 8.31547 13.7914 8.97976C13.7376 9.61714 13.899 10.2793 14.2281 10.8257C14.5468 11.3533 15.0289 11.8003 15.5939 12.0549C16.2189 12.3363 16.8955 12.417 17.5681 12.2825C18.8015 12.0362 19.8217 10.9809 20.0121 9.73507C20.039 9.56124 20.0576 9.38741 20.0576 9.21151C20.0597 8.99423 19.8672 8.78728 19.6437 8.79761C19.4202 8.80796 19.234 8.97972 19.2319 9.21151L19.2319 9.21147Z" fill="black"/>
<path d="M14.4953 17.3353V18.6949C14.4953 18.7591 14.4932 18.8212 14.4932 18.8853C14.4932 18.9805 14.518 18.7963 14.4932 18.8874C14.4891 18.906 14.4849 18.9246 14.4808 18.9412C14.4787 18.9474 14.4601 19.0198 14.456 19.0198C14.456 19.0198 14.5015 18.935 14.458 19.0074C14.4456 19.026 14.4373 19.0467 14.4249 19.0674C14.4208 19.0757 14.4146 19.0819 14.4104 19.0902C14.3856 19.1274 14.3897 19.1212 14.427 19.0716C14.4332 19.0902 14.3277 19.175 14.3152 19.1874C14.249 19.2495 14.3918 19.144 14.3132 19.1874C14.2966 19.1957 14.2821 19.2061 14.2676 19.2164C14.2614 19.2205 14.1994 19.2578 14.1952 19.2537C14.2118 19.2475 14.2283 19.2392 14.2428 19.233C14.2263 19.2392 14.2076 19.2454 14.1911 19.2516C14.1724 19.2578 14.1559 19.2619 14.1373 19.2661C14.129 19.2681 14.1186 19.2702 14.1104 19.2723C14.0648 19.2806 14.0731 19.2785 14.1373 19.2702C14.1352 19.2764 14.0586 19.2744 14.0503 19.2744H14.0193C13.4337 19.2764 12.848 19.2744 12.2624 19.2744H8.90169H5.44371H3.39294H3.27706H3.24809C3.23774 19.2744 3.22946 19.2744 3.21911 19.2723C3.17359 19.2681 3.18186 19.2702 3.24395 19.2764C3.24188 19.2806 3.18394 19.264 3.17566 19.2619C3.15289 19.2557 3.1322 19.2475 3.10944 19.2433C3.02045 19.2205 3.18807 19.2888 3.10737 19.2433C3.08667 19.233 3.06805 19.2226 3.04735 19.2102C3.03494 19.204 3.02459 19.1957 3.01218 19.1895C2.97493 19.1647 2.98113 19.1688 3.0308 19.2061C3.01424 19.2102 2.94595 19.1295 2.93354 19.115C2.92733 19.1088 2.92112 19.1026 2.91491 19.0943C2.88594 19.0591 2.89215 19.0674 2.9294 19.115C2.92526 19.1171 2.88801 19.0529 2.88594 19.0467C2.87767 19.0302 2.86939 19.0136 2.86111 18.9991C2.81558 18.9184 2.88387 19.086 2.86111 18.9971C2.8549 18.9702 2.84456 18.9453 2.83835 18.9163C2.83628 18.9081 2.83421 18.8977 2.83214 18.8894C2.82386 18.8439 2.82593 18.8522 2.83421 18.9163C2.82179 18.9122 2.83007 18.728 2.83007 18.7094V18.3555V17.5092V17.3374C2.83007 17.2505 2.83214 17.1636 2.83835 17.0767C2.84249 17.0187 2.84662 16.9628 2.85283 16.9049C2.8549 16.8863 2.85697 16.8676 2.85904 16.849C2.86525 16.8035 2.86318 16.8118 2.8549 16.8738C2.85697 16.8552 2.86111 16.8366 2.86318 16.818C2.89422 16.6152 2.93975 16.4144 3.00183 16.2179C3.0308 16.1247 3.06184 16.0337 3.09702 15.9426C3.1053 15.9219 3.11358 15.8992 3.12186 15.8785C3.15704 15.7874 3.08254 15.9633 3.12392 15.8764C3.14669 15.8267 3.16945 15.7771 3.19222 15.7274C3.27913 15.5474 3.38053 15.3735 3.49228 15.208C3.51711 15.1707 3.54401 15.1335 3.57092 15.0962C3.58126 15.0797 3.60196 15.0404 3.61851 15.03C3.60816 15.0445 3.59782 15.0569 3.58747 15.0714C3.59782 15.0569 3.61023 15.0424 3.62058 15.0279C3.68266 14.9514 3.74681 14.8748 3.8151 14.8024C3.94961 14.6575 4.09447 14.5209 4.24966 14.3947C4.26829 14.3802 4.29105 14.3533 4.31381 14.3451C4.22483 14.3865 4.28691 14.3658 4.31588 14.3451C4.35313 14.3182 4.38831 14.2913 4.42556 14.2664C4.51041 14.2064 4.59939 14.1505 4.69044 14.0988C4.77322 14.0512 4.85807 14.0057 4.94291 13.9622C4.9843 13.9415 5.02569 13.9229 5.06707 13.9043C5.0857 13.896 5.12295 13.8712 5.14157 13.8712C5.0857 13.8939 5.07742 13.8981 5.11881 13.8815C5.13537 13.8753 5.15192 13.867 5.17055 13.8608C5.36093 13.7863 5.55546 13.7263 5.75412 13.6808C5.84517 13.6601 5.9383 13.6415 6.03142 13.627C6.05832 13.6228 6.08936 13.6125 6.11627 13.6146C6.00659 13.6104 6.0873 13.6187 6.11834 13.6146C6.17628 13.6084 6.23215 13.6021 6.2901 13.6001C6.39357 13.5939 6.49704 13.5897 6.59844 13.5897H7.64556H10.6607H10.7393C10.8345 13.5897 10.9297 13.5939 11.027 13.6001C11.0849 13.6042 11.1449 13.6084 11.2029 13.6166C11.2194 13.6187 11.3353 13.6353 11.2318 13.6187C11.267 13.6249 11.3001 13.629 11.3353 13.6353C11.5899 13.6787 11.8403 13.7449 12.0803 13.836C12.1072 13.8463 12.1341 13.8567 12.159 13.867C12.1734 13.8732 12.2769 13.9188 12.1859 13.8774C12.2376 13.9001 12.2893 13.9229 12.339 13.9477C12.4611 14.0057 12.579 14.0698 12.6929 14.1402C12.7881 14.1981 12.8812 14.2602 12.9722 14.3264C12.9991 14.3451 13.0281 14.3658 13.0529 14.3864C12.9805 14.3244 13.0364 14.374 13.055 14.3885C13.1067 14.4299 13.1585 14.4734 13.2081 14.5168C13.3778 14.6658 13.5351 14.8293 13.6779 15.0052C13.6945 15.0259 13.7089 15.0445 13.7255 15.0652C13.7648 15.1149 13.6675 14.9845 13.7255 15.0673C13.7586 15.1128 13.7917 15.1583 13.8248 15.2059C13.891 15.3032 13.9552 15.4046 14.0131 15.5081C14.0669 15.6032 14.1166 15.7005 14.1621 15.7978C14.1725 15.8205 14.1828 15.8454 14.1952 15.8681C14.2408 15.9654 14.1642 15.7854 14.2015 15.8847C14.2242 15.9426 14.247 16.0006 14.2677 16.0606C14.3422 16.2696 14.398 16.4848 14.4394 16.7042C14.4456 16.7352 14.4498 16.7683 14.456 16.7994C14.4601 16.8201 14.4829 16.9256 14.4601 16.818C14.4705 16.8697 14.4725 16.9256 14.4767 16.9794C14.4912 17.0932 14.4953 17.2132 14.4953 17.3353C14.4953 17.5526 14.6857 17.7596 14.9092 17.7492C15.1327 17.7389 15.3231 17.5671 15.3231 17.3353C15.319 16.2841 14.9568 15.2846 14.305 14.4609C13.6614 13.6477 12.7115 13.0662 11.6955 12.8571C11.2091 12.7578 10.727 12.7578 10.2345 12.7578H8.54792H6.94413C6.4516 12.7578 5.96323 12.7723 5.48106 12.8903C3.74691 13.3124 2.35211 14.7982 2.07069 16.5655C1.97964 17.1429 2.00447 17.7306 2.00447 18.3121C2.00447 18.5107 1.99205 18.7135 2.00861 18.9122C2.0562 19.4564 2.44525 19.9551 2.99572 20.0669C3.20266 20.1083 3.41166 20.098 3.62273 20.098H4.65536H7.94983H11.5692H13.8559H14.0359C14.3857 20.0959 14.7375 19.9572 14.9754 19.6965C15.1762 19.4751 15.29 19.2082 15.3148 18.9122C15.321 18.8418 15.319 18.7715 15.319 18.6991V17.8672V17.3333C15.319 17.116 15.1286 16.909 14.9051 16.9194C14.6857 16.9297 14.4953 17.1015 14.4953 17.3353L14.4953 17.3353Z" fill="black"/>
<path d="M21.169 16.2483V17.0512V17.5334C21.169 17.5706 21.167 17.6058 21.169 17.643V17.6492V17.6782C21.1628 17.672 21.1918 17.5996 21.1753 17.6368C21.1711 17.6472 21.167 17.6658 21.1649 17.6761C21.1504 17.7548 21.167 17.6472 21.1773 17.6534C21.1773 17.6534 21.1608 17.6865 21.1587 17.6886C21.1173 17.7693 21.1649 17.6761 21.169 17.6803C21.1711 17.6823 21.1132 17.7382 21.1132 17.7362C21.0966 17.7196 21.1918 17.6906 21.1318 17.7175C21.1214 17.7217 21.107 17.7299 21.0966 17.7362C21.0594 17.7631 21.1318 17.7134 21.1339 17.7217C21.1339 17.7237 21.0883 17.7341 21.0821 17.7362C21.0097 17.7589 21.1628 17.7382 21.0801 17.7341H21.0594H20.9207H20.3164H18.2719H16.0969C15.7079 17.7341 15.3147 17.7196 14.9236 17.7341H14.9049L15.3188 18.148C15.3188 17.7362 15.3395 17.3181 15.2981 16.9084C15.2154 16.1034 14.9401 15.3232 14.4601 14.6672C14.1765 14.2823 13.8517 13.9554 13.4729 13.6636C13.4999 13.8809 13.5288 14.0961 13.5557 14.3134C13.5806 14.2927 13.6054 14.2699 13.6302 14.2492C13.6426 14.2389 13.7296 14.1727 13.6488 14.2327C13.6923 14.1996 13.7358 14.1685 13.7813 14.1375C13.891 14.0651 14.0048 13.9988 14.1207 13.9409C14.1496 13.9264 14.1807 13.914 14.2097 13.8995C14.309 13.8519 14.129 13.9285 14.2324 13.8892C14.2842 13.8705 14.3359 13.8498 14.3876 13.8333C14.5159 13.7898 14.6442 13.7567 14.7767 13.7319C14.8077 13.7257 14.845 13.7153 14.8781 13.7153C14.7746 13.7174 14.8843 13.7153 14.9029 13.7133C14.9608 13.707 15.0167 13.7029 15.0747 13.7008C15.1243 13.6988 15.174 13.6967 15.2257 13.6967H15.3623H16.904H18.4478H18.5968H18.6423C18.7003 13.6967 18.7582 13.6988 18.8161 13.7029C18.8617 13.707 18.9486 13.6967 18.9879 13.7195C18.9693 13.7174 18.9527 13.7153 18.9341 13.7133C18.9527 13.7153 18.9713 13.7195 18.99 13.7215C19.0169 13.7257 19.0458 13.7319 19.0728 13.736C19.1183 13.7443 19.1638 13.7546 19.2093 13.7671C19.3169 13.794 19.4246 13.825 19.528 13.8643C19.5549 13.8747 19.5798 13.885 19.6046 13.8933C19.6915 13.9264 19.5404 13.8622 19.5942 13.8891C19.6398 13.9119 19.6853 13.9305 19.7308 13.9533C19.8281 14.003 19.9233 14.0568 20.0143 14.1168C20.0599 14.1458 20.1054 14.1768 20.1488 14.2099C20.1571 14.2161 20.1633 14.2203 20.1716 14.2265C20.2068 14.2534 20.2006 14.2472 20.153 14.212C20.1778 14.2161 20.2171 14.2637 20.2378 14.2803C20.3247 14.3527 20.4054 14.4313 20.482 14.5141C20.5213 14.5576 20.5606 14.601 20.5979 14.6465C20.6082 14.661 20.6455 14.6921 20.6496 14.7107C20.6165 14.6652 20.6082 14.6569 20.6269 14.6797C20.6352 14.69 20.6434 14.7004 20.6517 14.7128C20.7221 14.808 20.7841 14.9073 20.8421 15.0108C20.8731 15.0666 20.9021 15.1225 20.9311 15.1805C20.9394 15.197 20.9476 15.2136 20.9538 15.2301C20.9621 15.2467 20.9683 15.2632 20.9766 15.2798C20.9538 15.2239 20.9497 15.2156 20.9663 15.257C21.0097 15.3688 21.049 15.4826 21.0801 15.5985C21.0946 15.6523 21.107 15.7082 21.1194 15.762C21.1256 15.7889 21.1297 15.8178 21.1359 15.8447C21.1401 15.8737 21.1484 15.9999 21.1422 15.8758C21.1525 15.9999 21.169 16.122 21.169 16.2483C21.1711 16.4655 21.3594 16.6725 21.583 16.6622C21.8064 16.6518 21.9989 16.4801 21.9969 16.2483C21.9927 15.2798 21.5705 14.3258 20.8297 13.6967C20.1944 13.1586 19.408 12.873 18.5761 12.873H15.4617C15.205 12.873 14.9547 12.8793 14.7001 12.9165C14.0565 13.0096 13.4647 13.3055 12.9763 13.7298C12.879 13.8146 12.8459 13.9553 12.8625 14.0774C12.8811 14.2161 12.9535 14.2968 13.0591 14.3796C12.9784 14.3175 13.0756 14.394 13.0963 14.4106C13.1315 14.4396 13.1667 14.4706 13.2019 14.4996C13.2722 14.5596 13.3384 14.6238 13.4047 14.69C13.4667 14.7521 13.5268 14.8162 13.5826 14.8804C13.6095 14.9114 13.6364 14.9424 13.6633 14.9735C13.6757 14.99 13.6902 15.0045 13.7027 15.0211C13.7109 15.0314 13.7627 15.1018 13.7275 15.0521C13.6882 14.9983 13.7482 15.0811 13.7502 15.0852C13.7627 15.1018 13.7751 15.1183 13.7854 15.1349C13.8103 15.168 13.833 15.2032 13.8558 15.2363C13.9075 15.3129 13.9572 15.3936 14.0027 15.4722C14.0441 15.5446 14.0834 15.6171 14.1207 15.6916C14.1393 15.7288 14.1579 15.7661 14.1745 15.8033C14.1828 15.8219 14.191 15.8406 14.1993 15.8592C14.2386 15.944 14.1745 15.795 14.2055 15.8757C14.2717 16.0413 14.3297 16.211 14.3752 16.3827C14.398 16.4696 14.4187 16.5586 14.4352 16.6476C14.4435 16.6952 14.4518 16.7428 14.4601 16.7904C14.4621 16.807 14.4725 16.8421 14.4704 16.8545C14.4683 16.8401 14.4663 16.8235 14.4642 16.809C14.4663 16.8256 14.4683 16.8421 14.4704 16.8566C14.4973 17.0863 14.4973 17.3181 14.4973 17.5478V18.1438C14.4973 18.3673 14.6877 18.5577 14.9112 18.5577H15.9066H18.0898H20.2172H20.8814C21.0698 18.5577 21.2519 18.5618 21.4319 18.4853C21.7754 18.3404 21.9886 18.0134 21.9989 17.641C22.001 17.5396 21.9989 17.4361 21.9989 17.3326V16.3145V16.2421C21.9989 16.0248 21.8085 15.8178 21.585 15.8282C21.3595 15.8447 21.169 16.0165 21.169 16.2483Z" fill="black"/>
</svg>
