<svg width="24" height="24" viewBox="0 0 24 24" fill="none" xmlns="http://www.w3.org/2000/svg">
<path d="M12.0336 21C11.8086 21 11.5832 20.9598 11.366 20.8788C10.8892 20.7006 10.5104 20.3476 10.2992 19.8846L6.20997 10.9201C5.85817 10.1485 5.83536 9.2539 6.14737 8.46549L7.83378 4.20546C8.21199 3.25005 9.268 2.76844 10.237 3.10925L14.5594 4.62826C15.3594 4.90926 16.0199 5.51307 16.3721 6.28467L20.4611 15.249C20.6725 15.712 20.6905 16.2298 20.5127 16.7064C20.3345 17.1832 19.9815 17.562 19.5185 17.7732L12.8236 20.8272C12.5712 20.9422 12.3028 21 12.0336 21ZM9.6026 3.80025C9.16159 3.80025 8.74899 4.06565 8.57739 4.49966L6.89097 8.75969C6.65857 9.3469 6.67557 10.0133 6.93777 10.5879L11.027 19.5524C11.1494 19.8212 11.3692 20.0258 11.6458 20.1292C11.9222 20.2326 12.2224 20.2222 12.4912 20.0996L19.1861 17.0456C19.4549 16.923 19.6595 16.7032 19.7629 16.4268C19.8663 16.1502 19.8557 15.85 19.7333 15.5812L15.6442 6.61668C15.382 6.04187 14.8898 5.59227 14.2942 5.38287L9.9718 3.86365C9.8496 3.82085 9.725 3.80025 9.6026 3.80025Z" fill="black" stroke="black" stroke-width="0.3"/>
<path d="M10.026 6.55597C10.4277 6.55597 10.7532 6.23039 10.7532 5.82877C10.7532 5.42714 10.4277 5.10156 10.026 5.10156C9.62441 5.10156 9.29883 5.42714 9.29883 5.82877C9.29883 6.23039 9.62441 6.55597 10.026 6.55597Z" fill="black" stroke="black" stroke-width="0.3"/>
<path d="M9.15264 20.4487H5.90482C4.85461 20.4487 4 19.5941 4 18.5437V8.69418C4 7.84657 4.3504 7.02317 4.96141 6.43536L6.26062 5.18595C6.41982 5.03255 6.67322 5.03795 6.82602 5.19695C6.97923 5.35615 6.97423 5.60935 6.81502 5.76236L5.51601 7.01177C5.06101 7.44957 4.80001 8.06258 4.80001 8.69398V18.5437C4.80001 19.1531 5.29561 19.6487 5.90482 19.6487H9.15264C9.37345 19.6487 9.55265 19.8277 9.55265 20.0487C9.55245 20.2697 9.37345 20.4487 9.15264 20.4487Z" fill="black" stroke="black" stroke-width="0.3"/>
</svg>
