<svg width="24" height="24" viewBox="0 0 24 24" fill="none" xmlns="http://www.w3.org/2000/svg">
<path d="M8.24937 10.7145C8.42432 10.7151 8.56724 10.8616 8.56785 11.041C8.56807 11.0916 8.60812 11.1325 8.65747 11.1325H13.5899C13.6392 11.1325 13.6794 11.0916 13.6795 11.041C13.6801 10.8626 13.8206 10.717 13.9938 10.7142C14.046 10.7182 14.0899 10.6755 14.09 10.6226L14.09 8.93459C14.09 8.8818 14.0471 8.83949 13.9945 8.84293C13.8219 8.84051 13.6819 8.69724 13.6792 8.52047C13.6794 8.51816 13.6794 8.51596 13.6794 8.51376C13.6794 8.46305 13.6393 8.42188 13.5898 8.42188H8.65755C8.60809 8.42188 8.56793 8.46305 8.56793 8.51376C8.56793 8.51573 8.56793 8.51771 8.56815 8.51974C8.56578 8.69763 8.42379 8.84208 8.24944 8.84282C8.2001 8.84305 8.16016 8.88411 8.16016 8.9347V10.6225C8.16005 10.6731 8.19999 10.7142 8.24934 10.7144L8.24937 10.7145ZM8.33932 9.0181C8.54249 8.97952 8.70296 8.81409 8.7395 8.60573H13.5078C13.5445 8.81549 13.7062 8.98127 13.9108 9.01883V10.5386C13.7075 10.5761 13.5463 10.7406 13.5087 10.9489H8.73862C8.7011 10.742 8.54107 10.578 8.33928 10.5394L8.33932 9.0181Z" fill="black" stroke="black" stroke-width="0.1"/>
<path d="M9.07078 10.2878C9.34668 10.2878 9.57125 10.0577 9.57125 9.77483C9.57125 9.49196 9.34684 9.26172 9.07078 9.26172C8.79471 9.26172 8.57031 9.4918 8.57031 9.77483C8.57048 10.0578 8.79488 10.2878 9.07078 10.2878ZM9.07078 9.44565C9.24787 9.44565 9.39202 9.59326 9.39202 9.775C9.39202 9.95645 9.24788 10.1042 9.07078 10.1042C8.89369 10.1042 8.74954 9.9564 8.74954 9.775C8.74971 9.59326 8.89368 9.44565 9.07078 9.44565Z" fill="black" stroke="black" stroke-width="0.1"/>
<path d="M11.1196 10.7109C11.6244 10.7109 12.0351 10.2917 12.0351 9.77652C12.0351 9.259 11.6244 8.83789 11.1196 8.83789C10.6148 8.83789 10.2041 9.25883 10.2041 9.77652C10.2041 10.2917 10.6148 10.7109 11.1196 10.7109ZM11.1196 9.02172C11.5256 9.02172 11.8558 9.36037 11.8558 9.77652C11.8558 10.1904 11.5255 10.527 11.1196 10.527C10.7137 10.527 10.3834 10.1904 10.3834 9.77652C10.3833 9.36037 10.7137 9.02172 11.1196 9.02172Z" fill="black" stroke="black" stroke-width="0.1"/>
<path d="M13.1782 10.2878C13.4541 10.2878 13.6787 10.0577 13.6787 9.77483C13.6787 9.49196 13.4543 9.26172 13.1782 9.26172C12.9023 9.26172 12.6777 9.4918 12.6777 9.77483C12.6778 10.0578 12.9022 10.2878 13.1782 10.2878ZM13.1782 9.44565C13.3553 9.44565 13.4994 9.59326 13.4994 9.775C13.4994 9.95645 13.3553 10.1042 13.1782 10.1042C13.0011 10.1042 12.857 9.9564 12.857 9.775C12.8571 9.59326 13.0011 9.44565 13.1782 9.44565Z" fill="black" stroke="black" stroke-width="0.1"/>
<path d="M10.8315 9.99669L10.7256 10.1261C10.831 10.2203 10.9499 10.2743 11.0823 10.2882V10.3967H11.1752V10.2897C11.2738 10.2846 11.353 10.255 11.413 10.2005C11.4729 10.1459 11.5028 10.0754 11.5028 9.98863C11.5028 9.90188 11.4768 9.83572 11.4246 9.79015C11.3723 9.74457 11.2906 9.70842 11.1795 9.68162H11.1752V9.40203C11.2496 9.41292 11.3187 9.44174 11.3825 9.48828L11.4768 9.35144C11.3821 9.28505 11.2815 9.24794 11.1752 9.23993V9.16406H11.0824V9.23829C10.9886 9.24331 10.9124 9.27309 10.8539 9.32758C10.7955 9.38212 10.7662 9.45229 10.7662 9.53796C10.7662 9.6237 10.7917 9.68828 10.8423 9.73188C10.8931 9.77548 10.973 9.81079 11.0824 9.83747L11.0823 10.1261C10.9963 10.1122 10.9128 10.0691 10.8315 9.99669ZM11.1753 9.8629C11.2332 9.88078 11.2729 9.89979 11.2942 9.9201C11.3155 9.94046 11.3261 9.96798 11.3261 10.0027C11.3261 10.0374 11.3124 10.0661 11.2854 10.0889C11.2583 10.1117 11.2216 10.1255 11.1752 10.1304L11.1753 9.8629ZM10.9722 9.59899C10.9528 9.57965 10.9431 9.55342 10.9431 9.52008C10.9431 9.48686 10.9554 9.45905 10.9801 9.43689C11.0047 9.41461 11.0388 9.40135 11.0823 9.39746V9.65472C11.0283 9.63689 10.9915 9.6184 10.9722 9.59899Z" fill="black" stroke="black" stroke-width="0.1"/>
<path d="M13.4888 12.9999C13.5305 12.9999 13.5666 12.9702 13.576 12.9289L13.8896 11.5533H14.4104C14.4598 11.5533 14.5 11.5121 14.5 11.4614V8.09239C14.5 8.04168 14.4598 8.00051 14.4104 8.00051H7.84001C7.83919 8.00051 7.83847 8 7.83776 8C7.79512 8 7.76101 8.03125 7.7521 8.07214C7.7516 8.07338 7.75078 8.07451 7.75039 8.07581L7.00236 11.352C6.99114 11.4015 7.02101 11.4509 7.06915 11.4624L13.4683 12.9976C13.4751 12.9993 13.4818 13 13.4888 13L13.4888 12.9999ZM14.3207 11.3695H9.26396C9.26286 11.3695 9.26193 11.3691 9.26088 11.3691H7.92788C7.92788 10.34 7.92859 10.1012 7.92859 8.18423H14.3209V11.3696L14.3207 11.3695ZM13.2836 11.5533L13.2064 11.8917C12.998 11.8803 12.8056 12.0055 12.7238 12.198L10.0384 11.5533L13.2836 11.5533ZM7.74811 11.4364L7.19746 11.3042L7.74811 8.89255C7.74811 10.1432 7.78442 9.7759 7.58906 10.6314C7.57784 10.6807 7.60771 10.7301 7.65585 10.7417C7.68798 10.7495 7.71884 10.7624 7.74811 10.7803V11.4364ZM8.23533 11.5533H9.25216L12.7623 12.3959C12.8104 12.4072 12.8585 12.377 12.8698 12.3277C12.9095 12.1575 13.0761 12.0467 13.2434 12.0812C13.2938 12.1008 13.3498 12.0702 13.3622 12.0161L13.4679 11.5533H13.7057L13.422 12.7975L8.23533 11.5533Z" fill="black" stroke="black" stroke-width="0.1"/>
<path d="M20.8669 17.037C20.8669 17.2612 20.6851 17.4431 20.4608 17.4431C20.2366 17.4431 20.0547 17.2612 20.0547 17.037C20.0547 16.8127 20.2366 16.6309 20.4608 16.6309C20.6851 16.6309 20.8669 16.8127 20.8669 17.037Z" fill="black"/>
<path d="M21.5433 14.6903H18.3849C18.1593 14.6903 17.9788 14.8708 17.9788 15.0964V16.0214H17.4373L15.4294 14.2617C15.3616 14.1939 15.2489 14.1488 15.1587 14.1488H9.69882C9.47327 14.1488 9.31531 14.3068 9.29269 14.5323L9.27007 14.7579C9.24744 15.1865 9.4054 15.6604 9.65358 16.0439H9.42803L8.05182 13.9458C7.60056 13.111 6.67561 12.4116 5.68291 12.6598L5.68305 7.65156V7.62893L10.6011 4.71869L15.5195 7.60646V7.65157V13.1789C15.5195 13.4045 15.7 13.585 15.9256 13.585C16.1512 13.585 16.3318 13.4046 16.3318 13.1789L16.3316 8.08014L17.0762 8.50874C17.2792 8.62158 17.4823 8.68918 17.7078 8.68918C18.1591 8.68918 18.5651 8.46363 18.7908 8.07998C19.1518 7.49341 18.9487 6.70377 18.3395 6.36536L11.2332 2.16916C10.8497 1.94361 10.3533 1.94361 9.94718 2.16916L7.53314 3.61312V2.46245C7.53314 2.2369 7.3527 2.05632 7.12701 2.05632H5.27707C5.05152 2.05632 4.87094 2.23676 4.87094 2.46245V5.19225L3.17897 6.20742C2.5924 6.56845 2.38933 7.33548 2.72771 7.92205C2.90815 8.21534 3.17897 8.4184 3.49473 8.50862C3.81064 8.59884 4.14905 8.55373 4.44234 8.37329L4.84847 8.12512V12.9757C4.80336 13.0208 4.78073 13.0659 4.75825 13.1337C4.71314 13.2465 4.73562 13.3592 4.78088 13.4496V13.4721C4.03633 13.1337 3.11138 13.1337 2.50233 13.7654L2.16394 14.1037C2.14131 14.1264 2.11882 14.1489 2.0962 14.1715C2.02846 14.2617 1.98335 14.3746 2.00584 14.4873C2.02846 14.6001 2.07357 14.7128 2.18628 14.7805L7.12706 18.1871C7.14968 18.2098 7.19479 18.2323 7.21727 18.2323L14.9329 21.0974C14.978 21.12 15.0231 21.12 15.0682 21.12H17.9785L17.9788 21.5939C17.9788 21.8194 18.1592 22 18.3849 22H20.4379C20.6635 22 20.844 21.8196 20.844 21.5939C20.844 21.3683 20.6636 21.1877 20.4379 21.1877H18.791L18.7909 15.5251H21.5207C21.7462 15.5251 21.9268 15.3447 21.9268 15.119C21.9719 14.8708 21.7689 14.6904 21.5433 14.6904L21.5433 14.6903ZM5.81838 13.4721C6.40495 13.2916 7.01414 13.7654 7.30743 14.3293C7.30743 14.3519 7.33006 14.3519 7.33006 14.3744L7.91663 15.2543L6.15691 14.2391C6.15691 14.2165 6.15691 14.2165 6.13428 14.194L5.75077 13.4946L5.81838 13.4721ZM5.68305 2.86867H6.69822V4.08691L5.68305 4.6961V2.86867ZM4.01355 7.65144C3.92333 7.71918 3.81048 7.71918 3.69764 7.69655C3.58493 7.67407 3.49471 7.60633 3.42698 7.49348C3.31413 7.29042 3.38187 7.01975 3.58493 6.90691L10.3756 2.86872C10.5109 2.7785 10.6689 2.7785 10.8042 2.86872L17.9109 7.04256C18.114 7.1554 18.1816 7.42607 18.0689 7.62913C17.956 7.8322 17.6854 7.89979 17.4823 7.78709L10.8042 3.86145C10.7364 3.81634 10.6688 3.79371 10.6011 3.79371C10.5334 3.79371 10.4658 3.81633 10.398 3.86145L4.01355 7.65144ZM17.9788 20.2855H15.1586L7.55587 17.4653L3.06638 14.3746L3.11149 14.3295C3.54009 13.9009 4.32973 14.0589 4.84859 14.4197C4.87122 14.4197 4.87122 14.4424 4.8937 14.4424L8.97698 16.8113C9.04472 16.8564 9.11232 16.8564 9.18005 16.8564H10.9624H11.0752H14.1434C14.369 16.8564 14.5495 16.6759 14.5495 16.4503C14.5495 16.2247 14.3691 16.0441 14.1434 16.0441H10.985C10.7595 16.0215 10.5564 15.8637 10.3758 15.6606C10.2179 15.4576 10.1276 15.232 10.0825 15.0063H15.0006L17.0085 16.766C17.0762 16.8338 17.1889 16.8789 17.2792 16.8789H17.9786C17.9787 16.8787 17.9787 20.2855 17.9787 20.2855L17.9788 20.2855Z" fill="black"/>
</svg>
