<svg width="24" height="24" viewBox="0 0 24 24" fill="none" xmlns="http://www.w3.org/2000/svg">
<path d="M14.4287 9.04557C14.4287 9.11847 14.4256 9.18983 14.4209 9.26274C14.4178 9.29532 14.4147 9.32634 14.4116 9.35892C14.407 9.39925 14.4271 9.39925 14.4132 9.35116C14.4178 9.36668 14.4054 9.39925 14.4039 9.41477C14.3822 9.54972 14.3496 9.68158 14.3077 9.81189C14.2875 9.87394 14.2643 9.93599 14.2394 9.99649C14.2177 10.0508 14.2472 9.98253 14.2472 9.97943C14.2487 9.99028 14.227 10.026 14.2224 10.0353C14.2084 10.0663 14.1929 10.0973 14.1774 10.1283C14.1153 10.2493 14.0455 10.3657 13.9664 10.4774C13.9571 10.4914 13.9044 10.5658 13.9307 10.527C13.9571 10.4882 13.9013 10.5627 13.892 10.5751C13.8485 10.6279 13.8035 10.6775 13.757 10.7271C13.7105 10.7752 13.6608 10.8233 13.6112 10.8683C13.5879 10.8885 13.5662 10.9086 13.5414 10.9288C13.529 10.9397 13.515 10.9505 13.5026 10.9614C13.4979 10.966 13.4917 10.9691 13.4871 10.9738C13.4607 10.994 13.4654 10.9909 13.501 10.9629C13.4917 10.9831 13.4359 11.011 13.4188 11.0234C13.3971 11.0389 13.3738 11.0545 13.3521 11.07C13.2932 11.1088 13.2311 11.146 13.1691 11.1801C13.1117 11.2111 13.0543 11.2406 12.9953 11.2685C12.9829 11.2747 12.9705 11.2794 12.9581 11.2856C12.8929 11.3166 13.0232 11.2608 12.9565 11.2872C12.924 11.2996 12.8929 11.312 12.8604 11.3244C12.7301 11.3725 12.5951 11.4097 12.4586 11.4361C12.4276 11.4423 12.3965 11.4485 12.3655 11.4531C12.3516 11.4547 12.3267 11.464 12.3128 11.4609C12.35 11.4702 12.3671 11.4547 12.3314 11.4578C12.26 11.4655 12.1887 11.4718 12.1173 11.4749C11.973 11.4811 11.8288 11.4733 11.6845 11.4578C11.6256 11.4516 11.7 11.4624 11.7031 11.4609C11.6892 11.4655 11.655 11.4531 11.6395 11.4516C11.6085 11.4469 11.5775 11.4407 11.5464 11.4345C11.4782 11.4206 11.4099 11.4035 11.3432 11.3849C11.2796 11.3663 11.2176 11.3461 11.1555 11.3244C11.1229 11.312 11.0919 11.2996 11.0593 11.2872C11.0221 11.2732 11.0516 11.298 11.0764 11.2949C11.0624 11.2965 11.0345 11.2763 11.0206 11.2701C10.8965 11.2127 10.777 11.146 10.6638 11.0715C10.6389 11.0545 10.6126 11.0374 10.5878 11.0203C10.5691 11.0079 10.5226 10.9862 10.5133 10.966C10.5242 10.9738 10.5335 10.9816 10.5443 10.9893C10.5366 10.9831 10.5288 10.9769 10.5211 10.9707C10.5086 10.9598 10.4947 10.949 10.4823 10.9381C10.4543 10.9148 10.4249 10.89 10.3985 10.8652C10.3008 10.7768 10.2092 10.6822 10.1239 10.5798C10.1131 10.5674 10.1022 10.5534 10.0914 10.541C10.0898 10.5379 10.0867 10.5364 10.0851 10.5333C10.065 10.5069 10.0681 10.5115 10.096 10.5472C10.0758 10.5379 10.0541 10.4914 10.0417 10.4728C9.99983 10.4138 9.96105 10.3549 9.92537 10.2928C9.89434 10.2401 9.86487 10.1858 9.83694 10.1315C9.82143 10.1004 9.80592 10.0694 9.79196 10.0384C9.78575 10.026 9.7811 10.0136 9.77489 10.0012C9.74697 9.94067 9.79661 10.057 9.77334 9.99961C9.72215 9.87086 9.67872 9.739 9.64614 9.60405C9.63218 9.542 9.61822 9.47995 9.60891 9.4179C9.60581 9.40394 9.59495 9.36826 9.5996 9.3543C9.59805 9.35895 9.60891 9.43186 9.6027 9.37291C9.59805 9.33413 9.59495 9.29535 9.59184 9.25502C9.58099 9.11385 9.58099 8.97269 9.5934 8.83151C9.5965 8.79583 9.5996 8.76015 9.60425 8.72448C9.60736 8.6888 9.59184 8.70586 9.60115 8.74309C9.59805 8.72913 9.60736 8.70431 9.60891 8.69035C9.62132 8.61744 9.63528 8.54453 9.65234 8.47317C9.68337 8.34441 9.7268 8.22031 9.77489 8.09778C9.80126 8.02952 9.74542 8.16138 9.77644 8.09622C9.78265 8.08381 9.7873 8.0714 9.79351 8.05899C9.80747 8.02797 9.82298 7.99694 9.83849 7.96592C9.86952 7.90542 9.9021 7.84492 9.93777 7.78752C9.9688 7.73478 10.0029 7.68359 10.0386 7.63395C10.051 7.61688 10.0774 7.56104 10.0991 7.55173C10.0743 7.56259 10.0634 7.59516 10.0882 7.56569C10.1038 7.54708 10.1177 7.52846 10.1332 7.50984C10.2186 7.40901 10.3101 7.31283 10.4078 7.22596C10.4326 7.20269 10.459 7.18097 10.4854 7.15925C10.4978 7.14994 10.5722 7.0941 10.5335 7.12047C10.4947 7.14684 10.5691 7.0941 10.5831 7.08479C10.6157 7.06152 10.6498 7.03825 10.6839 7.01654C10.7925 6.94673 10.9058 6.88313 11.0237 6.82883C11.0345 6.82418 11.0687 6.80091 11.0795 6.80401C11.0764 6.80401 11.0082 6.83193 11.0625 6.81177C11.095 6.79936 11.1261 6.78695 11.1586 6.77454C11.2238 6.75127 11.2905 6.72955 11.3572 6.71094C11.4177 6.69387 11.4797 6.67991 11.5402 6.66595C11.5744 6.65819 11.6101 6.65199 11.6442 6.64733C11.6612 6.64423 11.6799 6.64268 11.6969 6.63958C11.7264 6.63492 11.6256 6.64733 11.6985 6.63958C11.8381 6.62407 11.9793 6.61786 12.1204 6.62407C12.1887 6.62717 12.2569 6.63182 12.3252 6.63958C12.3469 6.64268 12.3965 6.65509 12.3174 6.63803C12.3314 6.64113 12.3454 6.64268 12.3593 6.64423C12.4012 6.65044 12.4431 6.65819 12.4834 6.6675C12.6168 6.69542 12.7471 6.73266 12.8743 6.77919C12.9038 6.79005 12.9317 6.80091 12.9612 6.81332C13.0264 6.83814 12.9131 6.79005 12.9534 6.81022C12.969 6.81797 12.9845 6.82418 13 6.83193C13.062 6.85986 13.1225 6.89088 13.183 6.92501C13.2389 6.95604 13.2947 6.99016 13.349 7.02584C13.3738 7.04291 13.4002 7.05997 13.425 7.07703C13.439 7.08634 13.453 7.0972 13.4669 7.10651C13.4747 7.11271 13.484 7.11892 13.4917 7.12512C13.5181 7.14529 13.5135 7.14064 13.4778 7.11427C13.5259 7.13133 13.5802 7.19803 13.6174 7.23216C13.6686 7.27715 13.7167 7.32369 13.7632 7.37333C13.8097 7.42142 13.8547 7.47261 13.8982 7.52535C13.9137 7.54397 13.9416 7.56569 13.9494 7.58895C13.9416 7.5781 13.9338 7.56879 13.9261 7.55793C13.9338 7.56879 13.9432 7.57965 13.9509 7.5905C13.9633 7.60757 13.9742 7.62308 13.9866 7.64014C14.0626 7.74873 14.1309 7.86353 14.1914 7.98141C14.2053 8.00934 14.2193 8.03726 14.2317 8.06518C14.2394 8.0807 14.2457 8.09621 14.2534 8.11172C14.2736 8.15205 14.2255 8.03881 14.2503 8.10396C14.2751 8.16757 14.2999 8.23272 14.3217 8.29787C14.3651 8.43128 14.3961 8.56779 14.4194 8.70586C14.4209 8.71982 14.4225 8.73378 14.4256 8.74774C14.4101 8.67328 14.4209 8.70896 14.4225 8.72913C14.4256 8.76481 14.4303 8.80049 14.4334 8.83617C14.4272 8.89977 14.4287 8.97266 14.4287 9.04557C14.4287 9.20845 14.5714 9.3636 14.739 9.35585C14.9065 9.34811 15.0492 9.21934 15.0492 9.04559C15.0461 8.42508 14.8584 7.79992 14.4939 7.29421C14.1247 6.78073 13.6221 6.39603 13.0295 6.1773C11.8521 5.74449 10.4575 6.12456 9.6633 7.09409C9.25687 7.59205 9.01332 8.18618 8.96368 8.82842C8.91559 9.44736 9.07071 10.0865 9.39183 10.6186C9.7021 11.132 10.1706 11.5602 10.7182 11.8084C11.3154 12.0783 11.9716 12.1574 12.6169 12.0302C13.8254 11.7913 14.8182 10.7675 15.0043 9.54818C15.0292 9.3822 15.0462 9.21466 15.0478 9.04713C15.0478 8.88424 14.9051 8.72912 14.7375 8.73686C14.5715 8.74306 14.4304 8.87182 14.4288 9.04557L14.4287 9.04557Z" fill="black"/>
<path d="M19.9257 9.90644C19.9257 9.95763 19.9242 10.0073 19.9195 10.0585C19.918 10.0833 19.9149 10.1081 19.9133 10.1329C19.9056 10.2105 19.9226 10.0817 19.9102 10.1562C19.8947 10.2555 19.8699 10.3548 19.8389 10.4509C19.8234 10.4975 19.8078 10.5425 19.7892 10.5875C19.7691 10.6386 19.8156 10.5332 19.7846 10.5983C19.7722 10.6231 19.7613 10.648 19.7489 10.6728C19.7039 10.7612 19.6543 10.845 19.5969 10.9256C19.586 10.9411 19.5658 10.9815 19.5488 10.9908C19.5472 10.9923 19.5907 10.9427 19.5658 10.9675C19.5596 10.9753 19.5534 10.983 19.5472 10.9908C19.5131 11.0327 19.4774 11.073 19.4386 11.1118C19.4061 11.1459 19.3719 11.1785 19.3363 11.2095C19.3207 11.2235 19.3052 11.2359 19.2897 11.2498C19.2789 11.2592 19.2696 11.2669 19.2587 11.2762C19.2153 11.3134 19.2975 11.2498 19.2649 11.2716C19.1842 11.329 19.1051 11.3848 19.0182 11.4313C18.9764 11.4546 18.9345 11.4763 18.891 11.4965C18.8817 11.5012 18.8724 11.5043 18.8631 11.5089C18.8259 11.5291 18.919 11.4872 18.8802 11.5012C18.8538 11.5105 18.829 11.5213 18.8026 11.5306C18.708 11.5648 18.6103 11.5927 18.5125 11.6113C18.4877 11.6159 18.4644 11.6206 18.4396 11.6237C18.3667 11.6361 18.4846 11.6206 18.4272 11.6253C18.3745 11.6315 18.3202 11.6361 18.2659 11.6377C18.1604 11.6408 18.058 11.6361 17.9525 11.6253C17.8951 11.6191 18.013 11.6346 17.9401 11.6237C17.9153 11.6191 17.892 11.6159 17.8672 11.6113C17.816 11.6004 17.7648 11.588 17.7152 11.5741C17.6686 11.5617 17.6221 11.5461 17.5771 11.5291C17.5538 11.5213 17.5321 11.512 17.5104 11.5027C17.4685 11.4872 17.5182 11.5136 17.5275 11.5105C17.5228 11.512 17.4949 11.4965 17.4902 11.4934C17.4003 11.4515 17.3149 11.4034 17.2312 11.3507C17.1908 11.3243 17.1536 11.2964 17.1148 11.2685C17.0807 11.2452 17.1598 11.3073 17.1303 11.2793C17.1226 11.2731 17.1148 11.2669 17.1071 11.2607C17.0869 11.2436 17.0652 11.2266 17.045 11.208C16.9721 11.1428 16.9038 11.0715 16.8418 10.997C16.8325 10.9861 16.8247 10.9753 16.8154 10.966C16.7922 10.9396 16.834 10.9892 16.8325 10.9892C16.817 10.9799 16.8015 10.9474 16.7906 10.9318C16.7611 10.89 16.7332 10.8481 16.7068 10.8046C16.682 10.7643 16.6587 10.7224 16.637 10.6805C16.6262 10.6588 16.6153 10.6371 16.606 10.6169C16.5998 10.6045 16.5951 10.5921 16.5889 10.5797C16.5703 10.544 16.6169 10.6526 16.592 10.5875C16.5564 10.4975 16.5269 10.406 16.5036 10.3113C16.4928 10.2632 16.4819 10.2152 16.4741 10.1671C16.4741 10.1671 16.4648 10.1283 16.4679 10.1252C16.4664 10.1267 16.4772 10.2058 16.471 10.1438C16.4679 10.1159 16.4648 10.0864 16.4633 10.0585C16.4555 9.95454 16.4555 9.84906 16.4648 9.74512C16.4664 9.7203 16.4695 9.69548 16.4726 9.67066C16.4788 9.61326 16.4617 9.73736 16.4741 9.65825C16.4819 9.60706 16.4928 9.55431 16.5052 9.50312C16.5284 9.40539 16.5626 9.31231 16.5982 9.2177C16.6107 9.18513 16.5874 9.24562 16.5874 9.24407C16.5858 9.24097 16.6014 9.21305 16.6045 9.20684C16.6138 9.18512 16.6246 9.16341 16.6355 9.14169C16.6587 9.0967 16.6836 9.05171 16.7099 9.00828C16.7348 8.96795 16.7611 8.92761 16.7875 8.88883C16.8015 8.87022 16.8154 8.85005 16.8294 8.83144C16.8496 8.80351 16.8123 8.85471 16.8123 8.85471C16.8108 8.85005 16.8402 8.82058 16.8449 8.81592C16.907 8.74146 16.9752 8.67011 17.0481 8.60495C17.0652 8.58944 17.0838 8.57393 17.1024 8.55842C17.1102 8.55221 17.1179 8.546 17.1257 8.5398C17.1676 8.50412 17.1133 8.54756 17.1102 8.55066C17.1303 8.51808 17.2017 8.48395 17.2343 8.46224C17.3165 8.40794 17.4034 8.35985 17.4933 8.31952C17.4995 8.31642 17.5275 8.30091 17.5306 8.30246C17.5321 8.30246 17.4716 8.32573 17.5042 8.31332C17.5275 8.30556 17.5492 8.29625 17.5709 8.28694C17.619 8.26833 17.6686 8.25282 17.7183 8.23886C17.7648 8.22489 17.8129 8.21404 17.861 8.20473C17.8858 8.20007 17.9091 8.19542 17.9339 8.19077C17.9479 8.18922 17.9634 8.18766 17.9758 8.18456C17.9603 8.18922 17.9137 8.19232 17.9572 8.18766C18.0642 8.17681 18.1728 8.17215 18.2814 8.17525C18.3279 8.17681 18.3745 8.18146 18.421 8.18611C18.5017 8.19542 18.376 8.17836 18.4334 8.18766C18.4613 8.19232 18.4893 8.19697 18.5172 8.20318C18.6196 8.22334 18.7204 8.25127 18.8181 8.2885C18.8367 8.29625 18.8569 8.30401 18.8755 8.31021C18.9314 8.33193 18.86 8.30246 18.8584 8.30246C18.8615 8.30091 18.8957 8.31952 18.8957 8.31952C18.9422 8.34124 18.9872 8.36451 19.0322 8.38933C19.0741 8.4126 19.1144 8.43742 19.1547 8.46224C19.1873 8.48395 19.2587 8.51653 19.2788 8.55066C19.2804 8.55221 19.2292 8.51033 19.2556 8.5336C19.2649 8.5429 19.2773 8.55066 19.2866 8.55997C19.3052 8.57548 19.3223 8.59099 19.3409 8.6065C19.3781 8.64063 19.4154 8.67476 19.4495 8.71199C19.4821 8.74612 19.5131 8.7818 19.5441 8.81748C19.5503 8.82524 19.5565 8.83299 19.5627 8.84075C19.5844 8.86557 19.5844 8.84695 19.5519 8.82524C19.5705 8.83765 19.5875 8.87332 19.5999 8.89039C19.6558 8.97106 19.707 9.05482 19.752 9.14325C19.7628 9.16496 19.7737 9.18668 19.783 9.2084C19.7877 9.21771 19.7908 9.22702 19.7954 9.23632C19.814 9.27355 19.7737 9.17893 19.7877 9.21926C19.8047 9.26735 19.8249 9.31544 19.8404 9.36508C19.8714 9.46126 19.8947 9.56054 19.9118 9.65983C19.9242 9.73274 19.9087 9.61484 19.9133 9.67224C19.9164 9.69706 19.918 9.72188 19.9211 9.7467C19.9242 9.79789 19.9257 9.85219 19.9257 9.90648C19.9273 10.0694 20.0684 10.2245 20.236 10.2167C20.4035 10.209 20.5478 10.0802 20.5463 9.90648C20.5416 8.91211 19.9102 8.031 18.9795 7.68973C18.0782 7.35933 17.0016 7.65095 16.3935 8.39244C16.0771 8.7787 15.8894 9.23477 15.8475 9.73274C15.8071 10.2105 15.9281 10.7069 16.1748 11.1165C16.4137 11.512 16.7751 11.8471 17.1986 12.0379C17.6671 12.2489 18.1744 12.3094 18.6785 12.2085C19.6031 12.0239 20.3679 11.2328 20.5106 10.2989C20.5308 10.1686 20.5447 10.0383 20.5447 9.90647C20.5463 9.74359 20.402 9.58846 20.2345 9.5962C20.0669 9.60396 19.9273 9.73271 19.9257 9.90647L19.9257 9.90644Z" fill="black"/>
<path d="M3.83598 9.85175C3.83598 9.90294 3.83753 9.95258 3.84219 10.0038C3.84374 10.0286 3.84684 10.0534 3.84839 10.0782C3.85615 10.1558 3.83908 10.027 3.85149 10.1015C3.86701 10.2008 3.89183 10.3001 3.92285 10.3963C3.93836 10.4428 3.95388 10.4878 3.97249 10.5328C3.99266 10.584 3.94612 10.4785 3.97715 10.5436C3.98956 10.5684 4.00042 10.5933 4.01283 10.6181C4.05781 10.7065 4.10745 10.7903 4.16485 10.8709C4.17571 10.8865 4.19588 10.9268 4.21294 10.9361C4.21449 10.9376 4.17105 10.888 4.19588 10.9128C4.20208 10.9206 4.20829 10.9283 4.21449 10.9361C4.24862 10.978 4.2843 11.0183 4.32308 11.0571C4.35565 11.0912 4.38978 11.1238 4.42546 11.1548C4.44098 11.1688 4.45649 11.1812 4.472 11.1952C4.48286 11.2045 4.49217 11.2122 4.50303 11.2215C4.54646 11.2588 4.46424 11.1952 4.49682 11.2169C4.57749 11.2743 4.6566 11.3301 4.74347 11.3767C4.78536 11.3999 4.82724 11.4216 4.87068 11.4418C4.87998 11.4465 4.88929 11.4496 4.8986 11.4542C4.93583 11.4744 4.84275 11.4325 4.88154 11.4465C4.90791 11.4558 4.93273 11.4666 4.9591 11.4759C5.05373 11.5101 5.15146 11.538 5.2492 11.5566C5.27402 11.5613 5.29729 11.5659 5.32211 11.569C5.39502 11.5814 5.27712 11.5659 5.33452 11.5706C5.38726 11.5768 5.44156 11.5814 5.49585 11.583C5.60134 11.5861 5.70372 11.5814 5.80921 11.5706C5.86661 11.5644 5.74871 11.5799 5.82162 11.569C5.84644 11.5644 5.86971 11.5613 5.89453 11.5566C5.94572 11.5457 5.99691 11.5333 6.04655 11.5194C6.09309 11.507 6.13963 11.4915 6.18462 11.4744C6.20789 11.4666 6.2296 11.4573 6.25132 11.448C6.29321 11.4325 6.24357 11.4589 6.23426 11.4558C6.23891 11.4573 6.26683 11.4418 6.27149 11.4387C6.36146 11.3968 6.44678 11.3487 6.53055 11.296C6.57088 11.2696 6.60811 11.2417 6.6469 11.2138C6.68102 11.1905 6.60191 11.2526 6.63138 11.2246C6.63914 11.2184 6.6469 11.2122 6.65465 11.206C6.67482 11.189 6.69654 11.1719 6.7167 11.1533C6.78961 11.0881 6.85787 11.0168 6.91992 10.9423C6.92923 10.9315 6.93698 10.9206 6.94629 10.9113C6.96956 10.8849 6.92768 10.9346 6.92923 10.9346C6.94474 10.9252 6.96025 10.8927 6.97111 10.8772C7.00059 10.8353 7.02851 10.7934 7.05488 10.75C7.0797 10.7096 7.10297 10.6677 7.12469 10.6258C7.13555 10.6041 7.1464 10.5824 7.15571 10.5622C7.16192 10.5498 7.16657 10.5374 7.17278 10.525C7.19139 10.4893 7.14486 10.5979 7.16968 10.5328C7.20535 10.4428 7.23483 10.3513 7.2581 10.2566C7.26896 10.2086 7.27982 10.1605 7.28757 10.1124C7.28757 10.1124 7.29688 10.0736 7.29378 10.0705C7.29533 10.072 7.28447 10.1512 7.29068 10.0891C7.29378 10.0612 7.29688 10.0317 7.29843 10.0038C7.30619 9.89985 7.30619 9.79437 7.29688 9.69043C7.29533 9.66561 7.29223 9.64079 7.28912 9.61597C7.28292 9.55857 7.29998 9.68268 7.28757 9.60356C7.27982 9.55237 7.26896 9.49962 7.25655 9.44843C7.23328 9.3507 7.19915 9.25763 7.16347 9.16301C7.15106 9.13044 7.17433 9.19094 7.17433 9.18939C7.17588 9.18628 7.16037 9.15836 7.15727 9.15215C7.14796 9.13044 7.1371 9.10872 7.12624 9.087C7.10297 9.04202 7.07815 8.99703 7.05178 8.95359C7.02696 8.91326 7.00059 8.87293 6.97422 8.83415C6.96025 8.81553 6.94629 8.79536 6.93233 8.77675C6.91216 8.74883 6.94939 8.80002 6.94939 8.80002C6.95095 8.79537 6.92147 8.76589 6.91682 8.76124C6.85477 8.68678 6.78651 8.61542 6.7136 8.55026C6.69654 8.53475 6.67792 8.51924 6.65931 8.50373C6.65155 8.49752 6.64379 8.49132 6.63604 8.48511C6.59415 8.44943 6.64845 8.49287 6.65155 8.49597C6.63138 8.4634 6.56002 8.42927 6.52745 8.40755C6.44523 8.35325 6.35836 8.30516 6.26839 8.26483C6.26218 8.26173 6.23426 8.24622 6.23116 8.24777C6.22961 8.24777 6.2901 8.27104 6.25753 8.25863C6.23426 8.25087 6.21254 8.24156 6.19082 8.23226C6.14273 8.21364 6.09309 8.19813 6.04345 8.18417C5.99691 8.17021 5.94883 8.15935 5.90074 8.15004C5.87592 8.14539 5.85265 8.14073 5.82783 8.13608C5.81387 8.13453 5.79835 8.13298 5.78594 8.12987C5.80146 8.13453 5.84799 8.13763 5.80456 8.13298C5.69752 8.12212 5.58893 8.11746 5.48033 8.12057C5.4338 8.12212 5.38726 8.12677 5.34072 8.13143C5.26005 8.14073 5.38571 8.12367 5.32831 8.13298C5.30039 8.13763 5.27246 8.14228 5.24454 8.14849C5.14216 8.16866 5.04132 8.19658 4.94361 8.23381C4.92499 8.24157 4.90482 8.24932 4.88621 8.25553C4.83036 8.27724 4.90172 8.24777 4.90327 8.24777C4.90017 8.24622 4.86604 8.26483 4.86604 8.26483C4.81951 8.28655 4.77452 8.30982 4.72953 8.33464C4.68765 8.35791 4.64732 8.38273 4.60698 8.40755C4.57441 8.42927 4.50305 8.46184 4.48288 8.49597C4.48133 8.49752 4.53252 8.45564 4.50615 8.47891C4.49684 8.48822 4.48443 8.49597 4.47512 8.50528C4.45651 8.52079 4.43944 8.53631 4.42083 8.55182C4.3836 8.58594 4.34637 8.62007 4.31224 8.6573C4.27967 8.69143 4.24864 8.72711 4.21761 8.76279C4.21141 8.77055 4.2052 8.7783 4.199 8.78606C4.17728 8.81088 4.17728 8.79227 4.20986 8.77055C4.19124 8.78296 4.17418 8.81864 4.16177 8.8357C4.10592 8.91637 4.05473 9.00014 4.00974 9.08856C3.99889 9.11028 3.98803 9.13199 3.97872 9.15371C3.97406 9.16302 3.97096 9.17233 3.96631 9.18164C3.94769 9.21887 3.98802 9.12424 3.97406 9.16457C3.957 9.21266 3.93683 9.26075 3.92132 9.31039C3.89029 9.40657 3.86702 9.50585 3.84996 9.60514C3.83755 9.67805 3.85306 9.56016 3.84841 9.61755C3.84531 9.64237 3.84376 9.66719 3.84065 9.69201C3.83755 9.7432 3.836 9.7975 3.836 9.85179C3.83445 10.0147 3.69329 10.1698 3.52573 10.1621C3.3582 10.1543 3.21393 10.0255 3.21547 9.85179C3.22012 8.85742 3.85149 7.97632 4.78223 7.63505C5.68351 7.30464 6.76011 7.59626 7.3682 8.33776C7.68465 8.72402 7.87234 9.18009 7.91424 9.67805C7.95457 10.1558 7.83357 10.6523 7.58693 11.0618C7.34803 11.4573 6.98659 11.7924 6.56308 11.9832C6.09459 12.1942 5.58735 12.2547 5.08317 12.1539C4.15861 11.9693 3.39383 11.1781 3.25112 10.2443C3.23096 10.1139 3.21699 9.98364 3.21699 9.85178C3.21544 9.6889 3.35971 9.53377 3.52726 9.54151C3.6948 9.54927 3.83441 9.67803 3.83597 9.85178L3.83598 9.85175Z" fill="black"/>
<path d="M16.3736 15.9958V17.015C16.3736 17.0631 16.372 17.1097 16.372 17.1578C16.372 17.2291 16.3906 17.091 16.372 17.1593C16.3689 17.1733 16.3658 17.1872 16.3627 17.1996C16.3611 17.2043 16.3472 17.2586 16.3441 17.2586C16.3441 17.2586 16.3782 17.195 16.3456 17.2493C16.3363 17.2632 16.3301 17.2788 16.3208 17.2943C16.3177 17.3005 16.3131 17.3051 16.31 17.3113C16.2913 17.3392 16.2944 17.3346 16.3224 17.2974C16.327 17.3113 16.2479 17.3749 16.2386 17.3842C16.189 17.4308 16.296 17.3517 16.237 17.3842C16.2246 17.3904 16.2138 17.3982 16.2029 17.406C16.1983 17.4091 16.1517 17.437 16.1486 17.4339C16.161 17.4292 16.1734 17.423 16.1843 17.4184C16.1719 17.423 16.1579 17.4277 16.1455 17.4323C16.1316 17.437 16.1191 17.4401 16.1052 17.4432C16.099 17.4447 16.0912 17.4463 16.085 17.4478C16.0509 17.454 16.0571 17.4525 16.1052 17.4463C16.1036 17.4509 16.0462 17.4494 16.04 17.4494H16.0168C15.5777 17.4509 15.1387 17.4494 14.6997 17.4494H12.1805H9.58831H8.05102H7.96414H7.94243C7.93467 17.4494 7.92847 17.4494 7.92071 17.4478C7.88658 17.4447 7.89279 17.4463 7.93932 17.4509C7.93777 17.454 7.89434 17.4416 7.88813 17.4401C7.87107 17.4354 7.85556 17.4292 7.83849 17.4261C7.77179 17.4091 7.89744 17.4602 7.83694 17.4261C7.82143 17.4184 7.80747 17.4106 7.79196 17.4013C7.78265 17.3966 7.77489 17.3904 7.76558 17.3858C7.73766 17.3672 7.74231 17.3703 7.77955 17.3982C7.76713 17.4013 7.71594 17.3408 7.70664 17.3299C7.70198 17.3253 7.69733 17.3206 7.69267 17.3144C7.67096 17.2881 7.67561 17.2943 7.70353 17.3299C7.70043 17.3315 7.67251 17.2834 7.67096 17.2787C7.66475 17.2663 7.65855 17.2539 7.65234 17.2431C7.61822 17.1826 7.66941 17.3082 7.65234 17.2415C7.64769 17.2214 7.63993 17.2027 7.63528 17.181C7.63373 17.1748 7.63218 17.1671 7.63062 17.1609C7.62442 17.1267 7.62597 17.1329 7.63218 17.181C7.62287 17.1779 7.62907 17.0399 7.62907 17.0259V16.7606V16.1262V15.9974C7.62907 15.9323 7.63062 15.8671 7.63528 15.8019C7.63838 15.7585 7.64148 15.7166 7.64614 15.6732C7.64769 15.6592 7.64924 15.6453 7.65079 15.6313C7.65544 15.5972 7.65389 15.6034 7.64769 15.6499C7.64924 15.636 7.65234 15.622 7.65389 15.608C7.67716 15.456 7.71129 15.3055 7.75783 15.1582C7.77955 15.0884 7.80282 15.0201 7.82919 14.9519C7.83539 14.9363 7.8416 14.9193 7.8478 14.9038C7.87417 14.8355 7.81833 14.9674 7.84935 14.9022C7.86642 14.865 7.88348 14.8278 7.90055 14.7905C7.9657 14.6556 8.04171 14.5253 8.12548 14.4011C8.14409 14.3732 8.16426 14.3453 8.18443 14.3174C8.19218 14.305 8.2077 14.2755 8.22011 14.2677C8.21235 14.2786 8.20459 14.2879 8.19684 14.2988C8.20459 14.2879 8.2139 14.277 8.22166 14.2662C8.26819 14.2088 8.31628 14.1514 8.36748 14.0971C8.46831 13.9885 8.5769 13.8861 8.69323 13.7915C8.70719 13.7807 8.72426 13.7605 8.74132 13.7543C8.67461 13.7853 8.72115 13.7698 8.74287 13.7543C8.77079 13.7341 8.79717 13.714 8.82509 13.6953C8.88869 13.6504 8.9554 13.6085 9.02365 13.5697C9.0857 13.534 9.1493 13.4999 9.2129 13.4673C9.24393 13.4518 9.27496 13.4378 9.30598 13.4239C9.31994 13.4177 9.34786 13.399 9.36183 13.399C9.31994 13.4161 9.31374 13.4192 9.34476 13.4068C9.35717 13.4022 9.36958 13.3959 9.38354 13.3913C9.52626 13.3354 9.67208 13.2905 9.82101 13.2563C9.88926 13.2408 9.95907 13.2269 10.0289 13.216C10.049 13.2129 10.0723 13.2051 10.0925 13.2067C10.0103 13.2036 10.0708 13.2098 10.094 13.2067C10.1375 13.202 10.1793 13.1974 10.2228 13.1958C10.3003 13.1912 10.3779 13.1881 10.4539 13.1881H11.2389H13.4991H13.558C13.6294 13.1881 13.7007 13.1912 13.7736 13.1958C13.8171 13.1989 13.8621 13.202 13.9055 13.2082C13.9179 13.2098 14.0048 13.2222 13.9272 13.2098C13.9536 13.2144 13.9784 13.2176 14.0048 13.2222C14.1956 13.2548 14.3833 13.3044 14.5633 13.3727C14.5834 13.3804 14.6036 13.3882 14.6222 13.3959C14.6331 13.4006 14.7106 13.4347 14.6424 13.4037C14.6811 13.4208 14.7199 13.4378 14.7572 13.4564C14.8487 13.4999 14.9371 13.548 15.0224 13.6007C15.0938 13.6441 15.1636 13.6907 15.2319 13.7403C15.252 13.7543 15.2737 13.7698 15.2923 13.7853C15.2381 13.7388 15.2799 13.776 15.2939 13.7869C15.3327 13.8179 15.3715 13.8505 15.4087 13.883C15.5359 13.9947 15.6538 14.1173 15.7608 14.2491C15.7732 14.2646 15.7841 14.2786 15.7965 14.2941C15.826 14.3314 15.7531 14.2336 15.7965 14.2957C15.8213 14.3298 15.8462 14.3639 15.871 14.3996C15.9206 14.4725 15.9687 14.5485 16.0121 14.6261C16.0525 14.6975 16.0897 14.7704 16.1238 14.8433C16.1316 14.8603 16.1393 14.8789 16.1486 14.896C16.1828 14.9689 16.1254 14.834 16.1533 14.9084C16.1704 14.9519 16.1874 14.9953 16.2029 15.0403C16.2588 15.197 16.3007 15.3583 16.3317 15.5227C16.3364 15.546 16.3395 15.5708 16.3441 15.5941C16.3472 15.6096 16.3643 15.6887 16.3472 15.608C16.355 15.6468 16.3565 15.6887 16.3596 15.729C16.3705 15.8144 16.3736 15.9043 16.3736 15.9959C16.3736 16.1587 16.5163 16.3139 16.6839 16.3061C16.8514 16.2984 16.9941 16.1696 16.9941 15.9959C16.991 15.2078 16.7195 14.4586 16.2309 13.8412C15.7485 13.2315 15.0364 12.7956 14.2748 12.6389C13.9102 12.5645 13.5488 12.5645 13.1796 12.5645H11.9153H10.7131C10.3438 12.5645 9.97775 12.5753 9.61631 12.6637C8.31636 12.9802 7.27079 14.094 7.05983 15.4188C6.99157 15.8516 7.01019 16.2921 7.01019 16.728C7.01019 16.877 7.00088 17.029 7.01329 17.1779C7.04897 17.5859 7.3406 17.9597 7.75325 18.0435C7.90837 18.0745 8.06504 18.0668 8.22327 18.0668H8.99735H11.467H14.1801H15.8943H16.0292C16.2914 18.0652 16.5551 17.9613 16.7335 17.7659C16.884 17.5999 16.9693 17.3998 16.9879 17.1779C16.9926 17.1252 16.991 17.0724 16.991 17.0181V16.3945V15.9943C16.991 15.8314 16.8483 15.6763 16.6807 15.684C16.5163 15.6918 16.3736 15.8206 16.3736 15.9959L16.3736 15.9958Z" fill="black"/>
<path d="M21.3773 15.1825V15.7844V16.1458C21.3773 16.1737 21.3757 16.2001 21.3773 16.228V16.2327V16.2544C21.3726 16.2497 21.3944 16.1954 21.382 16.2234C21.3788 16.2311 21.3757 16.2451 21.3742 16.2528C21.3633 16.3118 21.3757 16.2311 21.3835 16.2358C21.3835 16.2358 21.3711 16.2606 21.3695 16.2622C21.3385 16.3226 21.3742 16.2528 21.3773 16.2559C21.3788 16.2575 21.3354 16.2994 21.3354 16.2978C21.323 16.2854 21.3944 16.2637 21.3494 16.2839C21.3416 16.287 21.3308 16.2932 21.323 16.2978C21.2951 16.318 21.3494 16.2808 21.3509 16.287C21.3509 16.2885 21.3168 16.2963 21.3121 16.2978C21.2578 16.3149 21.3726 16.2994 21.3106 16.2963H21.2951H21.1911H20.7382H19.2055H17.5751C17.2835 16.2963 16.9887 16.2854 16.6956 16.2963H16.6816L16.9919 16.6065C16.9919 16.2978 17.0074 15.9845 16.9763 15.6773C16.9143 15.0739 16.708 14.4891 16.3481 13.9973C16.1356 13.7088 15.892 13.4637 15.6081 13.2449C15.6283 13.4078 15.65 13.5692 15.6702 13.732C15.6888 13.7165 15.7074 13.6995 15.726 13.684C15.7353 13.6762 15.8005 13.6266 15.74 13.6715C15.7726 13.6467 15.8052 13.6235 15.8393 13.6002C15.9215 13.5459 16.0068 13.4963 16.0937 13.4528C16.1154 13.442 16.1387 13.4327 16.1604 13.4218C16.2349 13.3861 16.0999 13.4435 16.1775 13.414C16.2162 13.4001 16.255 13.3846 16.2938 13.3722C16.39 13.3396 16.4862 13.3148 16.5854 13.2961C16.6087 13.2915 16.6366 13.2837 16.6614 13.2837C16.5839 13.2853 16.6661 13.2837 16.6801 13.2822C16.7235 13.2775 16.7654 13.2744 16.8088 13.2729C16.8461 13.2713 16.8833 13.2698 16.9221 13.2698H17.0244H18.1801H19.3374H19.4491H19.4832C19.5266 13.2698 19.5701 13.2713 19.6135 13.2744C19.6476 13.2775 19.7128 13.2698 19.7423 13.2868C19.7283 13.2853 19.7159 13.2837 19.7019 13.2822C19.7159 13.2837 19.7299 13.2868 19.7438 13.2884C19.764 13.2915 19.7857 13.2961 19.8059 13.2992C19.84 13.3054 19.8741 13.3132 19.9083 13.3225C19.9889 13.3427 20.0696 13.3659 20.1472 13.3954C20.1673 13.4032 20.1859 13.4109 20.2045 13.4171C20.2697 13.442 20.1565 13.3939 20.1968 13.414C20.2309 13.4311 20.265 13.4451 20.2992 13.4621C20.3721 13.4994 20.4434 13.5397 20.5117 13.5847C20.5458 13.6064 20.58 13.6297 20.6125 13.6545C20.6187 13.6591 20.6234 13.6622 20.6296 13.6669C20.656 13.6871 20.6513 13.6824 20.6156 13.656C20.6342 13.6591 20.6637 13.6948 20.6792 13.7072C20.7444 13.7615 20.8049 13.8205 20.8623 13.8825C20.8918 13.9151 20.9212 13.9477 20.9492 13.9818C20.9569 13.9927 20.9848 14.0159 20.9879 14.0299C20.9631 13.9958 20.9569 13.9896 20.9709 14.0066C20.9771 14.0144 20.9833 14.0221 20.9895 14.0314C21.0422 14.1028 21.0888 14.1773 21.1322 14.2548C21.1555 14.2967 21.1772 14.3386 21.1989 14.382C21.2051 14.3944 21.2113 14.4068 21.216 14.4193C21.2222 14.4317 21.2268 14.4441 21.233 14.4565C21.216 14.4146 21.2129 14.4084 21.2253 14.4394C21.2579 14.5232 21.2873 14.6085 21.3106 14.6954C21.3215 14.7357 21.3308 14.7776 21.3401 14.8179C21.3447 14.8381 21.3478 14.8598 21.3525 14.88C21.3556 14.9017 21.3618 14.9963 21.3571 14.9032C21.3649 14.9963 21.3773 15.0878 21.3773 15.1825C21.3788 15.3454 21.52 15.5005 21.6876 15.4927C21.8551 15.485 21.9994 15.3562 21.9978 15.1825C21.9947 14.4565 21.6783 13.7413 21.1229 13.2698C20.6467 12.8664 20.0572 12.6523 19.4336 12.6523H17.0989C16.9066 12.6523 16.7189 12.657 16.528 12.6849C16.0456 12.7547 15.602 12.9765 15.2358 13.2946C15.1629 13.3582 15.1381 13.4636 15.1505 13.5552C15.1645 13.6591 15.2188 13.7196 15.2979 13.7817C15.2374 13.7351 15.3103 13.7925 15.3258 13.8049C15.3522 13.8266 15.3786 13.8499 15.4049 13.8716C15.4577 13.9166 15.5073 13.9647 15.5569 14.0143C15.6035 14.0609 15.6485 14.109 15.6904 14.1571C15.7105 14.1803 15.7307 14.2036 15.7509 14.2269C15.7602 14.2393 15.771 14.2501 15.7803 14.2625C15.7865 14.2703 15.8253 14.323 15.7989 14.2858C15.7695 14.2455 15.8145 14.3075 15.816 14.3106C15.8253 14.323 15.8346 14.3355 15.8424 14.3479C15.861 14.3727 15.8781 14.3991 15.8951 14.4239C15.9339 14.4813 15.9711 14.5418 16.0053 14.6007C16.0363 14.655 16.0658 14.7093 16.0937 14.7652C16.1076 14.7931 16.1216 14.821 16.134 14.8489C16.1402 14.8629 16.1464 14.8769 16.1526 14.8908C16.1821 14.9544 16.134 14.8427 16.1573 14.9032C16.2069 15.0273 16.2504 15.1545 16.2845 15.2833C16.3016 15.3484 16.3171 15.4151 16.3295 15.4818C16.3357 15.5175 16.3419 15.5532 16.3481 15.5889C16.3496 15.6013 16.3574 15.6277 16.3559 15.637C16.3543 15.6261 16.3527 15.6137 16.3512 15.6028C16.3527 15.6152 16.3543 15.6277 16.3559 15.6385C16.376 15.8107 16.376 15.9844 16.376 16.1566V16.6034C16.376 16.7709 16.5187 16.9137 16.6863 16.9137H17.4325H19.069H20.6637H21.1617C21.3029 16.9137 21.4394 16.9168 21.5743 16.8594C21.8319 16.7508 21.9916 16.5057 21.9994 16.2265C22.0009 16.1505 21.9994 16.0729 21.9994 15.9953V15.2321V15.1778C21.9994 15.0149 21.8567 14.8598 21.6891 14.8676C21.52 14.88 21.3773 15.0087 21.3773 15.1825Z" fill="black"/>
<path d="M2.6227 15.1786V15.7805V16.1419C2.6227 16.1698 2.62425 16.1962 2.6227 16.2241V16.2288V16.2505C2.62736 16.2458 2.60564 16.1915 2.61805 16.2195C2.62115 16.2272 2.62425 16.2412 2.6258 16.2489C2.63666 16.3079 2.62425 16.2272 2.6165 16.2319C2.6165 16.2319 2.62891 16.2567 2.63046 16.2582C2.66149 16.3187 2.62581 16.2489 2.6227 16.252C2.62115 16.2536 2.66459 16.2955 2.66459 16.2939C2.677 16.2815 2.60564 16.2598 2.65063 16.28C2.65838 16.2831 2.66924 16.2893 2.677 16.2939C2.70492 16.3141 2.65063 16.2769 2.64908 16.2831C2.64908 16.2846 2.6832 16.2924 2.68786 16.2939C2.74215 16.311 2.62736 16.2955 2.68941 16.2924H2.70492H2.80886H3.26183H4.79448H6.42487C6.7165 16.2924 7.01125 16.2815 7.30445 16.2924H7.31841L7.00814 16.6026C7.00814 16.2939 6.99263 15.9806 7.02365 15.6734C7.0857 15.07 7.29202 14.4851 7.6519 13.9934C7.86443 13.7049 8.10797 13.4598 8.39186 13.241C8.37169 13.4039 8.34997 13.5653 8.32981 13.7281C8.31119 13.7126 8.29258 13.6956 8.27396 13.6801C8.26465 13.6723 8.1995 13.6227 8.26 13.6676C8.22742 13.6428 8.19485 13.6196 8.16072 13.5963C8.0785 13.542 7.99318 13.4923 7.90631 13.4489C7.88459 13.4381 7.86132 13.4287 7.8396 13.4179C7.76514 13.3822 7.9001 13.4396 7.82254 13.4101C7.78376 13.3962 7.74498 13.3807 7.70619 13.3682C7.61002 13.3357 7.51384 13.3108 7.41456 13.2922C7.39129 13.2876 7.36337 13.2798 7.33855 13.2798C7.41611 13.2814 7.3339 13.2798 7.31994 13.2783C7.2765 13.2736 7.23462 13.2705 7.19118 13.269C7.15395 13.2674 7.11672 13.2659 7.07794 13.2659H6.97555H5.81986H4.66261H4.55092H4.5168C4.47336 13.2659 4.42993 13.2674 4.38649 13.2705C4.35236 13.2736 4.28721 13.2659 4.25773 13.2829C4.27169 13.2814 4.28411 13.2798 4.29807 13.2783C4.28411 13.2798 4.27014 13.2829 4.25618 13.2845C4.23601 13.2876 4.2143 13.2922 4.19413 13.2953C4.16 13.3015 4.12588 13.3093 4.09175 13.3186C4.01108 13.3388 3.93041 13.362 3.85285 13.3915C3.83268 13.3993 3.81407 13.407 3.79545 13.4132C3.7303 13.4381 3.84354 13.39 3.80321 13.4101C3.76908 13.4272 3.73496 13.4412 3.70083 13.4582C3.62792 13.4954 3.55656 13.5358 3.4883 13.5808C3.45418 13.6025 3.42005 13.6258 3.38747 13.6506C3.38126 13.6552 3.37661 13.6583 3.37041 13.663C3.34403 13.6832 3.34869 13.6785 3.38437 13.6521C3.36575 13.6552 3.33628 13.6909 3.32077 13.7033C3.25561 13.7576 3.19511 13.8166 3.13772 13.8786C3.10824 13.9112 3.07877 13.9438 3.05085 13.9779C3.04309 13.9888 3.01517 14.012 3.01206 14.026C3.03688 13.9919 3.04309 13.9856 3.02913 14.0027C3.02292 14.0105 3.01672 14.0182 3.01051 14.0275C2.95777 14.0989 2.91123 14.1734 2.8678 14.2509C2.84453 14.2928 2.82281 14.3347 2.80109 14.3781C2.79489 14.3905 2.78868 14.4029 2.78403 14.4153C2.77782 14.4278 2.77317 14.4402 2.76697 14.4526C2.78403 14.4107 2.78713 14.4045 2.77472 14.4355C2.74215 14.5193 2.71267 14.6046 2.6894 14.6915C2.67854 14.7318 2.66923 14.7737 2.65993 14.814C2.65527 14.8342 2.65217 14.8559 2.64752 14.8761C2.64441 14.8978 2.63821 14.9924 2.64286 14.8993C2.63511 14.9924 2.6227 15.0839 2.6227 15.1786C2.62115 15.3414 2.47998 15.4966 2.31243 15.4888C2.14489 15.4811 2.00063 15.3523 2.00216 15.1786C2.00526 14.4526 2.32173 13.7374 2.87708 13.2659C3.35332 12.8625 3.94279 12.6484 4.56642 12.6484H6.90109C7.09344 12.6484 7.28113 12.6531 7.47195 12.681C7.9544 12.7508 8.39805 12.9726 8.76417 13.2907C8.83708 13.3543 8.8619 13.4597 8.84949 13.5513C8.83552 13.6552 8.78123 13.7157 8.70212 13.7778C8.76261 13.7312 8.6897 13.7886 8.67419 13.801C8.64782 13.8227 8.62145 13.846 8.59508 13.8677C8.54233 13.9127 8.49269 13.9608 8.44305 14.0104C8.39651 14.057 8.35153 14.1051 8.30964 14.1532C8.28948 14.1764 8.26931 14.1997 8.24914 14.223C8.23984 14.2354 8.22898 14.2462 8.21967 14.2586C8.21346 14.2664 8.17468 14.3191 8.20105 14.2819C8.23053 14.2416 8.18554 14.3036 8.18399 14.3067C8.17468 14.3191 8.16537 14.3316 8.15762 14.344C8.139 14.3688 8.12194 14.3952 8.10487 14.42C8.06609 14.4774 8.02886 14.5379 7.99474 14.5968C7.96371 14.6511 7.93424 14.7054 7.90631 14.7613C7.89235 14.7892 7.87839 14.8171 7.86598 14.845C7.85977 14.859 7.85357 14.8729 7.84736 14.8869C7.81789 14.9505 7.86598 14.8388 7.84271 14.8993C7.79307 15.0234 7.74964 15.1506 7.71551 15.2794C7.69844 15.3445 7.68293 15.4112 7.67052 15.4779C7.66431 15.5136 7.65811 15.5493 7.6519 15.585C7.65035 15.5974 7.6426 15.6237 7.64415 15.6331C7.6457 15.6222 7.64725 15.6098 7.6488 15.5989C7.64725 15.6113 7.6457 15.6237 7.64415 15.6346C7.62398 15.8068 7.62398 15.9805 7.62398 16.1527V16.5995C7.62398 16.767 7.48127 16.9098 7.31371 16.9098H6.56755H4.93097H3.33626H2.83829C2.69713 16.9098 2.56062 16.9129 2.42565 16.8555C2.16814 16.7469 2.00836 16.5018 2.00062 16.2226C1.99907 16.1466 2.00062 16.069 2.00062 15.9914V15.2282V15.1739C2.00062 15.011 2.14333 14.8559 2.31088 14.8637C2.47997 14.8761 2.6227 15.0048 2.6227 15.1786Z" fill="black"/>
</svg>
