<svg width="24" height="24" viewBox="0 0 24 24" fill="none" xmlns="http://www.w3.org/2000/svg">
<path d="M14.0457 2C11.4151 2 9.27288 4.14212 9.27288 6.77281C9.27288 9.40337 11.415 11.5456 14.0457 11.5456C16.6763 11.5456 18.8185 9.40333 18.8185 6.77281C18.8185 4.14224 16.6762 2 14.0457 2ZM14.0457 2.90902C16.185 2.90902 17.9095 4.6334 17.9095 6.77269C17.9095 8.91197 16.185 10.6363 14.0457 10.6363C11.9066 10.6363 10.182 8.91197 10.182 6.77269C10.182 4.6334 11.9066 2.90902 14.0457 2.90902ZM13.9961 3.81111C13.7619 3.83679 13.5861 4.03718 13.5912 4.27277V4.52135C12.9282 4.6328 12.4548 5.22095 12.4548 5.86366C12.4548 6.63827 13.1807 7.22724 14.0457 7.22724C14.5525 7.22724 14.7275 7.44935 14.7275 7.68191C14.7275 7.97521 14.6131 8.13643 14.273 8.13643H12.9093C12.7877 8.13468 12.6704 8.18177 12.5838 8.26722C12.4971 8.35267 12.4483 8.46919 12.4483 8.59095C12.4483 8.71271 12.4971 8.82923 12.5838 8.91468C12.6704 9.00013 12.7877 9.04722 12.9093 9.04547H13.5912V9.27282C13.5894 9.39441 13.6367 9.51173 13.722 9.59845C13.8074 9.68501 13.9241 9.73383 14.0457 9.73383C14.1674 9.73383 14.284 9.68501 14.3694 9.59845C14.4549 9.51173 14.502 9.39441 14.5004 9.27282V9.02423C15.1629 8.91246 15.6368 8.3243 15.6368 7.68192C15.6368 6.90715 14.9108 6.31818 14.0457 6.31818C13.539 6.31818 13.364 6.09623 13.364 5.86367C13.364 5.57022 13.4785 5.40916 13.8185 5.40916H15.1821C15.3038 5.41074 15.4212 5.36366 15.5077 5.2782C15.5944 5.19275 15.6431 5.07623 15.6431 4.95447C15.6431 4.83288 15.5944 4.71619 15.5077 4.63074C15.4212 4.54545 15.3038 4.49821 15.1821 4.49995H14.5004V4.27277C14.5031 4.14181 14.4493 4.0161 14.3528 3.92763C14.2562 3.83917 14.1262 3.79668 13.9961 3.81111ZM2.41186 12C2.17755 12.022 1.99887 12.2192 2.00001 12.4545V20.6364C2.00001 20.8874 2.20341 21.0909 2.45452 21.0909H5.63631C5.88743 21.0909 6.09082 20.8874 6.09082 20.6364V19.2443C6.76112 19.7388 7.36369 20.2226 8.08663 20.6293C9.05451 21.1737 10.235 21.5455 12.0001 21.5455C13.8763 21.5455 16.0562 20.531 17.8167 19.5496C19.5613 18.5773 20.8679 17.6215 20.8922 17.6036L20.9063 17.5895C21.2482 17.3611 21.5155 17.174 21.7159 16.8934C21.9199 16.6079 22 16.255 22 15.8636C22 15.5227 21.8507 15.2115 21.6449 15.0113C21.4393 14.8112 21.1988 14.698 20.9702 14.6278C20.5132 14.487 20.0682 14.5 19.9546 14.5C19.3778 14.5 18.8036 14.7584 18.3139 14.9972C18.0198 15.1405 17.9455 15.1895 17.7884 15.2813C17.5537 14.6936 16.9859 14.2726 16.3181 14.2726H12.163C10.8752 13.131 8.69406 12.9349 6.09064 12.916V12.4544C6.09064 12.2034 5.88724 11.9999 5.63613 11.9999H2.45434C2.44007 11.9992 2.42596 11.9992 2.41169 11.9999L2.41186 12ZM2.90903 12.909H5.1818V13.3282C5.18132 13.3399 5.18132 13.3518 5.1818 13.3637V18.3637C5.18084 18.3802 5.18084 18.3969 5.1818 18.4134V20.182H2.90903V12.909ZM6.09082 13.8323C8.72459 13.8646 10.7963 14.1625 11.6806 15.0469C11.7651 15.1323 11.88 15.1808 12.0002 15.1818H16.3185C16.7042 15.1818 17.0003 15.4781 17.0003 15.8636C17.0003 16.2493 16.7042 16.5455 16.3185 16.5455H9.72745C9.60585 16.5438 9.48854 16.5908 9.40182 16.6763C9.31526 16.7617 9.26643 16.8784 9.26643 17C9.26643 17.1218 9.31526 17.2383 9.40182 17.3238C9.48854 17.4092 9.60585 17.4563 9.72745 17.4546H16.3185C17.0371 17.4546 17.6223 16.9553 17.8171 16.2969C17.8547 16.2851 17.8905 16.2684 17.9236 16.2472C17.9236 16.2472 18.2693 16.0298 18.7121 15.814C19.1548 15.5981 19.7157 15.4091 19.955 15.4091C20.0686 15.4091 20.419 15.4148 20.7007 15.5014C20.8415 15.5448 20.9561 15.6022 21.0132 15.6577C21.0703 15.7132 21.0914 15.75 21.0914 15.8637C21.0914 16.1541 21.0579 16.2486 20.9777 16.3608C20.8976 16.4731 20.7123 16.623 20.3811 16.8439C20.3762 16.8485 20.3716 16.8532 20.3669 16.858C20.3669 16.858 19.0821 17.8109 17.3769 18.7615C15.6715 19.7119 13.5332 20.6365 12.0002 20.6365C10.3561 20.6365 9.37735 20.3193 8.52713 19.8409C7.73698 19.3966 7.0312 18.7713 6.09093 18.1222L6.09082 13.8323Z" fill="black"/>
</svg>
