<svg width="24" height="24" viewBox="0 0 24 24" fill="none" xmlns="http://www.w3.org/2000/svg">
<path d="M3.04883 2V3.00524H10.6805V2H3.04883ZM3.04883 5.60071H9.67796V4.59547H3.04883V5.60071ZM3.04883 8.19604H8.54454V7.1908L3.04883 7.19092V8.19604Z" fill="black"/>
<path fill-rule="evenodd" clip-rule="evenodd" d="M20.6362 2.05949L12.0514 2.01758C11.6852 2.01758 11.3881 2.31589 11.3881 2.68403V21.3326C11.3881 21.7006 12.0514 21.9991 12.0514 21.9991H20.7193C21.0855 21.9991 21.3413 21.3326 21.3413 21.3326L21.3412 2.68403C21.3412 2.31587 21.0026 2.05949 20.6362 2.05949ZM14.6245 20.764H12.8182V19.0225H14.6245V20.764ZM14.6245 18.1516H12.8182V16.4106H14.6245V18.1516ZM14.6245 15.5396H12.8182V13.7986H14.6245V15.5396ZM14.6245 12.927H12.8182V11.186H14.6245V12.927ZM14.6245 10.315H12.8182V8.57435H14.6245V10.315ZM14.6245 7.70303H12.8182V5.96199H14.6245V7.70303ZM14.6245 5.09087H12.8182V3.34943H14.6245V5.09087ZM17.3048 18.1514H15.4984V16.4104H17.3048V18.1514ZM17.3048 15.5394H15.4984V13.7984H17.3048V15.5394ZM17.3048 12.9268H15.4984V11.1858H17.3048V12.9268ZM17.3048 10.3148H15.4984V8.57415H17.3048V10.3148ZM17.3048 7.70283H15.4984V5.96179H17.3048V7.70283ZM17.3048 5.09067H15.4984V3.34922H17.3048V5.09067ZM20.0138 20.7636H18.208V19.0222H20.0138V20.7636ZM20.0138 18.1513H18.208V16.4102H20.0138V18.1513ZM20.0138 15.5393H18.208V13.7982H20.0138V15.5393ZM20.0138 12.9267H18.208V11.1857H20.0138V12.9267ZM20.0138 10.3147H18.208V8.574H20.0138V10.3147ZM20.0138 7.70267H18.208V5.96164H20.0138V7.70267ZM20.0138 5.09051H18.208V3.34907H20.0138V5.09051ZM10.0608 9.34362H3.42602C3.05983 9.34362 2.7627 9.64193 2.7627 10.0101V21.3322C2.7627 21.7002 3.05982 21.9987 3.42602 21.9987H10.0608C10.4276 21.9987 10.7246 21.7003 10.7246 21.3322V10.0101C10.7246 9.6421 10.4274 9.34362 10.0608 9.34362ZM6.37721 20.7554L3.6006 20.764V18.0065L6.37721 18.0067V20.7554ZM6.37721 17.0903L3.6006 17.0901V14.341L6.37721 14.3412V17.0903ZM6.37721 13.4247H3.6006V10.315H6.37721V13.4247ZM10 20.764L7.1098 20.7552V18.0065L10 18V20.764ZM10 17L7.1098 17.0901V14.341H10V17ZM10 13.4245H7.1098V10.3148L10 10.315V13.4245Z" fill="black"/>
</svg>
