<svg width="24" height="24" viewBox="0 0 24 24" fill="none" xmlns="http://www.w3.org/2000/svg">
<g clip-path="url(#clip0_1083_8272)">
<path d="M7.74041 3C7.52092 3.06269 7.29886 3.11098 7.09944 3.23593C6.51654 3.6002 6.22702 4.33172 6.42687 4.96411C6.64593 5.65835 7.27794 6.10692 7.99023 6.07472C8.71789 6.04211 9.37552 5.44487 9.44726 4.75233C9.53096 3.94372 9.07062 3.25796 8.31392 3.05972C8.26951 3.04829 8.20887 3.05761 8.18325 3.00042H8.01286C7.99023 3.0216 7.9676 3.0216 7.94454 3.00042H7.73999L7.74041 3Z" fill="black"/>
<path d="M9.18768 6.97485C9.54468 7.07057 9.90125 7.16588 10.2664 7.26372C10.1421 6.84523 9.74922 6.55212 9.27864 6.56694C8.61503 6.5877 7.951 6.6254 7.29038 6.68639C6.76727 6.73426 6.38294 7.16037 6.38678 7.68052C6.39062 8.19262 6.43418 8.7043 6.46279 9.21598C6.52386 10.3071 6.58578 11.3982 6.64983 12.4889C6.65496 12.5728 6.63019 12.6393 6.58663 12.7088C6.18693 13.3429 5.79107 13.9791 5.3918 14.6136C5.27821 14.794 5.20818 14.9838 5.2086 15.2007C5.21074 16.6205 5.20732 18.0403 5.21116 19.4601C5.21245 19.896 5.46269 20.2043 5.86281 20.2916C6.30009 20.3869 6.75104 20.0883 6.82449 19.6495C6.84029 19.5554 6.84584 19.4588 6.84584 19.3635C6.84712 18.0903 6.84797 16.817 6.84456 15.5433C6.84456 15.4196 6.87573 15.3176 6.94192 15.2134C7.3792 14.5229 7.81349 13.8308 8.2418 13.1353C8.305 13.0328 8.3729 12.9794 8.49546 12.9811C8.65944 12.9841 8.85673 12.9167 8.97843 12.9858C9.1027 13.0565 9.09459 13.2751 9.1407 13.4297C9.36959 14.1942 9.59464 14.9596 9.82395 15.7242C9.85427 15.8259 9.89313 15.9271 9.94182 16.0215C10.596 17.2855 11.2511 18.5494 11.9096 19.8113C12.1649 20.3009 12.6949 20.4534 13.1236 20.1683C13.4358 19.9612 13.5712 19.5618 13.4285 19.2166C13.3406 19.0044 13.2274 18.8019 13.1211 18.5973C12.6522 17.6934 12.1876 16.7869 11.7093 15.8881C11.4966 15.4887 11.3228 15.0791 11.208 14.6411C11.1012 14.2336 10.9868 13.8266 10.8433 13.4305C10.6383 12.8646 10.5935 12.2805 10.5687 11.6892C10.5461 11.1432 10.5064 10.5981 10.479 10.0525C10.4743 9.95511 10.4419 9.89115 10.3629 9.82804C9.78381 9.36507 9.20946 8.89618 8.6351 8.42771C8.58428 8.3862 8.51895 8.35654 8.49162 8.28877C8.53902 8.25065 8.5672 8.29767 8.59624 8.31334C9.5451 8.82925 10.4935 9.34517 11.4394 9.86616C11.6734 9.99493 11.8647 10.1843 12.0736 10.3482C12.6338 10.7891 13.1902 11.2352 13.7501 11.6765C13.8188 11.7307 13.8688 11.793 13.9077 11.8705C15.1132 14.2552 16.3191 16.6395 17.5284 19.0221C17.5746 19.1128 17.5746 19.1763 17.5242 19.2653C17.3709 19.5351 17.4328 19.8854 17.6578 20.1027C17.882 20.3191 18.213 20.3657 18.491 20.22C18.7741 20.0718 18.9389 19.7613 18.8522 19.4567C18.8027 19.2822 18.8638 19.2238 19.0043 19.1632C19.196 19.0802 19.3813 18.9823 19.5675 18.8866C19.977 18.6757 20.1094 18.3016 19.9049 17.895C19.2152 16.5231 18.5222 15.1524 17.8252 13.7838C17.6237 13.3882 17.2381 13.2687 16.8328 13.4632C16.5779 13.5856 16.3246 13.7105 16.0748 13.8427C15.9809 13.8927 15.9373 13.8918 15.8848 13.7855C15.5321 13.0752 15.1712 12.3682 14.8125 11.6608C14.7843 11.6058 14.7651 11.5609 14.7993 11.4918C14.9838 11.1187 14.9125 10.8205 14.5798 10.5528C14.0375 10.1165 13.4857 9.69165 12.952 9.24563C12.5241 8.88855 12.0625 8.59078 11.5692 8.33071C10.8091 7.93001 10.0592 7.5094 9.30554 7.09726C9.26241 7.07354 9.22013 7.0477 9.17743 7.02271C9.18085 7.00704 9.18383 6.99094 9.18725 6.97527L9.18768 6.97485Z" fill="black"/>
<path d="M5.95534 10.4531C5.37415 10.8665 4.81517 11.2516 4.27113 11.6565C3.96196 11.8865 3.91712 12.3046 4.13576 12.6078C4.35312 12.9094 4.76307 12.9937 5.0889 12.7836C5.39294 12.5875 5.68247 12.369 5.97968 12.1627C6.02708 12.1296 6.04416 12.0932 6.04117 12.0364C6.01214 11.5205 5.98523 11.0046 5.95577 10.4531H5.95534Z" fill="black"/>
</g>
<defs>
<clipPath id="clip0_1083_8272">
<rect width="16" height="17.3115" fill="white" transform="matrix(-1 0 0 1 20 3)"/>
</clipPath>
</defs>
</svg>
