<svg width="24" height="24" viewBox="0 0 24 24" fill="none" xmlns="http://www.w3.org/2000/svg">
<path d="M15.3475 16.7261C14.4918 16.5092 13.1167 17.0799 12.5232 17.3575C12.4272 16.8396 11.5049 16.5454 11.0035 16.4454C10.0687 16.283 8.39496 15.3286 8.39262 15.3286C7.56567 14.7159 6.39162 15.1057 5.65278 15.466L5.62071 15.2772C5.60553 15.1876 5.52136 15.1274 5.43061 15.1423L2.1373 15.7013C2.04716 15.7165 1.98717 15.802 2.00235 15.8914L2.70879 20.0534C2.72215 20.1325 2.79094 20.1908 2.87117 20.1908C2.88037 20.1908 2.88958 20.1898 2.89868 20.1883L6.19277 19.6292C6.28291 19.614 6.3431 19.5283 6.32773 19.4391L6.26601 19.0748C7.69198 19.2956 9.62252 19.9548 9.63857 19.9604C10.743 20.3749 11.9356 20.1981 12.971 19.6662C13.8439 19.2138 15.0876 18.758 15.6899 18.1418C16.1324 17.6895 15.9387 16.874 15.3474 16.7261L15.3475 16.7261ZM3.00642 19.8358L2.35512 15.9986L5.32391 15.4947L5.97522 19.3319L3.00642 19.8358ZM15.454 17.9115C14.9033 18.4747 13.6527 18.9417 12.8198 19.3733C12.2197 19.6818 11.0236 20.1283 9.75025 19.6502C9.66385 19.6205 7.67165 18.9404 6.20805 18.7334L5.71102 15.805C6.2802 15.5174 7.45759 15.0451 8.21309 15.604C8.28381 15.6444 9.955 16.5976 10.9436 16.7693C11.3705 16.8552 12.3469 17.1651 12.1759 17.5488C11.7168 18.0081 11.0098 18.1639 10.2584 17.7284C9.68397 17.3953 8.98978 17.2977 8.96054 17.2935C8.86939 17.2803 8.78734 17.3443 8.77509 17.4343C8.76275 17.5245 8.82568 17.6077 8.91592 17.62C8.9225 17.6209 9.57624 17.7135 10.0933 18.0133C10.9855 18.5306 11.8564 18.3361 12.4115 17.7793C12.5974 17.6844 14.3446 16.8119 15.2679 17.0457C15.6057 17.1305 15.7234 17.6364 15.4543 17.9115L15.454 17.9115Z" fill="black" stroke="black" stroke-width="0.2"/>
<path d="M4.39595 15.8984C4.16255 15.8984 3.97266 16.0883 3.97266 16.3217C3.97266 16.5551 4.16255 16.745 4.39595 16.745C4.62934 16.745 4.81924 16.5551 4.81924 16.3217C4.81924 16.0883 4.62935 15.8984 4.39595 15.8984ZM4.39595 16.4153C4.34435 16.4153 4.30237 16.3733 4.30237 16.3217C4.30237 16.2701 4.34435 16.2281 4.39595 16.2281C4.44754 16.2281 4.48953 16.2701 4.48953 16.3217C4.48953 16.3733 4.44754 16.4153 4.39595 16.4153Z" fill="black" stroke="black" stroke-width="0.2"/>
<path d="M3.30513 16.0977C3.07173 16.0977 2.88184 16.2875 2.88184 16.5209C2.88184 16.7543 3.07173 16.9442 3.30513 16.9442C3.53852 16.9442 3.72842 16.7543 3.72842 16.5209C3.72842 16.2875 3.53853 16.0977 3.30513 16.0977ZM3.30513 16.6145C3.25353 16.6145 3.21155 16.5723 3.21155 16.5209C3.21155 16.4693 3.25353 16.4274 3.30513 16.4274C3.35672 16.4274 3.39871 16.4693 3.39871 16.5209C3.39871 16.5725 3.35683 16.6145 3.30513 16.6145Z" fill="black" stroke="black" stroke-width="0.2"/>
<path d="M8.65248 7.46526C9.50815 7.68216 10.8833 7.11148 11.4768 6.83387C11.5728 7.35185 12.4951 7.64603 12.9965 7.746C13.9313 7.90838 15.605 8.86279 15.6074 8.86279C16.4343 9.47546 17.6084 9.08567 18.3472 8.72541L18.3793 8.91419C18.3945 9.00382 18.4786 9.06402 18.5694 9.04914L21.8627 8.49009C21.9528 8.47491 22.0128 8.38943 21.9977 8.3L21.2912 4.13804C21.2779 4.05892 21.2091 4.00065 21.1288 4.00065C21.1196 4.00065 21.1104 4.00156 21.1013 4.00308L17.8072 4.56224C17.7171 4.57741 17.6569 4.6631 17.6723 4.75233L17.734 5.11662C16.308 4.89578 14.3775 4.23658 14.3614 4.23101C13.257 3.81652 12.0644 3.99327 11.029 4.5252C10.1561 4.97762 8.91237 5.43337 8.31014 6.04958C7.86763 6.50191 8.06127 7.31741 8.6526 7.46532L8.65248 7.46526ZM20.9936 4.35558L21.6449 8.19276L18.6761 8.69668L18.0248 4.85949L20.9936 4.35558ZM8.54603 6.27989C9.09669 5.71669 10.3473 5.24971 11.1802 4.81813C11.7803 4.50957 12.9764 4.06312 14.2498 4.54124C14.3362 4.57089 16.3284 5.25103 17.792 5.45801L18.289 8.38641C17.7198 8.67402 16.5424 9.14628 15.7869 8.58743C15.7162 8.54696 14.045 7.59376 13.0564 7.42208C12.6295 7.33619 11.6531 7.02632 11.8241 6.64257C12.2832 6.18328 12.9902 6.02747 13.7416 6.463C14.316 6.79614 15.0102 6.89367 15.0395 6.89792C15.1306 6.91107 15.2127 6.84714 15.2249 6.7571C15.2372 6.66695 15.1743 6.58369 15.0841 6.57145C15.0775 6.57054 14.4238 6.47787 13.9067 6.1781C13.0145 5.66082 12.1436 5.85527 11.5885 6.4121C11.4026 6.507 9.6554 7.37948 8.73213 7.14566C8.39433 7.06088 8.27657 6.55504 8.54568 6.27986L8.54603 6.27989Z" fill="black" stroke="black" stroke-width="0.2"/>
<path d="M19.6041 8.29297C19.8374 8.29297 20.0273 8.10308 20.0273 7.86968C20.0273 7.63628 19.8375 7.44638 19.6041 7.44638C19.3707 7.44638 19.1808 7.63628 19.1808 7.86968C19.1808 8.10307 19.3707 8.29297 19.6041 8.29297ZM19.6041 7.7761C19.6556 7.7761 19.6976 7.81809 19.6976 7.86968C19.6976 7.92128 19.6556 7.96326 19.6041 7.96326C19.5525 7.96326 19.5105 7.92128 19.5105 7.86968C19.5105 7.81809 19.5525 7.7761 19.6041 7.7761Z" fill="black" stroke="black" stroke-width="0.2"/>
<path d="M20.6949 8.09375C20.9283 8.09375 21.1182 7.90386 21.1182 7.67046C21.1182 7.43706 20.9283 7.24717 20.6949 7.24717C20.4615 7.24717 20.2716 7.43706 20.2716 7.67046C20.2716 7.90386 20.4615 8.09375 20.6949 8.09375ZM20.6949 7.57689C20.7465 7.57689 20.7885 7.61907 20.7885 7.67047C20.7885 7.72206 20.7465 7.76405 20.6949 7.76405C20.6433 7.76405 20.6013 7.72206 20.6013 7.67047C20.6013 7.61887 20.6432 7.57689 20.6949 7.57689Z" fill="black" stroke="black" stroke-width="0.2"/>
<path d="M8.19093 12.7537C8.40255 12.7544 8.57544 12.9273 8.57617 13.139C8.57644 13.1987 8.62488 13.247 8.68458 13.247H14.6511C14.7107 13.247 14.7593 13.1987 14.7595 13.139C14.7602 12.9285 14.9302 12.7568 15.1396 12.7534C15.2028 12.7581 15.2558 12.7078 15.256 12.6453L15.256 10.6538C15.256 10.5915 15.2041 10.5416 15.1404 10.5456C14.9317 10.5427 14.7623 10.3737 14.7591 10.1652C14.7594 10.1624 14.7594 10.1598 14.7594 10.1572C14.7594 10.0974 14.7108 10.0488 14.651 10.0488H8.68467C8.62485 10.0488 8.57626 10.0974 8.57626 10.1572C8.57626 10.1596 8.57626 10.1619 8.57653 10.1643C8.57367 10.3742 8.40191 10.5446 8.19102 10.5455C8.13132 10.5457 8.08301 10.5942 8.08301 10.6539V12.6453C8.08287 12.7049 8.13119 12.7535 8.19088 12.7536L8.19093 12.7537ZM8.29973 10.7523C8.5455 10.7068 8.73961 10.5116 8.7838 10.2657H14.5518C14.5962 10.5132 14.7918 10.7088 15.0392 10.7531V12.5462C14.7933 12.5905 14.5983 12.7846 14.5528 13.0303H8.78275C8.73736 12.7863 8.54378 12.5927 8.29968 12.5472L8.29973 10.7523Z" fill="black" stroke="black" stroke-width="0.1"/>
<path d="M9.18449 12.2517C9.51823 12.2517 9.78988 11.9802 9.78988 11.6464C9.78988 11.3127 9.51842 11.041 9.18449 11.041C8.85054 11.041 8.5791 11.3125 8.5791 11.6464C8.5793 11.9802 8.85075 12.2517 9.18449 12.2517ZM9.18449 11.258C9.3987 11.258 9.57307 11.4322 9.57307 11.6466C9.57307 11.8607 9.39872 12.035 9.18449 12.035C8.97027 12.035 8.79591 11.8606 8.79591 11.6466C8.79611 11.4322 8.97026 11.258 9.18449 11.258Z" fill="black" stroke="black" stroke-width="0.1"/>
<path d="M11.665 12.7469C12.2756 12.7469 12.7725 12.2524 12.7725 11.6445C12.7725 11.034 12.2756 10.5371 11.665 10.5371C11.0545 10.5371 10.5576 11.0338 10.5576 11.6445C10.5576 12.2524 11.0545 12.7469 11.665 12.7469ZM11.665 10.754C12.1561 10.754 12.5556 11.1536 12.5556 11.6445C12.5556 12.1328 12.156 12.53 11.665 12.53C11.174 12.53 10.7745 12.1328 10.7745 11.6445C10.7744 11.1536 11.174 10.754 11.665 10.754Z" fill="black" stroke="black" stroke-width="0.1"/>
<path d="M14.1532 12.2517C14.487 12.2517 14.7586 11.9802 14.7586 11.6464C14.7586 11.3127 14.4872 11.041 14.1532 11.041C13.8195 11.041 13.5479 11.3125 13.5479 11.6464C13.548 11.9802 13.8194 12.2517 14.1532 12.2517ZM14.1532 11.258C14.3675 11.258 14.5418 11.4322 14.5418 11.6466C14.5418 11.8607 14.3675 12.035 14.1532 12.035C13.939 12.035 13.7647 11.8606 13.7647 11.6466C13.7648 11.4322 13.939 11.258 14.1532 11.258Z" fill="black" stroke="black" stroke-width="0.1"/>
<path d="M11.3146 11.9082L11.1865 12.0608C11.314 12.172 11.4578 12.2357 11.618 12.2521V12.3801H11.7304V12.2538C11.8496 12.2479 11.9454 12.2129 12.018 12.1486C12.0905 12.0843 12.1267 12.001 12.1267 11.8986C12.1267 11.7963 12.0952 11.7182 12.032 11.6645C11.9689 11.6107 11.87 11.568 11.7356 11.5364H11.7304V11.2065C11.8204 11.2194 11.904 11.2534 11.9812 11.3083L12.0953 11.1469C11.9807 11.0685 11.8589 11.0247 11.7304 11.0153V10.9258H11.6181V11.0134C11.5046 11.0193 11.4125 11.0544 11.3417 11.1187C11.271 11.1831 11.2356 11.2658 11.2356 11.3669C11.2356 11.4681 11.2665 11.5443 11.3277 11.5957C11.3892 11.6472 11.4859 11.6888 11.6182 11.7203L11.618 12.0608C11.514 12.0445 11.4129 11.9936 11.3146 11.9082ZM11.7305 11.7503C11.8006 11.7714 11.8486 11.7938 11.8743 11.8178C11.9001 11.8418 11.9129 11.8743 11.9129 11.9152C11.9129 11.9561 11.8964 11.9901 11.8637 12.017C11.8309 12.0439 11.7865 12.0602 11.7304 12.0659L11.7305 11.7503ZM11.4848 11.4389C11.4614 11.4161 11.4497 11.3852 11.4497 11.3458C11.4497 11.3066 11.4646 11.2738 11.4944 11.2477C11.5242 11.2214 11.5654 11.2057 11.618 11.2012V11.5047C11.5527 11.4836 11.5081 11.4618 11.4848 11.4389Z" fill="black" stroke="black" stroke-width="0.1"/>
<path d="M14.5298 15.4499C14.5802 15.4499 14.6238 15.4149 14.6353 15.3662L15.0146 13.7431H15.6446C15.7044 13.7431 15.753 13.6945 15.753 13.6347V9.65979C15.753 9.59996 15.7044 9.55138 15.6446 9.55138H7.69678C7.69578 9.55138 7.69491 9.55078 7.69405 9.55078C7.64248 9.55078 7.60122 9.58765 7.59043 9.6359C7.58984 9.63736 7.58884 9.63869 7.58837 9.64022L6.68352 13.5056C6.66994 13.564 6.70608 13.6223 6.76431 13.6358L14.505 15.4471C14.5132 15.4491 14.5214 15.45 14.5298 15.45L14.5298 15.4499ZM15.5362 13.5263H9.41925C9.41792 13.5263 9.41679 13.5259 9.41552 13.5259H7.80307C7.80307 12.3116 7.80393 12.0299 7.80393 9.76814H15.5364V13.5264L15.5362 13.5263ZM14.2816 13.7431L14.1882 14.1424C13.9361 14.1289 13.7034 14.2767 13.6044 14.5037L10.3561 13.7431L14.2816 13.7431ZM7.58561 13.6052L6.91952 13.4493L7.58561 10.6038C7.58561 12.0794 7.62953 11.6461 7.39322 12.6554C7.37964 12.7136 7.41578 12.7719 7.47401 12.7856C7.51287 12.7947 7.55021 12.81 7.58561 12.8311V13.6052ZM8.17497 13.7431H9.40498L13.6509 14.7372C13.7092 14.7506 13.7673 14.7149 13.781 14.6569C13.829 14.4559 14.0305 14.3252 14.2329 14.3659C14.2939 14.3891 14.3617 14.3529 14.3767 14.2892L14.5045 13.7431H14.7922L14.449 15.2111L8.17497 13.7431Z" fill="black" stroke="black" stroke-width="0.1"/>
</svg>
