<svg width="24" height="24" viewBox="0 0 24 24" fill="none" xmlns="http://www.w3.org/2000/svg">
<path d="M14.172 3.00019C13.7559 3.00269 13.7565 3.61977 14.1715 3.62268C16.5831 3.64 18.6422 5.34992 19.061 7.72486C19.4799 10.1001 18.1354 12.4275 15.8691 13.2521C13.6446 14.0618 11.1689 13.1889 9.93822 11.1816L10.4612 11.3234C10.8931 11.4405 11.0564 10.8407 10.6243 10.7245L9.37211 10.3875C9.17967 10.3357 9.02907 10.4694 8.99193 10.6076L8.65195 11.8755C8.54305 12.2817 9.1431 12.4423 9.25199 12.0362L9.3987 11.4894C10.7768 13.7604 13.575 14.7483 16.0818 13.8358C18.6274 12.9093 20.1443 10.2848 19.6736 7.6169C19.2033 4.94921 16.8806 2.98414 14.1719 3.0001L14.172 3.00019ZM14.1715 5.09625C12.2474 5.09625 10.6801 6.66349 10.6801 8.5876C10.6801 10.5117 12.2474 12.0764 14.1715 12.0764C16.0956 12.0764 17.6628 10.5116 17.6628 8.5876C17.6628 6.66349 16.0956 5.09625 14.1715 5.09625ZM14.1715 5.71693C15.7602 5.71693 17.0421 6.99891 17.0421 8.5876C17.0421 10.1763 15.7602 11.4583 14.1715 11.4583C12.5828 11.4583 11.3008 10.1763 11.3008 8.5876C11.3008 6.99891 12.5828 5.71693 14.1715 5.71693ZM13.8624 6.27335L13.8622 6.53464C13.2531 6.67069 12.7901 7.21062 12.7901 7.85414C12.7901 8.30554 13.0205 8.57445 13.2998 8.70994C13.5777 8.84488 13.8717 8.86566 14.1392 8.89365C14.4069 8.9215 14.6452 8.95627 14.769 9.01668C14.8929 9.07708 14.9345 9.14816 14.9345 9.31372C14.9345 9.71244 14.6045 10.0335 14.1829 10.0375C13.8065 10.0228 13.54 9.79529 13.4338 9.43924C13.3081 9.01778 12.6963 9.22006 12.8429 9.62711C12.9908 10.0382 13.2563 10.4724 13.8623 10.6254V10.8927C13.8623 11.3158 14.483 11.3158 14.483 10.8927V10.6314C15.0898 10.4988 15.5528 9.9539 15.5528 9.3112C15.5528 8.86452 15.3244 8.59326 15.0467 8.45778C14.7692 8.32228 14.4712 8.2997 14.2036 8.27171C13.936 8.24386 13.6964 8.21047 13.5726 8.14993C13.4488 8.08953 13.4107 8.01222 13.4107 7.85414C13.4107 7.45055 13.737 7.13078 14.16 7.12677C14.5312 7.14118 14.788 7.34429 14.9116 7.7372C15.0359 8.13249 15.6292 7.94696 15.5049 7.55169C15.3521 7.06621 15.0063 6.66529 14.4829 6.54253V6.27348C14.4829 5.85688 13.8622 5.85688 13.8622 6.27348L13.8624 6.27335ZM7.47682 14.2028C7.1209 14.3732 6.82648 14.5238 6.604 14.6441C6.44301 14.3632 6.13905 14.173 5.79544 14.173H3.93283C3.41039 14.173 3 14.5954 3 15.1059V19.4489C3 19.9593 3.41384 20.3817 3.93283 20.3817H5.79544C6.30586 20.3817 6.72522 19.969 6.72522 19.4489V19.3955C7.33051 19.2974 7.90824 19.1657 8.58784 19.1398C8.97145 19.1398 9.68857 19.6834 10.1546 20.0126C10.8188 20.4814 11.5342 21 12.3101 21C12.5437 21 12.7783 20.9231 13.0872 20.8078C14.7851 20.1731 18.3605 18.1371 20.4524 16.9266C20.9746 16.6246 21.1537 15.9588 20.8554 15.4422C20.5693 14.9467 19.9876 14.8234 19.4237 15.0186L15.0807 16.5223C15.0048 16.2008 14.8046 15.905 14.4934 15.7355C13.2838 15.0769 12.0216 14.4159 10.7803 13.9099C10.3897 13.7615 9.93142 13.5577 9.48144 13.5533C9.03146 13.5488 8.15737 13.8768 7.47682 14.2027V14.2028ZM9.47892 14.1732C9.77957 14.178 10.2412 14.3609 10.5488 14.4848C11.8209 15.0249 12.9392 15.589 14.1821 16.2741C14.5342 16.4682 14.5521 16.8774 14.4112 17.1214C14.2458 17.4079 13.8638 17.5233 13.5614 17.3488L11.6805 16.2626C11.2952 16.0401 10.9861 16.5767 11.3714 16.799L13.2523 17.8846C13.8433 18.2257 14.6064 18.0222 14.9477 17.4312C14.9924 17.3537 15.0298 17.2708 15.0561 17.1887L19.6276 15.6049C20.4245 15.3288 20.5706 16.1609 20.1525 16.3838C17.7251 17.783 14.5653 19.5784 12.8696 20.226C12.5873 20.3313 12.3588 20.3817 12.3102 20.3817C11.8447 20.3817 11.1666 19.9687 10.5117 19.5064C10.0676 19.2075 9.26635 18.5302 8.5879 18.519C8.08582 18.5201 7.2684 18.6651 6.72528 18.765L6.72515 15.2877C6.72515 15.2877 7.24386 14.9995 7.74221 14.764C8.14385 14.5672 9.09455 14.1729 9.47874 14.1729L9.47892 14.1732ZM3.93287 14.7939H5.79548C5.97282 14.7939 6.10457 14.9384 6.10457 15.106V19.449C6.10457 19.6177 5.96783 19.7611 5.79548 19.7611H3.93287C3.76647 19.7611 3.62128 19.6263 3.62128 19.449V15.106C3.62128 14.9321 3.75775 14.7939 3.93287 14.7939ZM4.55298 18.5187C4.3816 18.5187 4.24264 18.6576 4.24264 18.829C4.24264 19.0004 4.3816 19.1393 4.55298 19.1393C4.72436 19.1393 4.86332 19.0004 4.86332 18.829C4.86332 18.6576 4.72436 18.5187 4.55298 18.5187Z" fill="black"/>
</svg>
