<svg width="24" height="24" viewBox="0 0 24 24" fill="none" xmlns="http://www.w3.org/2000/svg">
<path d="M17.014 18.4797H16.986C16.9141 18.4757 16.8301 18.4357 16.7781 18.3838C16.4823 18.0879 16.1864 17.792 15.8906 17.4922L15.6707 17.2723C15.5947 17.1963 15.5627 17.1083 15.5747 17.0124C15.5907 16.8964 15.6787 16.8005 15.7906 16.7725C15.8746 16.7485 15.9625 16.7685 16.0345 16.8245C16.0545 16.8405 16.0705 16.8565 16.0865 16.8685L16.0945 16.8765C16.4063 17.1883 16.7142 17.4962 17.022 17.808C17.6977 17.1323 18.3694 16.4566 19.0451 15.781L20.0326 14.7934C20.1885 14.6375 20.3245 14.6815 20.3924 14.7215C20.4404 14.7494 20.4684 14.7894 20.4924 14.8174C20.4964 14.8254 20.5044 14.8334 20.5084 14.8414C20.5724 14.9174 20.5724 15.0213 20.5164 15.0973C20.5084 15.1053 20.5004 15.1173 20.4964 15.1253C20.4764 15.1533 20.4524 15.1852 20.4244 15.2172L19.4809 16.1608C18.7492 16.8964 18.0176 17.6281 17.2859 18.3637C17.206 18.4397 17.114 18.4797 17.0141 18.4797L17.014 18.4797ZM15.8546 17.0524C15.8546 17.0524 15.8586 17.0604 15.8706 17.0724L16.0905 17.2923C16.3703 17.5721 16.6502 17.856 16.934 18.1359L16.9101 18.1039C16.9021 18.0919 16.8941 18.0839 16.8901 18.0759C16.8861 18.0719 16.8821 18.0679 16.8821 18.0639C16.5542 17.7361 16.2264 17.4042 15.8945 17.0764L15.8625 17.0444C15.8585 17.0444 15.8546 17.0524 15.8546 17.0524ZM17.162 18.0639C17.158 18.0679 17.158 18.0719 17.154 18.0759C17.15 18.0839 17.142 18.0919 17.138 18.1039L17.126 18.1239C17.8416 17.4042 18.5613 16.6846 19.2809 15.9609L20.2245 15.0174C20.2365 15.0054 20.2485 14.9894 20.2605 14.9734L20.2565 14.9694C20.2525 14.9734 20.2445 14.9814 20.2325 14.9894L19.2409 15.9809C18.5493 16.6726 17.8576 17.3682 17.162 18.0639Z" fill="black"/>
<path d="M4.58822 4.7023C2.88905 4.94219 2.71311 5.14611 2.95302 6.62537H14.3038C14.2198 6.10963 14.2878 5.48193 14.0079 5.14209C13.728 4.81024 13.0963 4.77026 12.5446 4.57835V3.94666C14.1918 3.60282 15.1314 4.35848 15.1314 6.01368V13.6462C15.1314 15.0855 14.4757 15.7491 13.0604 15.7491C10.0418 15.7491 7.01911 15.7531 4.00084 15.7491C2.68146 15.7452 2.00178 15.0695 2.00178 13.7501C1.99778 11.2233 2.00178 8.70051 2.00178 6.17353C2.00178 4.34641 2.70146 3.72668 4.59254 3.9146C4.58855 4.16248 4.58855 4.41835 4.58855 4.70223L4.58822 4.7023ZM2.88502 7.58492C2.88502 9.6799 2.88103 11.7111 2.88902 13.7381C2.89302 14.5816 3.18088 14.8575 4.02848 14.8575H13.088C13.9556 14.8575 14.2355 14.5737 14.2355 13.6901C14.2395 11.831 14.2395 9.96776 14.2355 8.10863C14.2355 7.9447 14.2155 7.77679 14.2035 7.58488H2.88493L2.88502 7.58492Z" fill="black"/>
<path d="M10.7696 4.72755H6.34766V3.91992H10.7696V4.72755Z" fill="black"/>
<path d="M5.90345 4.2913C5.90345 4.55917 5.95942 4.83903 5.88746 5.08292C5.83149 5.27483 5.61559 5.41476 5.46767 5.58268C5.31974 5.43875 5.05585 5.30282 5.04386 5.14689C4.99189 4.58315 4.99189 4.00742 5.04386 3.44369C5.05986 3.28376 5.31973 3.15183 5.46767 3.00391C5.6116 3.16783 5.8315 3.31176 5.88746 3.49965C5.95943 3.74354 5.90345 4.02343 5.90345 4.2913Z" fill="black"/>
<path d="M12.0923 4.30739C12.0923 4.57127 12.1483 4.85512 12.0723 5.09502C12.0123 5.28293 11.7884 5.41887 11.6365 5.57878C11.4966 5.42685 11.2567 5.28691 11.2407 5.12298C11.1887 4.57924 11.1847 4.02351 11.2407 3.47977C11.2567 3.30785 11.5206 3.15992 11.6685 3C11.8084 3.17192 12.0203 3.31985 12.0763 3.51574C12.1482 3.76362 12.0963 4.04351 12.0923 4.30735L12.0923 4.30739Z" fill="black"/>
<path d="M5.3078 10.9316C4.12038 10.9316 4.12835 10.9316 4.12038 9.71622C4.11238 8.40883 4.10838 8.54478 5.28784 8.54876C6.59523 8.55276 6.53525 8.38084 6.52724 9.80417C6.52324 10.9316 6.52324 10.9316 5.30784 10.9316H5.3078ZM4.92 9.32842V10.136H5.73559V9.32842H4.92Z" fill="black"/>
<path d="M6.52788 12.7638C6.53587 14.0752 6.58385 13.9552 5.31644 13.9552C4.125 13.9552 4.125 13.9552 4.125 12.7438C4.125 11.5684 4.125 11.5684 5.30844 11.5684C6.52784 11.5684 6.52788 11.5684 6.52788 12.7638ZM5.74825 12.372H4.92864V13.1636H5.74825V12.372Z" fill="black"/>
<path d="M8.4943 10.9274C7.37084 10.9274 7.36682 10.9274 7.37084 9.82387C7.37484 8.39256 7.24291 8.55249 8.65824 8.54847C9.75771 8.54447 9.75771 8.54847 9.76173 9.67192C9.76573 11.0353 9.84969 10.9353 8.49433 10.9273L8.4943 10.9274ZM8.97805 9.33211H8.15844V10.1357H8.97805V9.33211Z" fill="black"/>
<path d="M9.76221 12.7602C9.76621 14.0356 9.86216 13.9556 8.55878 13.9556C7.22342 13.9556 7.37933 14.0156 7.37534 12.7442C7.37134 11.5847 7.21942 11.5607 8.5428 11.5647C9.87816 11.5647 9.76221 11.5447 9.76221 12.7602V12.7602ZM8.17098 12.3484V13.164H8.95462V12.3484H8.17098Z" fill="black"/>
<path d="M12.9879 9.72894C12.9879 11.0123 13.0798 10.9324 11.7844 10.9284C10.597 10.9244 10.597 10.9284 10.593 9.76491C10.589 8.42956 10.509 8.54551 11.8324 8.54551C13.0878 8.54551 12.9838 8.45355 12.9878 9.72894H12.9879ZM12.1683 10.1447C12.3522 9.28916 12.2642 9.19719 11.3886 9.36911V10.1447H12.1683Z" fill="black"/>
<path d="M20.4003 15.0097C20.3723 15.0457 20.3483 15.0857 20.3163 15.1137C19.2688 16.1652 18.2213 17.2127 17.1778 18.2642C17.1218 18.3202 17.0659 18.3441 16.9939 18.3401C16.9539 18.3362 16.902 18.3122 16.874 18.2842C16.5021 17.9164 16.1343 17.5445 15.7665 17.1727C15.7265 17.1327 15.7025 17.0928 15.7105 17.0328C15.7185 16.9728 15.7625 16.9248 15.8225 16.9088C15.8664 16.8968 15.9064 16.9048 15.9464 16.9368C15.9624 16.9488 15.9744 16.9648 15.9904 16.9768C16.3222 17.3087 16.6501 17.6365 16.9779 17.9683C16.9899 17.9803 16.9979 17.9963 17.0179 18.0243C17.0339 17.9963 17.0419 17.9803 17.0579 17.9683C18.0814 16.9448 19.1049 15.9173 20.1244 14.8938C20.1924 14.8258 20.2524 14.8059 20.3124 14.8418C20.3443 14.8618 20.3683 14.9018 20.3963 14.9338C20.4203 14.9538 20.4203 14.9858 20.4003 15.0098L20.4003 15.0097Z" fill="black"/>
<path d="M18.0813 20.4829C15.9183 20.4829 14.1631 18.7238 14.1631 16.5647C14.1631 14.4056 15.9222 12.6465 18.0813 12.6465C20.2404 12.6465 21.9995 14.4056 21.9995 16.5647C21.9995 18.7238 20.2404 20.4829 18.0813 20.4829ZM18.0813 12.9627C16.0983 12.9627 14.483 14.5779 14.483 16.561C14.483 18.544 16.0983 20.1593 18.0813 20.1593C20.0644 20.1593 21.6796 18.544 21.6796 16.561C21.6796 14.5779 20.0644 12.9627 18.0813 12.9627Z" fill="black" stroke="black" stroke-width="0.4"/>
</svg>
