<svg width="24" height="24" viewBox="0 0 24 24" fill="none" xmlns="http://www.w3.org/2000/svg">
<path d="M13.3337 20.0007C13.5181 20.0007 13.667 19.8512 13.667 19.6673C13.667 19.4834 13.5181 19.334 13.3337 19.334H10.0003C9.81595 19.334 9.66699 19.4834 9.66699 19.6673C9.66699 19.8512 9.81595 20.0007 10.0003 20.0007H13.3337Z" fill="black"/>
<path d="M21 21.3333L6.66668 21.334C6.11532 21.334 5.66667 20.8854 5.66667 20.334V17.6673C5.66667 17.4834 5.51771 17.334 5.33334 17.334C5.14896 17.334 5 17.4834 5 17.6673V20.334C5 21.253 5.74762 22.0007 6.66668 22.0007L21 22C21.1844 22 21.3333 21.8506 21.3333 21.6667C21.3333 21.4827 21.1844 21.3333 21 21.3333Z" fill="black"/>
<path d="M12.5001 17.0863C12.4232 17.0417 12.3681 16.9696 12.3448 16.8839C12.3214 16.7982 12.3338 16.7083 12.3784 16.6309C12.4228 16.554 12.4948 16.499 12.5803 16.4759C12.6664 16.4536 12.7559 16.4646 12.8333 16.5092L15.1423 17.8423C15.3012 17.9336 15.5062 17.8799 15.5982 17.7205C15.6902 17.5609 15.6356 17.3571 15.4762 17.2652C15.3168 17.1735 15.2622 16.9692 15.3542 16.8101C15.4458 16.6505 15.6504 16.5958 15.8095 16.6878C15.9684 16.7795 16.1725 16.7252 16.2649 16.5658C16.2952 16.5131 16.3095 16.4558 16.3095 16.3994C16.3095 16.2841 16.2495 16.172 16.1428 16.1104C15.9835 16.0188 15.9289 15.8144 16.0208 15.6554C16.1122 15.496 16.3165 15.4411 16.4762 15.5334C16.6348 15.6247 16.8391 15.5707 16.9315 15.4113C16.9619 15.3586 16.9762 15.3014 16.9762 15.245C16.9762 15.1296 16.9162 15.0176 16.8095 14.956C16.6501 14.8643 16.5955 14.66 16.6875 14.5009C16.7789 14.3412 16.9835 14.2866 17.1428 14.3786L19.0929 15.5042C19.4485 15.7096 19.7335 16.0311 19.8952 16.4093L19.9616 16.5649C20.1793 17.0746 20.564 17.5083 21.0439 17.7856L21.1665 17.8563C21.3262 17.948 21.5295 17.8937 21.6219 17.734C21.7138 17.5746 21.6592 17.3706 21.4999 17.2786L21.3772 17.2079C21.0213 17.0023 20.7359 16.681 20.5746 16.3029L20.5082 16.1472C20.2905 15.6372 19.9062 15.2039 19.4262 14.9265L18.3335 14.2954V10.8581C19.8701 10.4215 21.0002 9.00836 21.0002 7.33338C21.0002 6.61238 20.7894 5.91345 20.3915 5.31207C20.2899 5.1588 20.0826 5.11609 19.9294 5.21847C19.7757 5.32011 19.7338 5.52681 19.8354 5.68053C20.1611 6.17204 20.3335 6.74362 20.3335 7.33338C20.3335 8.98741 18.9878 10.3334 17.3334 10.3334C15.6791 10.3334 14.3334 8.98741 14.3334 7.33338C14.3334 5.67935 15.6791 4.33336 17.3334 4.33336C17.9235 4.33336 18.4947 4.50568 18.9867 4.83142C19.14 4.93276 19.347 4.8908 19.4488 4.73737C19.5504 4.5841 19.5084 4.3771 19.3547 4.27531C19.0377 4.06534 18.6934 3.90939 18.3334 3.807V3.66668C18.3334 2.74762 17.5858 2 16.6667 2H6.66667C5.74762 2 5 2.74762 5 3.66668V8.07889C4.89568 8.03083 4.78467 7.99988 4.66666 7.99988C4.19298 7.99988 3.80936 8.41953 3.7006 8.99988H3.33334C3.14896 8.99988 3 9.14929 3 9.33322V17.3333C3 17.5172 3.14896 17.6666 3.33334 17.6666H12.1722L14.2239 18.851C14.1605 19.0784 14.1586 19.3193 14.2212 19.5534C14.3132 19.8974 14.5338 20.1851 14.8422 20.3631L16.2272 21.1628C16.9027 21.5528 17.7068 21.6134 18.4336 21.3297C18.9696 21.1198 19.5645 21.1644 20.0639 21.4531L20.9336 21.9555C20.9863 21.9857 21.0436 22 21.1002 22C21.2156 22 21.3276 21.9403 21.3892 21.8333C21.4812 21.674 21.4266 21.4699 21.2672 21.378L20.3976 20.8756C19.7223 20.4852 18.9179 20.4242 18.1912 20.7086C17.6548 20.9183 17.0598 20.8736 16.5608 20.5852L15.1758 19.7855C15.0215 19.6966 14.9111 19.5528 14.8651 19.3809C14.8498 19.3242 14.8452 19.2669 14.8447 19.2097L15.9197 19.8303C15.9721 19.8607 16.0294 19.875 16.0861 19.875C16.2014 19.875 16.3135 19.8153 16.3751 19.7083C16.4671 19.5486 16.4125 19.3449 16.2531 19.253L12.5001 17.0863ZM4.66695 8.66645C4.76025 8.66645 4.88124 8.79115 4.94894 8.99979H4.38524C4.45265 8.79115 4.57365 8.66645 4.66695 8.66645ZM5.66696 11.6665H7.0003V12.9998H5.66696V11.6665ZM7.66697 11.6665H9.00031V12.9998H7.66697V11.6665ZM9.66698 11.6665H11.0003V12.9998H9.66698V11.6665ZM11.667 11.6665H13.0003V12.9998H11.667V11.6665ZM3.66694 13.6665H5.00028V14.9998H3.66694V13.6665ZM5.66696 13.6665H7.0003V14.9998H5.66696V13.6665ZM7.66697 13.6665H9.00031V14.9998H7.66697V13.6665ZM9.66698 13.6665H11.0003V14.9998H9.66698V13.6665ZM11.667 13.6665H13.0003V14.9998H11.667V13.6665ZM5.00028 12.9998H3.66694V11.6665H5.00028V12.9998ZM3.66694 15.6665H5.00028V16.9998H3.66694V15.6665ZM5.66696 15.6665H7.0003V16.9998H5.66696V15.6665ZM7.66697 15.6665H9.00031V16.9998H7.66697V15.6665ZM9.66698 15.6665H11.0003V16.9998H9.66698V15.6665ZM12.4084 15.8315C12.1503 15.9006 11.9347 16.0662 11.8014 16.2972C11.6777 16.5119 11.642 16.7588 11.692 16.9998H11.667V15.6665H13.0003V15.8558C12.8113 15.7885 12.6067 15.7785 12.4084 15.8315ZM16.1103 14.1668C15.9824 14.3885 15.9493 14.6391 15.9983 14.8719C15.7722 14.9458 15.5716 15.0998 15.4436 15.3216C15.3157 15.5433 15.2826 15.7939 15.3316 16.0266C15.1056 16.1006 14.905 16.2549 14.777 16.4766C14.7186 16.5777 14.6799 16.685 14.6597 16.7936L13.667 16.2202V9.33294C13.667 9.14901 13.518 8.99961 13.3336 8.99961H12.633C12.5244 8.41926 12.1408 7.9996 11.667 7.9996C11.4073 7.9996 11.1763 8.12892 11.0003 8.338C10.8242 8.12892 10.5933 7.9996 10.3336 7.9996C9.77258 7.9996 9.33361 8.58532 9.33361 9.33294C9.33361 10.0806 9.77258 10.6663 10.3336 10.6663C10.518 10.6663 10.667 10.5169 10.667 10.3329C10.667 10.149 10.518 9.99961 10.3336 9.99961C10.2403 9.99961 10.1193 9.87491 10.0516 9.66628H10.701C10.8097 10.2466 11.1933 10.6663 11.6671 10.6663C11.8515 10.6663 12.0004 10.5169 12.0004 10.3329C12.0004 10.149 11.8515 9.99961 11.6671 9.99961C11.5738 9.99961 11.4528 9.87491 11.3851 9.66628H13.0003V10.9996H3.66689V9.66628H3.70082C3.80945 10.2466 4.19308 10.6663 4.66688 10.6663C4.85125 10.6663 5.00021 10.5169 5.00021 10.3329C5.00021 10.149 4.85125 9.99961 4.66688 9.99961C4.57357 9.99961 4.45259 9.87491 4.38488 9.66628H5.0343C5.14293 10.2466 5.52657 10.6663 6.00036 10.6663C6.18474 10.6663 6.3337 10.5169 6.3337 10.3329C6.3337 10.149 6.18474 9.99961 6.00036 9.99961C5.90706 9.99961 5.78607 9.87491 5.71837 9.66628H9.33354C9.51792 9.66628 9.66688 9.51687 9.66688 9.33294C9.66688 9.14901 9.51792 8.99961 9.33354 8.99961H6.96626C6.85763 8.41926 6.47399 7.9996 6.0002 7.9996C5.88219 7.9996 5.77118 8.03055 5.66686 8.07862V3.6664C5.66686 3.11505 6.11551 2.6664 6.66687 2.6664H16.6669C17.2183 2.6664 17.6669 3.11505 17.6669 3.6664V3.68337C17.5567 3.6734 17.4457 3.6664 17.3336 3.6664C15.3119 3.6664 13.6669 5.31136 13.6669 7.33309C13.6669 9.35482 15.3119 10.9998 17.3336 10.9998C17.4462 10.9998 17.557 10.9928 17.6669 10.9828V13.9102L17.4766 13.8003C16.9986 13.5251 16.3861 13.6891 16.1103 14.1668ZM11.9492 8.9999H11.3855C11.4527 8.79127 11.5739 8.66656 11.6675 8.66656C11.7612 8.66656 11.8815 8.79127 11.9492 8.9999ZM10.6158 8.9999H10.0521C10.1194 8.79127 10.2405 8.66656 10.3341 8.66656C10.4279 8.66656 10.5481 8.79127 10.6158 8.9999ZM5.71865 8.9999C5.78591 8.79127 5.90704 8.66656 6.00065 8.66656C6.09425 8.66656 6.21493 8.79127 6.28264 8.9999H5.71865Z" fill="black"/>
<path d="M6.99968 3.66732C6.99968 3.8514 6.85042 4.00065 6.66634 4.00065C6.48227 4.00065 6.33301 3.8514 6.33301 3.66732C6.33301 3.48324 6.48227 3.33398 6.66634 3.33398C6.85042 3.33398 6.99968 3.48324 6.99968 3.66732Z" fill="black"/>
<path d="M8.33366 3.66732C8.33366 3.8514 8.1844 4.00065 8.00033 4.00065C7.81625 4.00065 7.66699 3.8514 7.66699 3.66732C7.66699 3.48324 7.81625 3.33398 8.00033 3.33398C8.1844 3.33398 8.33366 3.48324 8.33366 3.66732Z" fill="black"/>
<path d="M18.4306 6.09775L16.6663 7.86218L15.9021 7.0979C15.7717 6.96755 15.561 6.96755 15.4308 7.0979C15.3004 7.22826 15.3004 7.43898 15.4308 7.56918L16.4308 8.56919C16.4957 8.63407 16.5811 8.66681 16.6663 8.66681C16.7516 8.66681 16.837 8.63407 16.9021 8.56919L18.9021 6.56918C19.0324 6.43882 19.0324 6.22811 18.9021 6.0979C18.7717 5.96739 18.561 5.96739 18.4306 6.09775L18.4306 6.09775Z" fill="black"/>
</svg>
